<?xml version="1.0" encoding="UTF-8"?>
<svg id="Layer_2" data-name="Layer 2" xmlns="http://www.w3.org/2000/svg" viewBox="0 0 1917.11 643.02">
  <defs>
    <style>
      .cls-1 {
        fill: #ff8200;
      }

      .cls-1, .cls-2, .cls-3, .cls-4, .cls-5 {
        stroke-width: 0px;
      }

      .cls-3 {
        fill: #fef2e8;
      }

      .cls-6 {
        fill: none;
        stroke: #000;
        stroke-linecap: round;
        stroke-width: 3.37px;
      }

      .cls-4 {
        fill: #54bcca;
      }

      .cls-5 {
        fill: #cb4565;
      }
    </style>
  </defs>
  <g id="Layer_1-2" data-name="Layer 1">
    <g>
      <path class="cls-6" d="M1.69,626.89c14.83-9.18,29.67-18.37,91.84-39.2,62.16-20.84,171.66-53.33,283.63-55.1,111.98-1.76,226.41,27.2,307.65,47.68,81.24,20.49,129.28,32.5,177.65,42.66,48.37,10.17,97.07,18.49,145.29,18.41,48.21-.08,95.94-8.56,129.85-17.09,33.91-8.53,53.99-17.11,66.03-25.9,12.05-8.78,16.04-17.77,18.04-25.27,2-7.49,2-13.49-3-22.23-4.99-8.74-14.98-20.23-40.34-47.95-25.35-27.73-66.06-71.68-90.04-96.54-23.98-24.85-31.22-30.6-37.71-31.35-6.49-.75-12.24,3.5-20.73,11.12-8.5,7.62-19.74,18.61-24.11,25.85-4.37,7.25-1.87,10.75,26.86,39.97,28.73,29.22,83.67,84.17,111.65,110.9,27.96,26.73,28.97,25.23,35.72,18.36,6.74-6.87,19.23-19.11,24.1-26.48,4.87-7.37,2.13-9.86-24.98-38.09-27.1-28.23-78.55-82.17-108.15-111.65-29.6-29.48-37.34-34.47-43.83-36.6-6.49-2.12-11.74-1.37-16.86,1.75-5.12,3.12-10.12,8.62-12.37,14.24-2.24,5.62-1.74,11.37.38,16.99,2.12,5.62,5.87,11.11,9.49,12.61,3.62,1.5,7.12-1,13.99-7.24,6.87-6.25,17.11-16.24,17.61-24.48.5-8.24-8.74-14.74-17.23-21.61-8.5-6.87-16.24-14.11-20.61-16.86-4.38-2.75-5.37-1-8.87,2.75-3.5,3.74-9.49,9.49-13.24,14.24-3.75,4.74-5.25,8.49-2.25,15.11s10.49,16.11,14.74,22.36c4.25,6.24,5.25,9.24.37,4.24-4.87-4.99-15.61-17.98-24.6-24.73-8.99-6.74-16.24-7.24-22.61-8.37-6.37-1.12-11.86-2.87-14.86-4.99-3-2.12-3.5-4.62.5-8.62,4-4,12.49-9.49,21.86-18.74,9.36-9.24,19.6-22.23,25.97-30.1,6.37-7.86,8.87-10.61,11.75-8.24,2.87,2.38,6.12,9.87,7.24,17.36,1.12,7.5.12,14.99-2.87,21.11-3,6.12-8,10.87-13.87,15.61-5.87,4.75-12.61,9.49-20.1,11.12-7.5,1.62-15.74.12-22.49-1.5-6.74-1.62-11.99-3.37-19.48-2.12-7.49,1.24-17.24,5.49-29.23,9.36-11.99,3.87-26.23,7.37-40.83,9.49-14.61,2.13-29.59,2.88-49.2-.24-19.61-3.13-43.83-10.12-65.56-22.99-21.73-12.86-40.95-31.59-55.32-52.69-14.36-21.11-23.85-44.58-28.23-71.18-4.37-26.61-3.62-56.32,1.63-81.18,5.24-24.85,14.98-44.84,28.47-62.56,13.49-17.74,30.73-33.22,52.58-45.71,21.85-12.49,48.32-21.98,73.93-25.47,25.6-3.5,50.32-1,72.18,5.24,21.86,6.25,40.84,16.24,56.95,28.48,16.11,12.24,29.34,26.73,40.08,41.08,10.74,14.37,18.99,28.6,25.36,43.47,6.37,14.86,10.86,30.34,11.36,50.82.5,20.48-3,45.95-7.37,63.94-4.37,17.98-9.62,28.47-14.49,33.96-4.87,5.49-9.36,5.99-9.49.75-.12-5.25,4.12-16.24,7.87-32.35,3.75-16.11,6.99-37.33,7.74-51.95.75-14.61-.99-22.6-4.74-35.47-3.75-12.86-9.49-30.6-19.11-47.32-9.62-16.74-23.11-32.48-36.72-44.97-13.61-12.49-27.35-21.73-40.83-27.97-13.49-6.24-26.73-9.49-40.47-11.24-13.74-1.75-27.98-2-45.08.63-17.11,2.62-37.08,8.11-54.07,15.98-16.98,7.87-30.97,18.11-42.84,29.98-11.86,11.87-21.61,25.35-29.97,41.58-8.37,16.24-15.37,35.22-17.86,54.95-2.5,19.73-.5,40.2,3.62,58.81,4.12,18.61,10.36,35.34,20.36,51.58,9.99,16.23,23.73,31.97,40.22,44.33,16.48,12.36,35.72,21.35,57.69,26.6,21.98,5.24,46.7,6.74,65.81,5.12,19.11-1.63,32.59-6.37,44.96-11.24,12.37-4.87,23.61-9.87,33.47-16.74,9.87-6.87,18.36-15.61,25.23-22.48,6.87-6.87,12.12-11.87,17.86-15.24,5.75-3.37,11.99-5.12,37.82-.46,25.84,4.67,71.26,15.75,123.65,6.09,52.38-9.65,111.71-40.03,159.4-82.41,47.68-42.39,83.72-96.79,127.52-134.58,43.8-37.8,95.37-58.98,145.88-67.11,50.51-8.12,99.97-3.17,147.29,4.24,47.33,7.42,92.55,17.31,125.39,14.13,32.85-3.18,53.33-19.43,73.82-35.68"/>
      <path class="cls-3" d="M988.32,208.77c6.21,169.12-201.82,162.44-260.76,107.58-56.19-52.29-66.37-132.35-38.62-182.83,27.59-50.19,49.69-69.53,86.86-81.4,46.35-14.8,104.55-7.9,145.43,19.78,40.87,27.68,64.33,61.81,67.09,136.87Z"/>
      <g>
        <path class="cls-2" d="M726.38,269.89c.96.85,2.43,1.88,4.39,3.09,1.54.92,2.74,1.69,3.61,2.33.87.64,1.61,1.39,2.23,2.26.62.87.93,1.83.93,2.87,0,2-.61,3.56-1.81,4.69-1.21,1.13-2.63,1.91-4.25,2.33-1.62.42-3.18.64-4.69.64-1.86,0-3.62-.34-5.28-1.01-1.65-.67-3.02-1.48-4.1-2.43v-6.18c2.42,2.39,4.48,4.29,6.19,5.69,1.7,1.41,3.11,2.11,4.22,2.11,1.21,0,1.82-1.06,1.82-3.19,0-.62-.37-1.23-1.1-1.82s-1.86-1.33-3.36-2.21c-1.67-.98-3.05-1.87-4.15-2.65-1.1-.78-2.04-1.75-2.82-2.9-.79-1.15-1.18-2.44-1.18-3.88s.51-2.75,1.52-3.83c1.02-1.08,2.33-1.89,3.95-2.43,1.62-.54,3.3-.81,5.03-.81,2.78,0,5.27.45,7.46,1.35,2.19.9,3.21,2.17,3.29,3.8.06,1.26-.54,2.55-1.35,3.26-.85.75-1.67,1.01-2.52,1.01-1.05,0-2-.36-2.87-1.08-.87-.72-1.3-1.64-1.3-2.75,0-.85.19-1.59.56-2.21.38-.62.83-1.1,1.35-1.42-1.37-.52-2.65-.79-3.83-.79-2.26,0-3.39,1.06-3.39,3.19,0,1.11.48,2.09,1.45,2.94Z"/>
        <path class="cls-2" d="M752.37,273.71c0,3.63.42,6.61,1.25,8.94.84,2.32,1.83,4,2.99,5.03,1.16,1.03,2.28,1.55,3.36,1.55v.74c-2.95,0-5.62-.79-8.03-2.36-2.41-1.57-4.29-3.61-5.65-6.11-1.36-2.5-2.04-5.1-2.04-7.78v-8.93c-.59.03-1.59.11-2.99.24v-1.91c.69.07,1.69.13,2.99.2v-9.82c3.6,3.96,6.79,5.94,9.57,5.94-.98,1.11-1.47,2.11-1.47,2.99v.93c.66-.03,1.64-.11,2.95-.25v1.91c-1.31-.13-2.29-.21-2.95-.24v8.93Z"/>
        <path class="cls-2" d="M771.86,283.53c0,1.05.16,1.92.49,2.63s.75,1.35,1.28,1.94h-11.68c.56-.62,1-1.28,1.33-1.96.33-.69.49-1.55.49-2.6v-11.29c0-.88-.49-1.88-1.47-2.99,2.78,0,5.97-1.98,9.57-5.94v20.22Z"/>
        <path class="cls-2" d="M779.99,259.68c-.28-.92-.4-1.82-.37-2.7h18.56v6.33c-2.36,2.36-4.5,5.13-6.43,8.32-1.93,3.19-3.44,6.28-4.52,9.28-1.08,2.99-1.62,5.39-1.62,7.19h-10.75l20.08-27.78c-2.03.65-4.06,1.21-6.09,1.67-2.03.46-3.7.69-5.01.69-1.18,0-1.98-.21-2.41-.64-.69-.65-1.17-1.44-1.45-2.36Z"/>
        <path class="cls-2" d="M816.26,282.01c1.39-.29,2.66-.65,3.8-1.08-.79,2.06-2.22,3.8-4.3,5.23-2.08,1.42-4.77,2.13-8.08,2.13-1.54,0-3.17-.48-4.91-1.45-1.73-.96-3.2-2.34-4.39-4.12-1.2-1.78-1.79-3.85-1.79-6.21,0-2.55.52-4.83,1.55-6.82,1.03-1.99,2.56-3.57,4.59-4.74,2.03-1.16,4.47-1.74,7.32-1.74.69,0,1.67.1,3.04.62,1.37.52,2.67,1.51,3.78,2.64,1.11,1.13,2,2.6,2,4.34,0,1.83-.6,2.76-1.76,3.52-1.54,1-4.64.89-6.08-.95-.91-1.17-1.36-3.3.42-5.07.96-.95,1.76-1.05,2.81-1.18-.16-.88-.55-1.64-1.15-2.26-.61-.62-1.42-.93-2.43-.93-1.28,0-2.41.42-3.41,1.25-1,.83-1.78,1.97-2.33,3.41-.56,1.44-.84,3.06-.84,4.86s.38,3.29,1.13,4.66c.75,1.37,1.75,2.44,2.99,3.19,1.24.75,2.59,1.13,4.03,1.13,1.28,0,2.61-.15,4-.44Z"/>
        <path class="cls-2" d="M847.2,283.53c0,1.05.16,1.91.49,2.6.33.69.77,1.34,1.33,1.96h-11.68c.52-.59.95-1.23,1.28-1.94.33-.7.49-1.58.49-2.63v-13.11c0-2.13-.2-3.75-.61-4.86s-1.17-1.67-2.28-1.67c-1.21,0-2.21.57-2.99,1.72-.79,1.15-1.41,2.39-1.87,3.73v14.19c0,1.05.16,1.91.49,2.6.33.69.77,1.34,1.33,1.96h-11.73c.56-.62,1-1.28,1.33-1.96.33-.69.49-1.55.49-2.6v-21.16c0-.52-.13-1.01-.39-1.47-.26-.46-.62-.95-1.08-1.47,2.81,0,6.01-2,9.57-5.99v12.91c.39-.92,1.01-1.77,1.84-2.55.84-.79,1.97-1.18,3.41-1.18,1.18,0,2.61.38,4.3,1.13,1.68.75,3.16,1.86,4.42,3.34,1.26,1.47,1.89,3.24,1.89,5.3v11.14Z"/>
        <path class="cls-4" d="M780.84,139.89c3.32-2.54,27.7-20.13,62.78-3.67,39.15,18.38,49.05,76.97,16.29,93.29-32.75,16.32-73.32,11.91-92.15-21.04-23.57-41.24,10.15-66.33,13.08-68.58Z"/>
        <path class="cls-2" d="M767.25,249.6c-5.91-9.06-9.3-19.62-9.72-30.43s1.97-21.01,7.01-30.19,13.41-17.42,23.24-22.23c5.56-2.72,11.62-4.6,17.63-6.03,5.32-1.26,10.78-2.04,16.25-2.1,8.71-.11,17.48,1.65,25.16,5.84,6.55,3.57,12.12,8.78,16.21,15.01,3.8,5.78,6.37,12.37,7.58,19.19,1.11,6.27,1.12,12.84-.49,19.03-2,7.71-6.93,14.08-13.08,19.04-9.89,7.98-22.69,11.08-35.22,9.5-12.48-1.58-24.97-7.31-34.53-15.49-6.86-5.87-12.15-13.48-14.44-22.27-2.09-8.03-1.58-16.52.85-24.42,2.6-8.45,7.28-16.21,13.14-22.8,6.26-7.05,13.92-12.85,22.38-17,9.02-4.42,18.97-6.92,29.02-7.07s18.91,2.03,27.78,5.47,16.58,7.64,24.82,11.54,16.63,7.29,25.57,8.89c10.22,1.82,20.64,1.1,30.63-1.62,6.11-1.66,12.01-4.01,17.7-6.77,1.1-.53-.62-.49-1.08-.27-11.15,5.39-23.25,9.14-35.74,8.91-9.71-.18-19.11-2.77-28.03-6.5s-16.73-8.06-25.2-11.89-17.52-7.02-26.92-8.11c-10.14-1.17-20.49.09-30.17,3.28s-17.88,7.93-25.28,14.24c-6.99,5.96-12.95,13.26-17.05,21.51-3.79,7.62-5.98,16.14-5.57,24.68.41,8.68,3.62,16.94,8.99,23.76,6.94,8.82,16.97,15.03,27.36,19.01,12.49,4.79,26.42,5.66,39.07.99,9.7-3.58,18.97-10.53,24.01-19.71,2.93-5.34,4.07-11.55,4.1-17.59.03-6.91-1.44-13.82-4.15-20.17-2.86-6.7-7.17-12.79-12.68-17.56-6.17-5.34-13.74-8.83-21.73-10.38-10.2-1.98-20.77-.95-30.78,1.57-11.46,2.89-22.52,7.46-31.16,15.73-7.72,7.39-13.07,17.05-15.53,27.43s-2.05,21.54,1.19,31.79c1.64,5.19,4.01,10.13,6.98,14.69.3.47,2.02-.25,1.86-.5h0Z"/>
        <path class="cls-1" d="M957.53,162.86c-2.01-2.13-2.26-2.37.21-11.74.75-2.85,1.42-4.04,3.85-5.87,4.53-3.42,8.47,3.54,12.03,6.26,1.43,1.09,6.58,3.37-.64,7.84-7.22,4.47-13.44,5.63-15.45,3.51Z"/>
        <path class="cls-5" d="M765.93,246.21s5.22-1.09,8.77,5.29c3.55,6.38-2.42,11.39-8.08,11.52-6.56.16-8.82-4.22-8.96-7.61-.14-3.39,1.74-8.05,8.27-9.21Z"/>
      </g>
    </g>
  </g>
</svg>