<?xml version="1.0" standalone="no"?>
<svg id="Group2" width="479" height="296" viewBox="0 0 479 296" fill="none" xmlns="http://www.w3.org/2000/svg" style="max-width: 100%; max-height: 100%;">
<path d="M17.21 258.861C18.98 260.431 21.68 262.321 25.3 264.551C28.13 266.241 30.34 267.671 31.94 268.841C33.53 270.021 34.91 271.401 36.05 273.001C37.19 274.601 37.76 276.361 37.76 278.291C37.76 281.971 36.64 284.841 34.42 286.921C32.19 289.001 29.59 290.431 26.6 291.211C23.62 291.991 20.74 292.381 17.97 292.381C14.54 292.381 11.3 291.761 8.26 290.531C5.22 289.301 2.7 287.811 0.72 286.061V274.681C5.18 279.081 8.97 282.571 12.11 285.161C15.24 287.751 17.83 289.051 19.88 289.051C22.11 289.051 23.22 287.091 23.22 283.181C23.22 282.041 22.54 280.921 21.19 279.841C19.83 278.761 17.77 277.401 15 275.771C11.93 273.961 9.38 272.331 7.36 270.891C5.34 269.451 3.61 267.671 2.17 265.561C0.72 263.451 0 261.071 0 258.421C0 255.771 0.94 253.361 2.8 251.371C4.67 249.381 7.09 247.891 10.07 246.901C13.05 245.911 16.14 245.411 19.33 245.411C24.45 245.411 29.03 246.241 33.06 247.891C37.1 249.551 38.97 251.891 39.11 254.891C39.22 257.211 38.11 259.591 36.62 260.901C35.05 262.271 33.54 262.761 31.97 262.761C30.04 262.761 28.28 262.101 26.68 260.771C25.08 259.451 24.28 257.761 24.28 255.711C24.28 254.151 24.63 252.791 25.32 251.641C26.01 250.501 26.84 249.621 27.8 249.021C25.27 248.061 22.92 247.571 20.75 247.571C16.59 247.571 14.52 249.531 14.52 253.441C14.52 255.491 15.41 257.291 17.19 258.861H17.21Z" fill="black" stroke-dasharray="0,0,0,258.55487060546875">
<animate attributeType="XML" attributeName="stroke-dasharray" repeatCount="indefinite" dur="7.5s" values="0,0,0,258.55487060546875; 
          0,129.27743530273438,129.27743530273438,0; 
          258.55487060546875,0,0,0;
          258.55487060546875,0,0,0" keyTimes="0; 0.2; 0.5; 1" fill="freeze"></animate></path>
<path d="M65.06 265.911C65.06 272.601 65.83 278.081 67.36 282.361C68.9 286.641 70.74 289.721 72.87 291.621C75.01 293.521 77.07 294.471 79.06 294.471V295.831C73.64 295.831 68.71 294.381 64.29 291.491C59.86 288.601 56.4 284.851 53.9 280.241C51.4 275.631 50.15 270.861 50.15 265.921V249.471C49.07 249.531 47.23 249.681 44.64 249.921V246.401C45.91 246.521 47.74 246.641 50.15 246.761V228.691C56.78 235.981 62.65 239.631 67.77 239.631C65.96 241.681 65.06 243.521 65.06 245.141V246.861C66.27 246.801 68.07 246.651 70.48 246.411V249.931C68.07 249.691 66.26 249.541 65.06 249.481V265.931V265.911Z" fill="black" stroke-dasharray="0,0,0,191.19654846191406">
<animate attributeType="XML" attributeName="stroke-dasharray" repeatCount="indefinite" dur="7.5s" values="0,0,0,191.19654846191406; 
          0,95.59827423095703,95.59827423095703,0; 
          191.19654846191406,0,0,0;
          191.19654846191406,0,0,0" keyTimes="0; 0.2; 0.5; 1" fill="freeze"></animate></path>
<path d="M100.93 283.981C100.93 285.911 101.23 287.521 101.83 288.811C102.43 290.101 103.21 291.291 104.18 292.381H82.67C83.69 291.241 84.51 290.031 85.11 288.771C85.71 287.511 86.01 285.911 86.01 283.981V263.201C86.01 261.571 85.11 259.741 83.3 257.691C88.42 257.691 94.29 254.051 100.92 246.761V283.991L100.93 283.981Z" fill="black" stroke-dasharray="0,0,0,125.62164306640625">
<animate attributeType="XML" attributeName="stroke-dasharray" repeatCount="indefinite" dur="7.5s" values="0,0,0,125.62164306640625; 
          0,62.810821533203125,62.810821533203125,0; 
          125.62164306640625,0,0,0;
          125.62164306640625,0,0,0" keyTimes="0; 0.2; 0.5; 1" fill="freeze"></animate></path>
<path d="M115.89 240.061C115.38 238.371 115.15 236.721 115.21 235.091H149.37V246.751C145.03 251.091 141.09 256.191 137.53 262.071C133.97 267.941 131.2 273.641 129.22 279.151C127.23 284.661 126.24 289.071 126.24 292.391H106.45L143.41 241.251C139.67 242.451 135.94 243.481 132.21 244.321C128.47 245.161 125.4 245.581 122.99 245.581C120.82 245.581 119.34 245.191 118.56 244.401C117.3 243.201 116.4 241.751 115.89 240.061Z" fill="black" stroke-dasharray="0,0,0,216.60299682617188">
<animate attributeType="XML" attributeName="stroke-dasharray" repeatCount="indefinite" dur="7.5s" values="0,0,0,216.60299682617188; 
          0,108.30149841308594,108.30149841308594,0; 
          216.60299682617188,0,0,0;
          216.60299682617188,0,0,0" keyTimes="0; 0.2; 0.5; 1" fill="freeze"></animate></path>
<path d="M182.67 281.181C185.23 280.641 187.56 279.981 189.67 279.191C188.22 282.981 185.59 286.191 181.76 288.811C177.93 291.431 172.98 292.741 166.89 292.741C164.06 292.741 161.05 291.851 157.85 290.071C154.66 288.301 151.96 285.761 149.76 282.481C147.56 279.201 146.46 275.391 146.46 271.051C146.46 266.351 147.41 262.161 149.31 258.491C151.21 254.821 154.02 251.911 157.76 249.771C161.49 247.631 165.99 246.561 171.23 246.561C172.49 246.561 174.3 246.751 176.83 247.711C179.36 248.671 181.74 250.491 183.79 252.571C185.84 254.651 187.47 257.361 187.47 260.551C187.47 263.931 186.37 265.641 184.24 267.031C181.41 268.881 175.7 268.671 173.05 265.291C171.37 263.141 170.54 259.211 173.83 255.961C175.6 254.211 177.07 254.031 179 253.791C178.7 252.161 177.99 250.781 176.88 249.631C175.76 248.491 174.27 247.921 172.4 247.921C170.05 247.921 167.96 248.691 166.12 250.221C164.28 251.751 162.85 253.851 161.83 256.501C160.8 259.151 160.29 262.141 160.29 265.451C160.29 268.761 160.98 271.501 162.37 274.031C163.75 276.561 165.59 278.521 167.88 279.901C170.17 281.281 172.64 281.981 175.29 281.981C177.64 281.981 180.09 281.711 182.66 281.171L182.67 281.181Z" fill="black" stroke-dasharray="0,0,0,232.54588317871094">
<animate attributeType="XML" attributeName="stroke-dasharray" repeatCount="indefinite" dur="7.5s" values="0,0,0,232.54588317871094; 
          0,116.27294158935547,116.27294158935547,0; 
          232.54588317871094,0,0,0;
          232.54588317871094,0,0,0" keyTimes="0; 0.2; 0.5; 1" fill="freeze"></animate></path>
<path d="M239.61 283.981C239.61 285.911 239.91 287.501 240.51 288.771C241.11 290.041 241.93 291.241 242.95 292.381H221.44C222.4 291.301 223.19 290.111 223.79 288.811C224.39 287.511 224.69 285.901 224.69 283.981V259.851C224.69 255.941 224.31 252.951 223.56 250.911C222.81 248.861 221.4 247.841 219.36 247.841C217.13 247.841 215.29 248.901 213.85 251.001C212.4 253.111 211.26 255.401 210.41 257.871V283.981C210.41 285.911 210.71 287.501 211.31 288.771C211.91 290.041 212.73 291.241 213.75 292.381H192.15C193.17 291.241 193.99 290.031 194.59 288.771C195.19 287.511 195.49 285.911 195.49 283.981V245.031C195.49 244.071 195.25 243.161 194.77 242.321C194.29 241.481 193.63 240.571 192.78 239.611C197.96 239.611 203.84 235.941 210.4 228.591V252.361C211.12 250.671 212.25 249.101 213.79 247.661C215.33 246.211 217.42 245.491 220.07 245.491C222.24 245.491 224.87 246.181 227.98 247.571C231.08 248.961 233.79 251.001 236.11 253.721C238.43 256.431 239.59 259.681 239.59 263.481V283.991L239.61 283.981Z" fill="black" stroke-dasharray="0,0,0,312.0076904296875">
<animate attributeType="XML" attributeName="stroke-dasharray" repeatCount="indefinite" dur="7.5s" values="0,0,0,312.0076904296875; 
          0,156.00384521484375,156.00384521484375,0; 
          312.0076904296875,0,0,0;
          312.0076904296875,0,0,0" keyTimes="0; 0.2; 0.5; 1" fill="freeze"></animate></path>
<path d="M117.45 19.5612C123.57 14.8812 168.45 -17.4988 233.01 12.8012C305.09 46.6312 323.3 154.491 263.01 184.531C202.72 214.571 128.04 206.461 93.37 145.791C49.97 69.8712 112.06 23.6812 117.45 19.5512V19.5612Z" fill="#54BCCA" stroke-dasharray="0,0,0,666.9169921875">
<animate attributeType="XML" attributeName="stroke-dasharray" repeatCount="indefinite" dur="7.5s" values="0,0,0,666.9169921875; 
          0,333.45849609375,333.45849609375,0; 
          666.9169921875,0,0,0;
          666.9169921875,0,0,0" keyTimes="0; 0.2; 0.5; 1" fill="freeze"></animate></path>
<mask id="mask0_1_78" style="mask-type:alpha" maskUnits="userSpaceOnUse" x="68" y="14" width="396" height="207">
<path d="M89.3859 219.393C78.4759 202.703 72.2459 183.213 71.4859 163.283C70.7559 143.943 75.1859 124.443 84.5659 107.493C94.2359 90.023 109.126 78.753 127.066 69.943C137.286 64.933 148.416 61.463 159.466 58.823C169.136 56.523 179.056 55.093 189.006 54.923C205.136 54.643 221.406 57.843 235.656 65.563C247.746 72.113 258.036 81.693 265.596 93.163C272.646 103.843 277.406 116.013 279.646 128.603C281.696 140.153 281.706 152.263 278.756 163.663C275.076 177.873 265.966 189.603 254.636 198.743C236.676 213.213 213.566 218.933 190.816 216.303C177.436 214.763 164.496 210.453 152.436 204.553C143.286 200.073 134.546 194.653 126.756 188.073C114.086 177.363 104.226 163.443 99.8759 147.323C95.8859 132.553 96.7059 116.903 101.086 102.323C105.776 86.753 114.296 72.433 125.006 60.253C136.486 47.193 150.566 36.413 166.146 28.693C182.496 20.593 200.486 15.963 218.736 15.463C236.986 14.963 253.886 18.863 270.386 25.173C286.036 31.163 310.826 49.093 325.936 56.283C341.096 63.493 356.746 69.943 373.326 72.983C392.276 76.463 411.626 75.193 430.186 70.163C441.496 67.103 452.416 62.753 462.946 57.653C463.486 57.393 463.856 57.123 463.356 56.733C462.886 56.373 461.396 56.953 460.966 57.163C440.606 67.023 418.506 73.893 395.696 73.573C378.026 73.323 360.926 68.733 344.666 62.053C328.786 55.523 313.706 47.243 288.096 30.123C272.486 23.003 256.056 17.093 238.846 14.933C220.036 12.573 200.816 14.773 182.806 20.593C165.756 26.113 149.826 35.023 136.126 46.563C123.146 57.503 112.076 70.943 104.426 86.133C97.4059 100.073 93.3059 115.653 93.8959 131.333C94.4859 147.013 100.266 162.633 110.056 175.273C122.556 191.403 140.596 202.773 159.376 210.233C182.566 219.453 208.506 221.363 232.196 212.823C242.246 209.203 251.636 203.773 259.746 196.813C266.386 191.113 272.546 184.273 276.816 176.583C282.266 166.763 284.426 155.293 284.486 144.153C284.566 131.473 281.906 118.773 276.966 107.103C271.716 94.713 263.786 83.413 253.606 74.583C242.276 64.753 228.366 58.303 213.676 55.423C194.796 51.723 175.226 53.633 156.706 58.323C135.516 63.693 115.096 72.173 99.1859 87.543C85.0559 101.193 75.2859 115.973 70.8359 135.073C66.3859 154.173 67.1759 174.693 73.1859 193.513C76.2059 202.983 80.5259 211.993 85.9559 220.303C86.5159 221.163 89.6759 219.843 89.3759 219.383L89.3859 219.393Z" fill="black" stroke-dasharray="0,0,0,2215.505615234375">
<animate attributeType="XML" attributeName="stroke-dasharray" repeatCount="indefinite" dur="7.5s" values="0,0,0,2215.505615234375; 
          0,1107.7528076171875,1107.7528076171875,0; 
          2215.505615234375,0,0,0;
          2215.505615234375,0,0,0" keyTimes="0; 0.2; 0.5; 1" fill="freeze"></animate></path>
</mask>
<g mask="url(#mask0_1_78)">
<path d="M86.0986 221.975C49.0987 171.975 64.8986 52.8749 206.099 58.4749C264.099 69.475 294.289 124.975 278.099 167.475C246.099 251.475 129.732 221.975 100.099 158.475C82.5986 120.975 104.599 35.475 210.099 18.475C229.765 18.1416 254.599 11.4752 329.599 60.9752C370.599 88.0352 443.099 79.4749 462.099 58.4749" stroke="black" stroke-width="10" stroke-linecap="round" stroke-linejoin="round" stroke-dasharray="0,0,0,1101.664306640625">
<animate attributeType="XML" attributeName="stroke-dasharray" repeatCount="indefinite" dur="7.5s" values="0,0,0,1101.664306640625; 
          0,550.8321533203125,550.8321533203125,0; 
          1101.664306640625,0,0,0;
          1101.664306640625,0,0,0" keyTimes="0; 0.2; 0.5; 1" fill="freeze"></animate></path>
</g>
<path d="M442.71 61.8512C439.02 57.9412 438.55 57.4912 443.1 40.2312C444.48 34.9912 445.72 32.7912 450.18 29.4212C458.52 23.1212 465.77 35.9412 472.32 40.9512C474.94 42.9612 484.44 47.1512 471.15 55.3912C457.86 63.6212 446.41 65.7612 442.71 61.8512Z" fill="#FF8200" stroke-dasharray="0,0,0,114.21215057373047">
<animate attributeType="XML" attributeName="stroke-dasharray" repeatCount="indefinite" dur="7.5s" values="0,0,0,114.21215057373047; 
          0,57.106075286865234,57.106075286865234,0; 
          114.21215057373047,0,0,0;
          114.21215057373047,0,0,0" keyTimes="0; 0.2; 0.5; 1" fill="freeze"></animate></path>
<path d="M90.02 215.271C90.02 215.271 99.63 213.271 106.17 225.021C112.71 236.771 101.72 245.991 91.29 246.231C79.22 246.521 75.05 238.471 74.79 232.231C74.53 225.991 77.99 217.411 90.01 215.281L90.02 215.271Z" fill="#CB4565" stroke-dasharray="0,0,0,101.07621765136719">
<animate attributeType="XML" attributeName="stroke-dasharray" repeatCount="indefinite" dur="7.5s" values="0,0,0,101.07621765136719; 
          0,50.538108825683594,50.538108825683594,0; 
          101.07621765136719,0,0,0;
          101.07621765136719,0,0,0" keyTimes="0; 0.2; 0.5; 1" fill="freeze"></animate></path>
</svg>
