<?xml version="1.0" encoding="UTF-8"?>
<svg id="Layer_2" data-name="Layer 2" xmlns="http://www.w3.org/2000/svg" viewBox="0 0 478.08 295.82">
  <defs>
    <style>
      .cls-1 {
        fill: #ff8200;
      }

      .cls-1, .cls-2, .cls-3, .cls-4 {
        stroke-width: 0px;
      }

      .cls-3 {
        fill: #54bcca;
      }

      .cls-4 {
        fill: #cb4565;
      }
    </style>
  </defs>
  <g id="Layer_1-2" data-name="Layer 1">
    <g>
      <path class="cls-2" d="M17.22,258.86c1.77,1.57,4.47,3.46,8.09,5.69,2.83,1.69,5.04,3.12,6.64,4.29,1.59,1.18,2.97,2.56,4.11,4.16,1.14,1.6,1.71,3.36,1.71,5.29,0,3.68-1.12,6.55-3.34,8.63-2.23,2.08-4.83,3.51-7.82,4.29-2.98.78-5.86,1.17-8.63,1.17-3.43,0-6.67-.62-9.71-1.85-3.04-1.23-5.56-2.72-7.54-4.47v-11.38c4.46,4.4,8.25,7.89,11.39,10.48,3.13,2.59,5.72,3.89,7.77,3.89,2.23,0,3.34-1.96,3.34-5.87,0-1.14-.68-2.26-2.03-3.34-1.36-1.08-3.42-2.44-6.19-4.07-3.07-1.81-5.62-3.44-7.64-4.88-2.02-1.44-3.75-3.22-5.19-5.33-1.45-2.11-2.17-4.49-2.17-7.14s.94-5.06,2.8-7.05c1.87-1.99,4.29-3.48,7.27-4.47,2.98-.99,6.07-1.49,9.26-1.49,5.12,0,9.7.83,13.73,2.48,4.04,1.66,5.91,4,6.05,7,.11,2.32-1,4.7-2.49,6.01-1.57,1.37-3.08,1.86-4.65,1.86-1.93,0-3.69-.66-5.29-1.99-1.6-1.32-2.4-3.01-2.4-5.06,0-1.56.35-2.92,1.04-4.07.69-1.14,1.52-2.02,2.48-2.62-2.53-.96-4.88-1.45-7.05-1.45-4.16,0-6.23,1.96-6.23,5.87,0,2.05.89,3.85,2.67,5.42Z"/>
      <path class="cls-2" d="M65.07,265.91c0,6.69.77,12.17,2.3,16.45,1.54,4.28,3.38,7.36,5.51,9.26,2.14,1.9,4.2,2.85,6.19,2.85v1.36c-5.42,0-10.35-1.45-14.77-4.34-4.43-2.89-7.89-6.64-10.39-11.25-2.5-4.61-3.75-9.38-3.75-14.32v-16.45c-1.08.06-2.92.21-5.51.45v-3.52c1.27.12,3.1.24,5.51.36v-18.07c6.63,7.29,12.5,10.94,17.62,10.94-1.81,2.05-2.71,3.89-2.71,5.51v1.72c1.21-.06,3.01-.21,5.42-.45v3.52c-2.41-.24-4.22-.39-5.42-.45v16.45Z"/>
      <path class="cls-2" d="M100.94,283.98c0,1.93.3,3.54.9,4.83s1.38,2.48,2.35,3.57h-21.51c1.02-1.14,1.84-2.35,2.44-3.61.6-1.26.9-2.86.9-4.79v-20.78c0-1.63-.9-3.46-2.71-5.51,5.12,0,10.99-3.64,17.62-10.93v37.23Z"/>
      <path class="cls-2" d="M115.9,240.06c-.51-1.69-.74-3.34-.68-4.97h34.16v11.66c-4.34,4.34-8.28,9.44-11.84,15.32-3.56,5.87-6.33,11.57-8.31,17.08-1.99,5.51-2.98,9.92-2.98,13.24h-19.79l36.96-51.14c-3.74,1.2-7.47,2.23-11.2,3.07-3.74.84-6.81,1.26-9.22,1.26-2.17,0-3.65-.39-4.43-1.18-1.26-1.2-2.16-2.65-2.67-4.34Z"/>
      <path class="cls-2" d="M182.68,281.18c2.56-.54,4.89-1.2,7-1.99-1.45,3.79-4.08,7-7.91,9.62-3.83,2.62-8.78,3.93-14.87,3.93-2.83,0-5.84-.89-9.04-2.67-3.19-1.77-5.89-4.31-8.09-7.59-2.2-3.28-3.3-7.09-3.3-11.43,0-4.7.95-8.89,2.85-12.56,1.9-3.67,4.71-6.58,8.45-8.72,3.73-2.14,8.23-3.21,13.47-3.21,1.26,0,3.07.19,5.6,1.15,2.53.96,4.91,2.78,6.96,4.86,2.05,2.08,3.68,4.79,3.68,7.98,0,3.38-1.1,5.09-3.23,6.48-2.83,1.85-8.54,1.64-11.19-1.74-1.68-2.15-2.51-6.08.78-9.33,1.77-1.75,3.24-1.93,5.17-2.17-.3-1.63-1.01-3.01-2.12-4.16-1.12-1.14-2.61-1.71-4.48-1.71-2.35,0-4.44.77-6.28,2.3-1.84,1.53-3.27,3.63-4.29,6.28-1.03,2.65-1.54,5.64-1.54,8.95s.69,6.05,2.08,8.58c1.38,2.53,3.22,4.49,5.51,5.87,2.29,1.38,4.76,2.08,7.41,2.08,2.35,0,4.8-.27,7.37-.81Z"/>
      <path class="cls-2" d="M239.62,283.98c0,1.93.3,3.52.9,4.79.6,1.27,1.42,2.47,2.44,3.61h-21.51c.96-1.08,1.75-2.27,2.35-3.57.6-1.3.9-2.91.9-4.83v-24.13c0-3.91-.38-6.9-1.13-8.94-.75-2.05-2.16-3.07-4.2-3.07-2.23,0-4.07,1.06-5.51,3.16-1.45,2.11-2.59,4.4-3.44,6.87v26.11c0,1.93.3,3.52.9,4.79.6,1.27,1.42,2.47,2.44,3.61h-21.6c1.02-1.14,1.84-2.35,2.44-3.61.6-1.26.9-2.86.9-4.79v-38.95c0-.96-.24-1.87-.72-2.71-.48-.84-1.14-1.75-1.99-2.71,5.18,0,11.06-3.67,17.62-11.02v23.77c.72-1.69,1.85-3.26,3.39-4.7,1.54-1.45,3.63-2.17,6.28-2.17,2.17,0,4.8.69,7.91,2.08,3.1,1.39,5.81,3.43,8.13,6.15,2.32,2.71,3.48,5.96,3.48,9.76v20.51Z"/>
      <path class="cls-3" d="M117.46,19.56c6.12-4.68,51-37.06,115.56-6.76,72.08,33.83,90.29,141.69,30,171.73-60.29,30.04-134.97,21.93-169.64-38.74-43.4-75.92,18.69-122.11,24.08-126.24Z"/>
      <path class="cls-2" d="M92.46,221.51c-10.91-16.69-17.14-36.18-17.9-56.11-.73-19.34,3.7-38.84,13.08-55.79,9.67-17.47,24.56-31.74,42.5-40.55,10.22-5.01,21.35-8.48,32.4-11.12,9.67-2.3,19.59-3.73,29.54-3.9,16.13-.28,32.4,2.92,46.65,10.64,12.09,6.55,22.38,16.13,29.94,27.6,7.05,10.68,11.81,22.85,14.05,35.44,2.05,11.55,2.06,23.66-.89,35.06-3.68,14.21-12.79,25.94-24.12,35.08-17.96,14.47-41.07,20.19-63.82,17.56-13.38-1.54-26.32-5.85-38.38-11.75-9.15-4.48-17.89-9.9-25.68-16.48-12.67-10.71-22.53-24.63-26.88-40.75-3.99-14.77-3.17-30.42,1.21-45,4.69-15.57,13.21-29.89,23.92-42.07,11.48-13.06,25.56-23.84,41.14-31.56,16.35-8.1,34.34-12.73,52.59-13.23s35.15,3.4,51.65,9.71c15.65,5.99,30.44,13.92,45.55,21.11,15.16,7.21,30.81,13.66,47.39,16.7,18.95,3.48,38.3,2.21,56.86-2.82,11.31-3.06,22.23-7.41,32.76-12.51.54-.26.91-.53.41-.92-.47-.36-1.96.22-2.39.43-20.36,9.86-42.46,16.73-65.27,16.41-17.67-.25-34.77-4.84-51.03-11.52-15.88-6.53-30.96-14.81-46.57-21.93s-32.04-13.03-49.25-15.19c-18.81-2.36-38.03-.16-56.04,5.66-17.05,5.52-32.98,14.43-46.68,25.97-12.98,10.94-24.05,24.38-31.7,39.57-7.02,13.94-11.12,29.52-10.53,45.2s6.37,31.3,16.16,43.94c12.5,16.13,30.54,27.5,49.32,34.96,23.19,9.22,49.13,11.13,72.82,2.59,10.05-3.62,19.44-9.05,27.55-16.01,6.64-5.7,12.8-12.54,17.07-20.23,5.45-9.82,7.61-21.29,7.67-32.43.08-12.68-2.58-25.38-7.52-37.05-5.25-12.39-13.18-23.69-23.36-32.52-11.33-9.83-25.24-16.28-39.93-19.16-18.88-3.7-38.45-1.79-56.97,2.9-21.19,5.37-41.61,13.85-57.52,29.22-14.13,13.65-23.9,31.43-28.35,50.53s-3.66,39.62,2.35,58.44c3.02,9.47,7.34,18.48,12.77,26.79.56.86,3.72-.46,3.42-.92h0Z"/>
      <path class="cls-1" d="M442.72,61.85c-3.69-3.91-4.16-4.36.39-21.62,1.38-5.24,2.62-7.44,7.08-10.81,8.34-6.3,15.59,6.52,22.14,11.53,2.62,2.01,12.12,6.2-1.17,14.44-13.29,8.23-24.74,10.37-28.44,6.46Z"/>
      <path class="cls-4" d="M90.03,215.27s9.61-2,16.15,9.75c6.54,11.75-4.45,20.97-14.88,21.21-12.07.29-16.24-7.76-16.5-14-.26-6.24,3.2-14.82,15.22-16.95Z"/>
    </g>
  </g>
</svg>