<?xml version="1.0" encoding="UTF-8"?>
<svg id="Layer_2" data-name="Layer 2" xmlns="http://www.w3.org/2000/svg" viewBox="0 0 167.16 157.88">
  <defs>
    <style>
      .cls-1 {
        fill: #c65871;
        stroke-width: 0px;
      }

           .cls-2 {
        fill: #cccabc;
        opacity: .72;
        stroke-width: 0px;
           }

                 .cls-3 {
        fill: #54bcca;
        stroke-width: 0px;
      }

      .cls-4 {
        fill: #e4a5ad;
        stroke-width: 0px;
      }

      .cls-5 {
        fill: #4ba392;
        stroke-width: 0px;
      }

         .cls-6 {
        fill: #62d9f9;
        stroke-width: 0px;
      }

       .cls-7 {
        fill: #ff8200;
        stroke-width: 0px;
      }
    </style>
  </defs>
  <g id="Layer_1-2" data-name="Layer 1">
    <path class="cls-1" d="M76.34.66s48.17-10.17,80.95,49.48c32.78,59.64-22.29,106.45-74.55,107.7C22.24,159.29,1.37,118.42.07,86.73-1.23,55.05,16.12,11.5,76.34.66Z"/>
  </g>

  <g id="Layer_1-2" data-name="Layer 1">
    <path class="cls-2" d="M.01,50.61c-.6,16.56,21.06,37.58,34.88,51.12,11.84,11.59,24.83,21.4,38.5,30.77,23.38,16.03,51.81,31.94,78.61,22.72,23.76-8.18,37.59-35.48,34.88-60.47-2.71-24.98-19.24-46.92-39.85-61.3-20.61-14.38-45.05-22.17-69.4-28.37C60.8.8,37.27-6.09,20.28,10.84,9.27,21.81.6,34.12.01,50.61Z"/>
  </g>

  <g id="Layer_1-2" data-name="Layer 1">
    <path class="cls-3" d="M138.14,92.31c.31,18.53-6.39,30.18-17.53,39.42-17.74,14.72-34.39,23.12-53.53,31.41-1.6.62-5.84,2.52-9.57,3.51-6.24,2.25-12.13,1.11-15.55-4-3.7-5.53-7.37-12.78-9.65-18.96-7.74-21.03-15.04-40.74-22.22-61.97-2.69-7.95-4.81-16.1-7.09-24.19-.99-3.51-1.87-7.07-2.5-10.66-1.54-8.72-.01-12.7,11.05-17.51C26.33,21.51,75.43,1.11,88.46.1c8.68-.67,15.89,1.81,20.94,8.94,13.51,19.05,28.46,67.18,28.74,83.27Z"/>
  </g>

  <g id="Layer_1-2" data-name="Layer 1">
    <path class="cls-4" d="M172.3,1.18c-12.76,3.05-23.46,9.85-33.99,16.58-34.83,22.25-69.65,44.51-104.48,66.76-12.08,7.72-24.53,15.86-30.62,29.13-6.09,13.27-3.82,33.25,9.63,45.99,10.21,9.67,24.34,12.84,35.87,11.14,11.53-1.7,21.04-7.52,30.31-13.25,38.87-24.03,77.73-48.07,116.6-72.1,14.5-8.97,45.02-27.61,39.95-51.29C229.39,5.4,191.9-3.5,172.3,1.18Z"/>
  </g>

  <g id="Layer_1-2" data-name="Layer 1">
    <path class="cls-5" d="M.15,80.93c.94,25.26,10.2,51.35,29.96,67.11,14.88,11.86,34.36,16.83,53.39,17,19.03.16,37.8-4.14,56.15-9.16,9.91-2.71,20.9-6.58,25.22-15.9,4.53-9.79-.7-21.88-9.18-28.54-8.48-6.66-19.41-9.16-29.97-11.38-10.55-2.22-21.49-4.5-30.21-10.85-9.41-6.85-15.12-17.67-19.08-28.61-3.96-10.94-6.53-22.4-11.34-32.99-4.81-10.59-12.38-20.58-23.13-25.03C.93-14.41-.72,57.43.15,80.93Z"/>
  </g>

  <g id="Layer_1-2" data-name="Layer 1">
    <path class="cls-6" d="M117.63,89.96c12.38-21,20.06-45.65,25.32-69.97,1.38-6.36,1.07-14.8-5.07-18.56-3.99-2.44-8.77-1.28-12.8.1-22.81,7.82-43.54,20.12-60.76,36.03-19.57,18.08-34.31,40.55-46.16,64.46-6,12.11-22.24,53.08-17.21,67.04,5.03,13.96,81.87-20.04,116.68-79.09Z"/>
  </g>

  <g id="Layer_1-2" data-name="Layer 1">
    <path class="cls-7" d="M96.87,2.76c14.15,2.19,28.32,4.37,41.79,9.5,3.72,1.42,7.32,3.22,10.85,5.09,3.59,1.9,5.27,4.96,4.26,9.05-1.04,4.24-2.04,8.51-3.44,12.63-2.21,6.48-33.95,70.52-59.81,84.85-17.73,10.38-39.06,21.09-69.31,7.75C7.27,123.36,2.57,111.05.53,97.3-1.77,81.76,4.06,20.93,5.71,12.54c1.07-5.44,4.58-8.32,9.63-9.28,5.79-1.11,11.66-2.06,17.53-2.43,21.38-1.34,42.74-1.29,64,1.93Z"/>
  </g>
</svg>