<?xml version="1.0" encoding="UTF-8"?>
<svg id="Layer_2" data-name="Layer 2" xmlns="http://www.w3.org/2000/svg" xmlns:xlink="http://www.w3.org/1999/xlink" viewBox="0 0 1037.66 467.48">
  <defs>
    <style>
      .cls-1 {
        fill: #ff8200;
      }

      .cls-1, .cls-2, .cls-3, .cls-4 {
        stroke-width: 0px;
      }

      .cls-3 {
        fill: none;
      }

      .cls-5 {
        clip-path: url(#clippath);
      }

      .cls-4 {
        fill: #cb4565;
      }
    </style>
    <clipPath id="clippath">
      <rect class="cls-3" width="1037.66" height="467.48"/>
    </clipPath>
  </defs>
  <g id="Layer_1-2" data-name="Layer 1">
    <g>
      <path class="cls-1" d="M242.71,54.95c14.57,53.57-32.64,62.86-50.14,48.6s-25.21-38.55-22.92-56.17c2.28-17.51,5.73-24.89,13.15-30.71,9.25-7.26,22.85-8.26,34.18-1.67,11.33,6.58,19.26,16.17,25.72,39.95Z"/>
      <path class="cls-4" d="M345.91,305.46c44.94,32.63,22.36,58.91,2.08,55.88-19.33-2.89-41.33-17.37-51.78-31.04-10.39-13.59-13.25-20.35-12.63-27.63.76-9.08,8.4-15.44,19.75-15.38,11.35.05,22.64,3.69,42.59,18.17Z"/>
      <g class="cls-5">
        <path class="cls-2" d="M439.45,467.47c-38.87,0-64.62-39.49-80.01-63.08l-1.43-2.19c-.6-.92-1.47-2.16-2.49-3.56l-1.9,1.4c-.7.51-1.65.52-2.36,0l-11.33-8.2c-11.42,4.78-24.52,6.99-38.99,5.39-17.34-1.93-34.73-11.98-50.29-29.07-11.67-12.82-18.14-24.89-18.41-25.4-.49-.92-.19-2.05.68-2.61.87-.57,2.03-.37,2.66.44.14.17,13.83,17.41,35.75,28.51,27.48,13.92,54.99,12.46,81.85-4.32-4.89-.59-12.36-2.03-20.99-5.51-13.87-5.59-33.45-17.75-48.03-43.95-.27-.48-.33-1.06-.16-1.58l3.52-11.03c.22-.69.8-1.21,1.52-1.35.71-.14,1.45.12,1.92.68.44.53,44.77,52.88,81.74,45.92.68-.12,1.38.1,1.84.61.47.51.64,1.22.45,1.89-.14.49-3.47,11.88-21.53,27.07l.83,1.51c11.93-8.93,20.81-20.98,25.92-33.39,2.08-5.06,1.75-10.59-1-16.45-8.83-18.81-40.7-37.33-60.32-43.46-22.04-6.89-34.67,6.95-35.93,8.41l-9.08,15.13c-.42.69-1.21,1.07-2,.95-.8-.12-1.45-.7-1.65-1.49-24.04-94.64-90.56-183.08-91.23-183.96-.46-.61-.54-1.42-.2-2.1.34-.68,1.03-1.11,1.79-1.11,7.05,0,15.67-2.85,20.29-4.6-16.24-12.23-26.81-30.66-30.66-53.55-3.07-18.24-.86-32.66-.77-33.27.09-.55.4-1.04.87-1.35l13.74-9.16c.63-.42,1.45-.45,2.11-.07.66.38,1.04,1.1.99,1.86-3.01,45.11,13.46,75.24,31.11,85.08,8.12,4.53,16.01,4.58,22.2.16,11.38-8.13,11.54-24.71,9.68-37.19-2.25-15.05-8.93-33.25-17.88-48.71-15.26-26.35-40.7-14.2-42.99-13.04l-41.08,30.43c-.06.05-.13.09-.2.13-.18.11-19.97,13.08-9.7,84.98,10.5,73.52,88.99,203.98,89.78,205.29.37.62.39,1.39.03,2.02-.35.63-1.02,1.02-1.74,1.02H2.11c-1,0-1.92-.68-2.08-1.67-.2-1.25.76-2.33,1.97-2.33h220.84c-11.91-20.17-78.8-135.75-88.51-203.76-10.45-73.13,9.56-87.69,11.54-88.94l41.14-30.47.25-.16c10.62-5.59,34.41-9.76,48.46,14.5,9.32,16.1,16.02,34.37,18.37,50.12,2.91,19.48-1,33.67-11.31,41.03-7.41,5.3-17.07,5.33-26.48.08-10.05-5.6-18.88-16.54-24.87-30.79-6.44-15.32-9.36-33.93-8.5-54.03l-9.66,6.44c-.88,7.2-5.55,58.13,32.84,84.18.6.41.93,1.11.87,1.83-.07.72-.52,1.35-1.18,1.65-.51.23-11.33,4.99-21.44,6.07,11.62,16.03,65.97,93.92,88.51,177.78l6.71-11.18c.05-.08.11-.16.17-.24.15-.18,14.89-17.74,40.3-9.8,19.55,6.11,53.01,24.82,62.75,45.57,3.24,6.91,3.61,13.53,1.08,19.67-5.43,13.19-14.91,25.99-27.67,35.41l5.22,9.54c.48.88.24,1.98-.57,2.57l-2.13,1.57c1.07,1.47,1.98,2.76,2.62,3.74l1.43,2.2c14.95,22.91,39.96,61.26,76.66,61.26,34.96,0,46.63-25.52,57.92-50.19,4.99-10.92,9.71-21.23,16.31-29.62,21.8-27.71,54.63-56.03,132.76-56.03h365.16c1.02,0,1.99.69,2.13,1.71.17,1.23-.78,2.29-1.98,2.29h-365.32c-76.43,0-108.41,27.55-129.62,54.5-6.31,8.02-10.93,18.12-15.82,28.81-11.82,25.83-24.03,52.53-61.56,52.53M344.11,389.95l8.3,6.01.73-.53c-1.83-2.45-3.83-5.06-5.54-7.29-1.14.63-2.3,1.24-3.48,1.82M247.2,357.84c11.22,14.26,30.13,32.76,54.17,35.43,12.76,1.42,24.42-.3,34.7-4.2l-2.77-2c-.59-.43-.9-1.14-.81-1.86.09-.72.56-1.34,1.23-1.61l10.31-4.2c.82-.34,1.78-.08,2.33.62.12.16.98,1.26,2.25,2.88.8-.5,1.6-1.01,2.38-1.53l-1.84-3.36c-.46-.84-.26-1.9.49-2.51,12.52-10.25,17.99-18.78,20.19-23.09-15.78,1.54-34.02-5.67-54.29-21.48-11.8-9.21-21.13-19.02-25.29-23.62l-2.18,6.84c26.76,47.26,70.66,47.07,71.11,47.06.86-.04,1.67.55,1.94,1.38.27.84-.04,1.75-.76,2.26-37.05,25.79-69.92,18.46-90.96,7.77-8.84-4.49-16.31-9.86-22.18-14.78M351.07,386.09c1.66,2.16,3.54,4.63,5.29,6.97l.73-.54-4.17-7.62c-.61.4-1.23.8-1.85,1.19M338.57,385.94l1.84,1.33c1.61-.73,3.18-1.51,4.71-2.35-.37-.48-.7-.9-.97-1.25l-5.57,2.27Z"/>
      </g>
    </g>
  </g>
</svg>