<?xml version="1.0" standalone="no"?>
<!DOCTYPE svg PUBLIC "-//W3C//DTD SVG 1.1//EN" "http://www.w3.org/Graphics/SVG/1.1/DTD/svg11.dtd" >
<svg xmlns="http://www.w3.org/2000/svg" xmlns:xlink="http://www.w3.org/1999/xlink" version="1.1">
<metadata>
Created by FontForge 20190801 at Fri Oct 21 17:40:20 2016
 By www-data
Copyright (c) 2016 by Alberto Romanos. All rights reserved.
</metadata>
<defs>
<font id="BwModelicaLight" horiz-adv-x="615" >
  <font-face 
    font-family="BwModelicaLight"
    font-weight="400"
    font-stretch="normal"
    units-per-em="1000"
    panose-1="0 0 5 0 0 0 0 0 0 0"
    ascent="780"
    descent="-220"
    x-height="525"
    cap-height="740"
    bbox="-852 -230 1235 1020"
    underline-thickness="50"
    underline-position="-100"
    unicode-range="U+000D-FB02"
  />
<missing-glyph horiz-adv-x="1274" 
d="M91 -10q-17 0 -17 18q0 10 5 15l342 341h-324q-23 0 -23 19q0 7 7 16l340 342h-327q-20 0 -20 19v1q0 19 20 19h370q23 0 23 -20q0 -10 -8 -17l-341 -340h330q8 0 14 -6t6 -14v-327l339 338q7 8 17 8q18 0 18 -22v-324l340 338q6 8 16 8q7 0 12 -5.5t5 -13.5q0 -9 -6 -14
l-368 -372q-7 -7 -17 -7q-20 0 -20 23v324l-339 -340q-7 -7 -17 -7q-20 0 -20 23v324l-340 -340q-7 -7 -17 -7z" />
    <glyph glyph-name="fi" unicode="fi" horiz-adv-x="588" 
d="M113 650q0 63 40.5 101.5t105.5 38.5q63 0 103 -20l-5 -40q-33 18 -88 18q-48 0 -78 -29t-30 -77v-117h194v-41h-194v-484h-48v484h-93v41h93v125zM475 748q16 0 26.5 -10.5t10.5 -25.5q0 -16 -10.5 -26.5t-26.5 -10.5q-15 0 -25.5 10.5t-10.5 26.5q0 15 10.5 25.5
t25.5 10.5zM452 0v525h48v-525h-48z" />
    <glyph glyph-name="fl" unicode="fl" horiz-adv-x="592" 
d="M113 650q0 63 40.5 101.5t105.5 38.5q63 0 103 -20l-5 -40q-33 18 -88 18q-48 0 -78 -29t-30 -77v-117h194v-41h-194v-484h-48v484h-93v41h93v125zM454 780h48v-780h-48v780z" />
    <glyph glyph-name=".notdef" horiz-adv-x="1274" 
d="M91 -10q-17 0 -17 18q0 10 5 15l342 341h-324q-23 0 -23 19q0 7 7 16l340 342h-327q-20 0 -20 19v1q0 19 20 19h370q23 0 23 -20q0 -10 -8 -17l-341 -340h330q8 0 14 -6t6 -14v-327l339 338q7 8 17 8q18 0 18 -22v-324l340 338q6 8 16 8q7 0 12 -5.5t5 -13.5q0 -9 -6 -14
l-368 -372q-7 -7 -17 -7q-20 0 -20 23v324l-339 -340q-7 -7 -17 -7q-20 0 -20 23v324l-340 -340q-7 -7 -17 -7z" />
    <glyph glyph-name=".null" horiz-adv-x="0" 
 />
    <glyph glyph-name="nonmarkingreturn" horiz-adv-x="333" 
 />
    <glyph glyph-name="CR" unicode="&#xd;" horiz-adv-x="233" 
 />
    <glyph glyph-name="space" unicode=" " horiz-adv-x="272" 
 />
    <glyph glyph-name="exclam" unicode="!" horiz-adv-x="248" 
d="M102 144l-4 596h52l-4 -596h-44zM124 -10q-16 0 -26 10.5t-10 25.5q0 16 10 26t26 10q15 0 25.5 -10t10.5 -26q0 -15 -10.5 -25.5t-25.5 -10.5z" />
    <glyph glyph-name="quotedbl" unicode="&#x22;" horiz-adv-x="312" 
d="M72 564l-1 216h44l-1 -216h-42zM198 564l-1 216h44l-1 -216h-42z" />
    <glyph glyph-name="numbersign" unicode="#" horiz-adv-x="664" 
d="M619 450h-123l-47 -204h123l-9 -36h-122l-49 -210h-39l49 210h-204l-49 -210h-40l49 210h-122l9 36h121l47 204h-122l9 36h121l50 214h40l-50 -214h204l50 214h39l-50 -214h123zM410 246l47 204h-204l-47 -204h204z" />
    <glyph glyph-name="dollar" unicode="$" horiz-adv-x="611" 
d="M558 186q0 -82 -63 -135t-168 -60v-81h-50v80q-143 7 -212 84l23 37q72 -73 189 -78v325l-32 10q-86 25 -135 67t-49 120q0 82 58.5 134t157.5 60v81h50v-80q125 -7 202 -85l-26 -37q-71 72 -176 78v-309h1q48 -14 81 -28t71 -38.5t58 -61t20 -83.5zM273 414l4 -1v293
q-74 -7 -118 -46t-44 -98q0 -62 41.5 -94t116.5 -54zM327 34q81 8 128.5 47.5t47.5 100.5q0 59 -44.5 96t-131.5 65v-309z" />
    <glyph glyph-name="percent" unicode="%" horiz-adv-x="735" 
d="M196 423q-71 0 -114.5 45t-43.5 119t43.5 118.5t114.5 44.5t114 -44.5t43 -118.5t-43 -119t-114 -45zM167 -10l-31 20l434 740l31 -20zM196 458q51 0 82 35.5t31 93.5t-31 93t-82 35q-52 0 -83 -35t-31 -93q0 -59 31 -94t83 -35zM539 -10q-71 0 -114.5 44.5t-43.5 118.5
t43.5 119t114.5 45t114 -45t43 -119t-43 -118.5t-114 -44.5zM539 25q51 0 82 35t31 93t-31 93.5t-82 35.5q-52 0 -83 -35t-31 -94q0 -58 31 -93t83 -35z" />
    <glyph glyph-name="ampersand" unicode="&#x26;" horiz-adv-x="780" 
d="M619 32q57 0 110 19v-40q-46 -21 -124 -21q-48 0 -82.5 25t-46.5 68q-58 -93 -198 -93q-99 0 -160.5 57t-61.5 150q0 75 44 128t120 73q-59 20 -92.5 65t-33.5 106q0 82 58.5 131.5t154.5 49.5q95 0 153 -50t58 -132v-151h203v-40h-203v-241q0 -46 28 -75t73 -29z
M145 563q0 -66 44.5 -106t117.5 -40h163v145q0 66 -44.5 106t-118.5 40q-73 0 -117.5 -40t-44.5 -105zM290 32q74 0 127 37.5t53 105.5v202h-163q-90 0 -145 -47.5t-55 -125.5q0 -77 50.5 -124.5t132.5 -47.5z" />
    <glyph glyph-name="quotesingle" unicode="'" horiz-adv-x="186" 
d="M72 564l-1 216h44l-1 -216h-42z" />
    <glyph glyph-name="parenleft" unicode="(" horiz-adv-x="275" 
d="M203 -180q-148 230 -148 480t148 480h44q-26 -46 -40.5 -74.5t-42.5 -96t-42.5 -146t-14.5 -163.5t14.5 -163.5t42.5 -146t42.5 -96t40.5 -74.5h-44z" />
    <glyph glyph-name="parenright" unicode=")" horiz-adv-x="275" 
d="M28 -180q26 46 40.5 74.5t42.5 96t42.5 146t14.5 163.5t-14.5 163.5t-42.5 146t-42.5 96t-40.5 74.5h44q148 -230 148 -480t-148 -480h-44z" />
    <glyph glyph-name="asterisk" unicode="*" horiz-adv-x="390" 
d="M329 628l-107 -32l68 -89l-32 -22l-63 91l-64 -91l-31 22l68 89l-107 32l11 37l106 -37l-3 112h39l-2 -112l105 37z" />
    <glyph glyph-name="plus" unicode="+" horiz-adv-x="520" 
d="M467 366v-41h-183v-180h-48v180h-183v41h183v181h48v-181h183z" />
    <glyph glyph-name="comma" unicode="," horiz-adv-x="209" 
d="M14 -145l69 208h59l-78 -208h-50z" />
    <glyph glyph-name="hyphen" unicode="-" horiz-adv-x="419" 
d="M74 268v37h271v-37h-271z" />
    <glyph glyph-name="period" unicode="." horiz-adv-x="210" 
d="M105 -10q-17 0 -29 12t-12 29t12 29t29 12t29 -12t12 -29t-12 -29t-29 -12z" />
    <glyph glyph-name="slash" unicode="/" horiz-adv-x="379" 
d="M45 -100l239 880h49l-239 -880h-49z" />
    <glyph glyph-name="zero" unicode="0" horiz-adv-x="614" 
d="M307 -10q-114 0 -184 104.5t-70 275.5t70 275.5t184 104.5q115 0 184.5 -104.5t69.5 -275.5t-69.5 -275.5t-184.5 -104.5zM307 33q91 0 145.5 92.5t54.5 244.5t-54.5 244.5t-145.5 92.5t-145.5 -92.5t-54.5 -244.5t54.5 -244.5t145.5 -92.5z" />
    <glyph glyph-name="one" unicode="1" horiz-adv-x="400" 
d="M243 0v671l-200 -146l-28 38l240 177h39v-740h-51z" />
    <glyph glyph-name="two" unicode="2" horiz-adv-x="553" 
d="M48 0v34l222 239q4 4 25.5 27t29 31.5t27 31t28 35.5t22 35.5t20 39.5t11.5 39t5 43q0 70 -45 111t-119 41q-76 0 -121.5 -44t-45.5 -116l-53 4q0 89 60.5 144t158.5 55t157.5 -51.5t59.5 -138.5q0 -37 -13 -75t-26.5 -64.5t-46 -67t-47 -56t-54.5 -57.5l-185 -197h383
v-43h-453z" />
    <glyph glyph-name="three" unicode="3" horiz-adv-x="557" 
d="M270 418q106 0 171 -57.5t65 -151.5q0 -99 -68.5 -159t-182.5 -60q-147 0 -210 87l21 38q60 -82 183 -82q91 0 146.5 48t55.5 128q0 76 -54.5 122t-143.5 46q-68 0 -120 -26l-13 27l294 319h-344v43h414v-33l-275 -294q32 5 61 5z" />
    <glyph glyph-name="four" unicode="4" horiz-adv-x="597" 
d="M398 0v167h-375v40l383 533h44v-530h115v-43h-115v-167h-52zM81 209h319v445z" />
    <glyph glyph-name="five" unicode="5" horiz-adv-x="561" 
d="M251 -10q-139 0 -210 70l16 40q67 -67 190 -67q94 0 151.5 50.5t57.5 132.5q0 80 -50.5 129t-133.5 49q-74 0 -149 -26l-36 5l51 367h339v-43h-293l-42 -279q69 20 139 20q103 0 166 -60.5t63 -158.5q0 -103 -71.5 -166t-187.5 -63z" />
    <glyph glyph-name="six" unicode="6" horiz-adv-x="552" 
d="M289 445q99 0 161.5 -62.5t62.5 -163.5q0 -103 -64 -166t-169 -63t-169 62.5t-64 164.5q0 88 49 157l244 366h59l-217 -318q46 23 107 23zM280 33q80 0 129.5 51t49.5 134q0 84 -49.5 135t-129.5 51t-129.5 -51t-49.5 -135q0 -83 49.5 -134t129.5 -51z" />
    <glyph glyph-name="seven" unicode="7" horiz-adv-x="497" 
d="M21 740h457l-270 -740h-56l258 697h-389v43z" />
    <glyph glyph-name="eight" unicode="8" horiz-adv-x="587" 
d="M382 384q68 -20 106.5 -70t38.5 -120q0 -91 -64.5 -147.5t-168.5 -56.5q-105 0 -169.5 56t-64.5 147q0 70 39 120.5t107 70.5q-59 20 -92.5 65.5t-33.5 108.5q0 86 59 139t155 53q95 0 154 -52.5t59 -138.5q0 -62 -33.5 -108.5t-91.5 -66.5zM134 555q0 -67 44 -108.5
t115 -41.5q72 0 115.5 41t43.5 109t-43.5 110t-115.5 42q-71 0 -115 -42t-44 -110zM293 33q81 0 130 45t49 119t-49 119t-130 45q-80 0 -129.5 -45t-49.5 -119t49.5 -119t129.5 -45z" />
    <glyph glyph-name="nine" unicode="9" horiz-adv-x="552" 
d="M272 750q105 0 169 -62.5t64 -164.5q0 -88 -49 -157l-244 -366h-59l217 318q-46 -23 -107 -23q-99 0 -161.5 62.5t-62.5 163.5q0 103 64 166t169 63zM93 522q0 -84 49.5 -135t129.5 -51t129.5 51t49.5 135q0 83 -49.5 134t-129.5 51t-129.5 -51t-49.5 -134z" />
    <glyph glyph-name="colon" unicode=":" horiz-adv-x="229" 
d="M115 452q-17 0 -29 12.5t-12 29.5t12 29t29 12t29 -12.5t12 -28.5q0 -17 -12 -29.5t-29 -12.5zM115 -10q-17 0 -29 12t-12 29t12 29t29 12t29 -12t12 -29t-12 -29t-29 -12z" />
    <glyph glyph-name="semicolon" unicode=";" horiz-adv-x="282" 
d="M145 452q-17 0 -29 12.5t-12 29.5q0 16 12 28.5t29 12.5t29 -12.5t12 -28.5q0 -17 -12 -29.5t-29 -12.5zM61 -145l69 208h59l-78 -208h-50z" />
    <glyph glyph-name="less" unicode="&#x3c;" horiz-adv-x="509" 
d="M436 572v-47l-338 -175l338 -175v-47l-398 208v28z" />
    <glyph glyph-name="equal" unicode="=" horiz-adv-x="569" 
d="M77 443v41h415v-41h-415zM77 208v40h415v-40h-415z" />
    <glyph glyph-name="greater" unicode="&#x3e;" horiz-adv-x="509" 
d="M73 572l398 -208v-28l-398 -208v47l338 175l-338 175v47z" />
    <glyph glyph-name="question" unicode="?" horiz-adv-x="509" 
d="M222 144q0 53 8 97t18 71t29 52.5t32 38t35 30.5q24 20 37 33t24 38t11 56q0 66 -45.5 106.5t-120.5 40.5q-72 0 -117.5 -40.5t-48.5 -106.5l-49 2q3 85 62 136.5t153 51.5q99 0 159.5 -51t60.5 -135q0 -30 -6.5 -54t-21 -43.5t-26 -31t-33.5 -30.5q-29 -25 -43.5 -40
t-35 -46.5t-30 -74.5t-9.5 -100h-43zM244 -10q-16 0 -26.5 10.5t-10.5 25.5q0 16 10.5 26t26.5 10q15 0 25.5 -10t10.5 -26q0 -15 -10.5 -25.5t-25.5 -10.5z" />
    <glyph glyph-name="at" unicode="@" horiz-adv-x="1048" 
d="M673 470h46v-281q0 -48 23.5 -76t63.5 -28q59 0 96 63.5t37 165.5q0 178 -113 287.5t-294 109.5q-194 0 -310.5 -124.5t-116.5 -329.5q0 -202 115.5 -323.5t311.5 -121.5q146 0 269 38l17 -37q-132 -43 -285 -43q-220 0 -349 133.5t-129 354.5q0 223 130 358.5t347 135.5
q203 0 329.5 -119.5t126.5 -314.5q0 -123 -50 -199t-132 -76q-50 0 -84 30t-43 81q-48 -113 -178 -113q-93 0 -149 60t-56 158q0 99 56 159t148 60q124 0 171 -106zM509 82q73 0 117.5 49t44.5 128q0 80 -44.5 128.5t-117.5 48.5t-118 -48.5t-45 -128.5t45 -128.5t118 -48.5
z" />
    <glyph glyph-name="A" unicode="A" horiz-adv-x="715" 
d="M655 0l-92 211h-410l-93 -211h-55l328 740h49l328 -740h-55zM171 254h373l-186 425z" />
    <glyph glyph-name="B" unicode="B" horiz-adv-x="674" 
d="M456 386q75 -15 119 -64t44 -120q0 -91 -63.5 -146.5t-167.5 -55.5h-282v740h259q100 0 161 -51t61 -134q0 -62 -34.5 -105.5t-96.5 -63.5zM158 697v-295h198q79 0 128 40.5t49 106.5q0 67 -50 107.5t-132 40.5h-193zM380 43q83 0 134 43.5t51 114.5q0 70 -50.5 113.5
t-133.5 43.5h-223v-315h222z" />
    <glyph glyph-name="C" unicode="C" horiz-adv-x="754" 
d="M422 -10q-164 0 -265 104.5t-101 276.5q0 170 101 274.5t266 104.5q163 0 274 -121l-32 -33q-99 111 -239 111q-142 0 -229 -92t-87 -243q0 -152 86 -245.5t226 -93.5q82 0 149 36t111 97l35 -33q-50 -67 -126 -105t-169 -38z" />
    <glyph glyph-name="D" unicode="D" horiz-adv-x="755" 
d="M342 740q161 0 259 -102.5t98 -269.5q0 -166 -98 -267t-259 -101h-236v740h236zM334 43q140 0 225.5 89.5t85.5 235.5q0 148 -85.5 238.5t-225.5 90.5h-176v-654h176z" />
    <glyph glyph-name="E" unicode="E" 
d="M158 43h396v-43h-448v740h439v-43h-387v-297h364v-44h-364v-313z" />
    <glyph glyph-name="F" unicode="F" horiz-adv-x="543" 
d="M506 697h-348v-317h314v-44h-314v-336h-52v740h400v-43z" />
    <glyph glyph-name="G" unicode="G" horiz-adv-x="791" 
d="M755 384v-14q0 -175 -92.5 -277.5t-250.5 -102.5q-160 0 -257.5 104.5t-97.5 275.5t97.5 275.5t257.5 104.5q142 0 242 -74l-34 -34q-83 65 -207 65q-136 0 -219 -93t-83 -244t83 -244t219 -93q128 0 205.5 83.5t82.5 223.5h-252v44h306z" />
    <glyph glyph-name="H" unicode="H" horiz-adv-x="796" 
d="M638 740h51v-740h-51v354h-480v-354h-52v740h52v-343h480v343z" />
    <glyph glyph-name="I" unicode="I" horiz-adv-x="264" 
d="M106 0v740h52v-740h-52z" />
    <glyph glyph-name="J" unicode="J" horiz-adv-x="401" 
d="M141 -10q-85 0 -130 51l14 35q43 -43 109 -43q53 0 84 32t31 84v591h52v-602q0 -67 -43 -107.5t-117 -40.5z" />
    <glyph glyph-name="K" unicode="K" horiz-adv-x="667" 
d="M593 0l-275 358h-160v-358h-52v740h52v-339h161l265 339h64l-284 -361l293 -379h-64z" />
    <glyph glyph-name="L" unicode="L" horiz-adv-x="530" 
d="M158 43h358v-43h-410v740h52v-697z" />
    <glyph glyph-name="M" unicode="M" horiz-adv-x="983" 
d="M897 0h-51l-35 647l-302 -647h-35l-302 647l-34 -647h-52l43 748h51l312 -669l312 669h51z" />
    <glyph glyph-name="N" unicode="N" horiz-adv-x="829" 
d="M106 0v740h34l532 -649v649h51v-740h-34l-532 649l1 -649h-52z" />
    <glyph glyph-name="O" unicode="O" horiz-adv-x="837" 
d="M419 -10q-163 0 -263 104.5t-100 275.5t100 275.5t263 104.5t262.5 -104.5t99.5 -275.5t-99.5 -275.5t-262.5 -104.5zM419 33q139 0 223.5 92.5t84.5 244.5t-84.5 244.5t-223.5 92.5t-224 -93t-85 -244t85 -244t224 -93z" />
    <glyph glyph-name="P" unicode="P" horiz-adv-x="635" 
d="M364 740q106 0 170.5 -60.5t64.5 -159.5q0 -101 -64 -162.5t-170 -61.5h-207v-296h-52v740h258zM355 339q86 0 138 49.5t52 129.5t-52.5 129.5t-137.5 49.5h-197v-358h197z" />
    <glyph glyph-name="Q" unicode="Q" horiz-adv-x="838" 
d="M797 0h-64l-75 72q-96 -82 -239 -82q-163 0 -263 104.5t-100 275.5t100 275.5t263 104.5t262.5 -104.5t99.5 -275.5q0 -164 -92 -267zM419 33q122 0 204 73l-144 139h62l112 -107q74 91 74 232q0 152 -84.5 244.5t-223.5 92.5t-224 -93t-85 -244t85 -244t224 -93z" />
    <glyph glyph-name="R" unicode="R" horiz-adv-x="686" 
d="M658 0h-61l-208 314q-8 -1 -24 -1h-207v-313h-52v740h259q110 0 177 -58.5t67 -155.5q0 -77 -44.5 -131t-122.5 -73zM361 356q87 0 140.5 47t53.5 123q0 77 -54 124t-143 47h-200v-341h203z" />
    <glyph glyph-name="S" unicode="S" horiz-adv-x="611" 
d="M298 -10q-158 0 -233 84l23 37q77 -78 205 -78q95 0 152.5 40.5t57.5 108.5q0 64 -52 102t-154 68l-52 16q-86 25 -135 67t-49 120q0 88 67 141.5t178 53.5q140 0 223 -85l-26 -37q-77 79 -199 79q-85 0 -137 -40t-52 -105q0 -62 41.5 -94t116.5 -54l55 -17
q48 -14 81 -28t71 -38.5t58 -61t20 -83.5q0 -88 -72 -142t-188 -54z" />
    <glyph glyph-name="T" unicode="T" horiz-adv-x="564" 
d="M551 740v-43h-244v-697h-51v697h-243v43h538z" />
    <glyph glyph-name="U" unicode="U" horiz-adv-x="786" 
d="M393 -10q-133 0 -214.5 73.5t-81.5 194.5v482h51v-480q0 -102 67.5 -164.5t177.5 -62.5t177.5 62.5t67.5 164.5v480h52v-482q0 -121 -81.5 -194.5t-215.5 -73.5z" />
    <glyph glyph-name="V" unicode="V" horiz-adv-x="716" 
d="M334 0l-328 740h55l298 -680l296 680h56l-328 -740h-49z" />
    <glyph glyph-name="W" unicode="W" horiz-adv-x="1092" 
d="M1025 740h55l-268 -740h-49l-217 664l-217 -664h-50l-268 740h56l239 -671l215 671h50l216 -671z" />
    <glyph glyph-name="X" unicode="X" horiz-adv-x="625" 
d="M618 0h-60l-245 343l-246 -343h-59l274 381l-250 359h60l221 -319l221 319h59l-250 -359z" />
    <glyph glyph-name="Y" unicode="Y" horiz-adv-x="643" 
d="M567 740h58l-278 -430v-310h-51v310l-278 430h58l246 -383z" />
    <glyph glyph-name="Z" unicode="Z" horiz-adv-x="613" 
d="M103 43h477v-43h-546v34l467 663h-461v43h530v-34z" />
    <glyph glyph-name="bracketleft" unicode="[" horiz-adv-x="342" 
d="M100 -180v960h216v-42h-167v-876h167v-42h-216z" />
    <glyph glyph-name="backslash" unicode="\" horiz-adv-x="379" 
d="M284 -100l-239 880h49l239 -880h-49z" />
    <glyph glyph-name="bracketright" unicode="]" horiz-adv-x="342" 
d="M242 -180h-216v42h167v876h-167v42h216v-960z" />
    <glyph glyph-name="asciicircum" unicode="^" horiz-adv-x="457" 
d="M402 329h-50l-123 245l-124 -245h-50l148 296h51z" />
    <glyph glyph-name="underscore" unicode="_" horiz-adv-x="501" 
d="M25 -37v37h451v-37h-451z" />
    <glyph glyph-name="grave" unicode="`" horiz-adv-x="600" 
d="M149 620l-146 145h63l128 -145h-45z" />
    <glyph glyph-name="a" unicode="a" horiz-adv-x="546" 
d="M259 535q94 0 150.5 -56t56.5 -148v-331h-47l-1 116v11q-27 -64 -83.5 -100.5t-125.5 -36.5q-76 0 -122.5 41t-46.5 108q0 71 58 114t153 43q87 0 167 -21v47q0 79 -46 126t-122 47q-94 0 -153 -65l-23 31q69 74 185 74zM222 27q75 0 135.5 58t60.5 154q-76 21 -161 21
q-75 0 -120.5 -33t-45.5 -87q0 -51 35.5 -82t95.5 -31z" />
    <glyph glyph-name="b" unicode="b" horiz-adv-x="660" 
d="M357 535q112 0 182 -75.5t70 -198.5q0 -121 -70 -196t-182 -75q-84 0 -140 37.5t-83 103.5v-7l-1 -124h-47v780h48v-387q57 142 223 142zM346 32q96 0 154.5 63t58.5 166q0 104 -58.5 168t-154.5 64q-95 0 -153.5 -63.5t-58.5 -167.5q0 -103 58.5 -166.5t153.5 -63.5z
" />
    <glyph glyph-name="c" unicode="c" horiz-adv-x="531" 
d="M311 -10q-117 0 -188.5 75t-71.5 198q0 122 72.5 197t191.5 75q96 0 167 -56l-29 -34q-60 48 -139 48q-95 0 -153.5 -63.5t-58.5 -167.5t58.5 -167t155.5 -63q93 0 153 60l28 -33q-69 -69 -186 -69z" />
    <glyph glyph-name="d" unicode="d" horiz-adv-x="660" 
d="M526 780h48v-780h-47l-1 124v7q-27 -66 -83 -103.5t-140 -37.5q-112 0 -182 75t-70 196q0 123 70 198.5t182 75.5q166 0 223 -142v387zM314 32q95 0 153.5 63.5t58.5 166.5q0 104 -58.5 167.5t-153.5 63.5q-96 0 -154 -64t-58 -168t58 -166.5t154 -62.5z" />
    <glyph glyph-name="e" unicode="e" horiz-adv-x="583" 
d="M537 269v-25h-433q5 -98 56 -156.5t136 -58.5q112 0 187 100l36 -23q-81 -116 -222 -116q-110 0 -177.5 75.5t-67.5 198.5q0 122 66.5 196.5t176.5 74.5q109 0 175.5 -73.5t66.5 -192.5zM295 495q-85 0 -136.5 -58t-55.5 -157h384q-4 98 -55.5 156.5t-136.5 58.5z" />
    <glyph glyph-name="f" unicode="f" horiz-adv-x="364" 
d="M269 748q-48 0 -78 -29t-30 -77v-117h194v-41h-194v-484h-48v484h-93v41h93v125q0 63 40.5 101.5t105.5 38.5q63 0 103 -20l-5 -40q-33 18 -88 18z" />
    <glyph glyph-name="g" unicode="g" horiz-adv-x="660" 
d="M528 525h47v-492q0 -118 -77 -190.5t-203 -72.5q-141 0 -229 70l11 39q92 -67 217 -67q105 0 169 62t64 164v94q-57 -142 -223 -142q-112 0 -182 75.5t-70 198.5q0 121 70 196t182 75q166 0 223 -142v8zM315 32q95 0 153.5 63.5t58.5 166.5q0 104 -58.5 167.5
t-153.5 63.5q-96 0 -154 -63t-58 -167t58 -167.5t154 -63.5z" />
    <glyph glyph-name="h" unicode="h" horiz-adv-x="629" 
d="M332 535q98 0 158 -56t60 -148v-331h-48v320q0 78 -50.5 125.5t-133.5 47.5t-133.5 -47.5t-50.5 -125.5v-320h-48v780h48v-356q51 111 198 111z" />
    <glyph glyph-name="i" unicode="i" horiz-adv-x="224" 
d="M111 675q-15 0 -25.5 10.5t-10.5 26.5q0 15 10.5 25.5t25.5 10.5q16 0 26.5 -10.5t10.5 -25.5q0 -16 -10.5 -26.5t-26.5 -10.5zM88 0v525h48v-525h-48z" />
    <glyph glyph-name="j" unicode="j" horiz-adv-x="232" 
d="M118 675q-15 0 -25.5 10.5t-10.5 26.5q0 15 10.5 25.5t25.5 10.5q16 0 26 -10.5t10 -25.5q0 -16 -10 -26.5t-26 -10.5zM3 -230q-51 0 -85 15l5 40q29 -13 70 -13q46 0 74 32t28 84v597h48v-607q0 -67 -38.5 -107.5t-101.5 -40.5z" />
    <glyph glyph-name="k" unicode="k" horiz-adv-x="556" 
d="M488 0l-223 255h-131v-255h-48v780h48v-484h131l211 229h62l-233 -250l245 -275h-62z" />
    <glyph glyph-name="l" unicode="l" horiz-adv-x="228" 
d="M90 0v780h48v-780h-48z" />
    <glyph glyph-name="m" unicode="m" horiz-adv-x="969" 
d="M684 535q92 0 148.5 -56t56.5 -148v-331h-48v320q0 78 -45 125.5t-119 47.5t-119.5 -47.5t-45.5 -125.5v-320h-48v320q0 78 -45.5 125.5t-119.5 47.5t-119.5 -47.5t-45.5 -125.5v-320h-48v525h47l1 -97q47 107 179 107q66 0 114.5 -32.5t70.5 -88.5q22 56 69 88.5
t117 32.5z" />
    <glyph glyph-name="n" unicode="n" horiz-adv-x="629" 
d="M332 535q98 0 158 -56t60 -148v-331h-48v320q0 78 -50.5 125.5t-133.5 47.5t-133.5 -47.5t-50.5 -125.5v-320h-48v525h47l1 -102q50 112 198 112z" />
    <glyph glyph-name="o" unicode="o" horiz-adv-x="627" 
d="M314 -10q-118 0 -190.5 75t-72.5 197q0 123 72.5 198t190.5 75t190 -75t72 -198q0 -122 -72 -197t-190 -75zM314 32q95 0 153.5 63.5t58.5 166.5q0 104 -58.5 167.5t-153.5 63.5q-96 0 -154 -63.5t-58 -167.5t58 -167t154 -63z" />
    <glyph glyph-name="p" unicode="p" horiz-adv-x="660" 
d="M357 535q112 0 182 -75t70 -196q0 -123 -70 -198.5t-182 -75.5q-166 0 -223 142v-352h-48v745h47l1 -124v-8q57 142 223 142zM346 32q96 0 154.5 63.5t58.5 167.5t-58.5 167t-154.5 63q-95 0 -153.5 -63.5t-58.5 -167.5q0 -103 58.5 -166.5t153.5 -63.5z" />
    <glyph glyph-name="q" unicode="q" horiz-adv-x="660" 
d="M527 525h47v-745h-48v352q-57 -142 -223 -142q-112 0 -182 75.5t-70 198.5q0 121 70 196t182 75q166 0 223 -142v8zM314 32q95 0 153.5 63.5t58.5 166.5q0 104 -58.5 167.5t-153.5 63.5q-96 0 -154 -63t-58 -167t58 -167.5t154 -63.5z" />
    <glyph glyph-name="r" unicode="r" horiz-adv-x="356" 
d="M134 424q50 111 214 111l-4 -44q-100 0 -155 -47.5t-55 -130.5v-313h-48v525h47z" />
    <glyph glyph-name="s" unicode="s" horiz-adv-x="468" 
d="M228 -10q-117 0 -173 53l22 31q57 -45 151 -45q63 0 101.5 28.5t38.5 75.5q0 74 -118 107l-61 18q-67 19 -101.5 49t-34.5 84q0 64 48.5 104t127.5 40q99 0 172 -45l-22 -35q-61 40 -146 40q-58 0 -94 -26.5t-36 -71.5q0 -39 27 -61.5t78 -36.5l62 -18q148 -43 148 -145
q0 -66 -51.5 -106t-138.5 -40z" />
    <glyph glyph-name="t" unicode="t" horiz-adv-x="377" 
d="M259 32q57 0 110 19v-40q-46 -21 -124 -21q-61 0 -98 37.5t-37 99.5v357h-94v41h94v154h48v-154h203v-41h-203v-348q0 -46 28 -75t73 -29z" />
    <glyph glyph-name="u" unicode="u" horiz-adv-x="618" 
d="M484 525h48v-525h-47l-1 100q-49 -110 -192 -110q-95 0 -153.5 56t-58.5 147v332h48v-320q0 -78 49 -125.5t129 -47.5t129 47.5t49 125.5v320z" />
    <glyph glyph-name="v" unicode="v" horiz-adv-x="555" 
d="M253 0l-239 525h54l210 -469l210 469h53l-239 -525h-49z" />
    <glyph glyph-name="w" unicode="w" horiz-adv-x="910" 
d="M840 525h54l-209 -525h-49l-181 468l-181 -468h-49l-209 525h54l182 -469l181 469h44l181 -469z" />
    <glyph glyph-name="x" unicode="x" horiz-adv-x="530" 
d="M514 0h-60l-189 237l-189 -237h-60l219 269l-207 256h59l178 -224l178 224h59l-207 -256z" />
    <glyph glyph-name="y" unicode="y" horiz-adv-x="555" 
d="M123 -230q-34 0 -58 11l6 40q18 -9 44 -9q32 0 50 18t37 58l54 117l-240 520h54l212 -467l207 467h54l-294 -643q-26 -58 -52.5 -85t-73.5 -27z" />
    <glyph glyph-name="z" unicode="z" horiz-adv-x="498" 
d="M37 0v33l347 451h-342v41h409v-33l-346 -451h360v-41h-428z" />
    <glyph glyph-name="braceleft" unicode="{" horiz-adv-x="380" 
d="M257 -190q-58 0 -93.5 38t-35.5 100v202q0 58 -24 93t-62 35h-9v44h9q38 0 62 35t24 93v202q0 62 35.5 100t93.5 38q49 0 96 -12v-42q-46 11 -86 11q-39 0 -63.5 -29.5t-24.5 -76.5v-196q0 -55 -20.5 -95t-54.5 -50q34 -10 54.5 -50t20.5 -95v-196q0 -47 24.5 -76.5
t63.5 -29.5q40 0 86 11v-42q-46 -12 -96 -12z" />
    <glyph glyph-name="bar" unicode="|" horiz-adv-x="253" 
d="M101 -220v1000h51v-1000h-51z" />
    <glyph glyph-name="braceright" unicode="}" horiz-adv-x="380" 
d="M123 -190q-50 0 -95 12v42q44 -11 85 -11q40 0 64 29.5t24 76.5v196q0 55 20.5 95t54.5 50q-34 10 -54.5 50t-20.5 95v196q0 47 -24 76.5t-64 29.5q-41 0 -85 -11v42q45 12 95 12q58 0 93.5 -38t35.5 -100v-202q0 -58 24 -93t62 -35h9v-44h-9q-38 0 -62 -35t-24 -93v-202
q0 -62 -35.5 -100t-93.5 -38z" />
    <glyph glyph-name="asciitilde" unicode="~" horiz-adv-x="567" 
d="M376 238q-41 0 -97.5 38.5t-87.5 38.5q-33 0 -56 -18.5t-23 -48.5h-33q0 48 32 78t81 30q34 0 66.5 -19.5t62 -39t56.5 -19.5q34 0 57 18.5t23 49.5h33q0 -49 -32 -78.5t-82 -29.5z" />
    <glyph glyph-name="uni00A0" unicode="&#xa0;" horiz-adv-x="272" 
 />
    <glyph glyph-name="exclamdown" unicode="&#xa1;" horiz-adv-x="232" 
d="M116 462q-15 0 -25.5 10.5t-10.5 26.5q0 15 10.5 25.5t25.5 10.5q16 0 26 -10.5t10 -25.5q0 -16 -10 -26.5t-26 -10.5zM90 -220l4 601h44l4 -601h-52z" />
    <glyph glyph-name="cent" unicode="&#xa2;" horiz-adv-x="558" 
d="M497 109q-60 -60 -159 -68v-81h-46v81q-109 6 -175 80t-66 192q0 116 65.5 189.5t175.5 81.5v81h46v-81q83 -6 144 -55l-29 -34q-52 41 -115 47v-459q78 6 131 59zM102 312q0 -96 52 -158.5t138 -70.5v459q-87 -8 -138.5 -70t-51.5 -160z" />
    <glyph glyph-name="sterling" unicode="&#xa3;" horiz-adv-x="574" 
d="M168 42h343v-42h-456v42h62v281h-52v42h52v201q0 83 53.5 133.5t140.5 50.5q88 0 141.5 -51t53.5 -134l-51 -4q0 65 -40 105.5t-104 40.5t-103.5 -40.5t-39.5 -106.5v-195h307v-42h-307v-281z" />
    <glyph glyph-name="currency" unicode="&#xa4;" horiz-adv-x="597" 
d="M518 344q0 -78 -50 -139l54 -54l-30 -31l-54 55q-60 -49 -139 -49q-78 0 -139 48l-54 -54l-31 30l55 55q-51 59 -51 139q0 78 50 139l-54 54l31 30l54 -54q61 48 139 48q79 0 139 -49l54 55l30 -31l-54 -54q50 -60 50 -138zM299 164q73 0 124.5 53t51.5 127t-51.5 126.5
t-124.5 52.5t-125 -52.5t-52 -126.5t52 -127t125 -53z" />
    <glyph glyph-name="yen" unicode="&#xa5;" horiz-adv-x="668" 
d="M638 740l-263 -407h161v-36h-176v-64h176v-36h-176v-197h-51v197h-178v36h178v64h-178v36h163l-263 407h58l246 -383l245 383h58z" />
    <glyph glyph-name="brokenbar" unicode="&#xa6;" horiz-adv-x="249" 
d="M99 380v400h51v-400h-51zM99 -220v400h51v-400h-51z" />
    <glyph glyph-name="section" unicode="&#xa7;" horiz-adv-x="574" 
d="M463 94q54 -51 54 -128q0 -88 -65.5 -142t-172.5 -54q-143 0 -213 84l22 37q71 -78 187 -78q85 0 136.5 40.5t51.5 107.5q0 65 -46.5 102.5t-137.5 67.5l-48 16q-80 27 -124.5 68.5t-44.5 119.5q0 80 54 134q-54 46 -54 126q0 88 61.5 141.5t162.5 53.5q129 0 204 -85
l-25 -37q-70 79 -180 79q-76 0 -122.5 -40t-46.5 -105q0 -62 37 -93.5t106 -54.5l49 -17q35 -12 59 -22t54.5 -28t49.5 -39t32.5 -52.5t13.5 -69.5q0 -78 -54 -132zM259 191l49 -16q74 -25 117 -52q40 40 40 99q0 65 -47 103t-139 69l-48 15q-48 16 -77 33q-40 -42 -40 -100
q0 -62 37 -94t108 -57z" />
    <glyph glyph-name="dieresis" unicode="&#xa8;" horiz-adv-x="600" 
d="M109 675q-16 0 -26.5 10.5t-10.5 26.5q0 15 10.5 25.5t26.5 10.5q15 0 25.5 -10.5t10.5 -25.5q0 -16 -10.5 -26.5t-25.5 -10.5zM296 675q-15 0 -25.5 10.5t-10.5 26.5q0 15 10.5 25.5t25.5 10.5q16 0 26 -10.5t10 -25.5q0 -16 -10 -26.5t-26 -10.5z" />
    <glyph glyph-name="copyright" unicode="&#xa9;" horiz-adv-x="849" 
d="M425 -10q-166 0 -267 104.5t-101 275.5t101 275.5t267 104.5t266.5 -104.5t100.5 -275.5t-100.5 -275.5t-266.5 -104.5zM425 20q148 0 238.5 96t90.5 254t-90.5 254t-238.5 96q-149 0 -239.5 -96t-90.5 -254t90.5 -254t239.5 -96zM430 158q-92 0 -148.5 57.5t-56.5 151.5
t56.5 151.5t148.5 57.5q93 0 153 -67l-24 -25q-53 58 -127 58t-119.5 -47.5t-45.5 -126.5q0 -80 45 -128.5t119 -48.5q87 0 137 71l27 -25q-58 -79 -165 -79z" />
    <glyph glyph-name="ordfeminine" unicode="&#xaa;" horiz-adv-x="393" 
d="M191 750q57 0 91.5 -33.5t34.5 -89.5v-199h-36v74q-16 -38 -49 -59t-73 -21q-47 0 -75 25t-28 66q0 43 35 69t93 26q50 0 97 -12v25q0 45 -26.5 72t-71.5 27q-55 0 -90 -37l-17 23q44 44 115 44zM169 449q43 0 77.5 33t34.5 88q-46 11 -92 11q-43 0 -69 -18.5t-26 -49.5
q0 -29 20.5 -46.5t54.5 -17.5z" />
    <glyph glyph-name="guillemotleft" unicode="&#xab;" horiz-adv-x="541" 
d="M273 492l-171 -222l171 -222h-51l-175 222l175 222h51zM489 492l-171 -222l171 -222h-52l-174 222l174 222h52z" />
    <glyph glyph-name="logicalnot" unicode="&#xac;" horiz-adv-x="574" 
d="M496 417v-188h-48v147h-367v41h415z" />
    <glyph glyph-name="uni00AD" unicode="&#xad;" horiz-adv-x="419" 
d="M74 268v37h271v-37h-271z" />
    <glyph glyph-name="registered" unicode="&#xae;" horiz-adv-x="418" 
d="M209 790q68 0 109 -42t41 -111q0 -68 -41.5 -110t-108.5 -42t-108.5 42t-41.5 110q0 69 41 111t109 42zM209 500q59 0 95 38t36 99q0 62 -36.5 100t-94.5 38q-59 0 -94.5 -38t-35.5 -100t35.5 -99.5t94.5 -37.5zM270 668q0 -34 -34 -44l46 -69h-26l-42 65h-2h-38v-65h-23
v163h64q25 0 40 -14t15 -36zM174 701v-63h37q16 0 26 8.5t10 21.5q0 15 -9.5 24t-25.5 9h-38z" />
    <glyph glyph-name="macron" unicode="&#xaf;" horiz-adv-x="600" 
d="M71 655v40h293v-40h-293z" />
    <glyph glyph-name="degree" unicode="&#xb0;" horiz-adv-x="353" 
d="M176 557q-56 0 -89.5 32t-33.5 85q0 52 33.5 84t89.5 32t90 -31.5t34 -84.5t-34 -85t-90 -32zM176 587q39 0 62.5 24t23.5 63q0 38 -23.5 62t-62.5 24q-38 0 -61.5 -24t-23.5 -62q0 -39 23.5 -63t61.5 -24z" />
    <glyph glyph-name="plusminus" unicode="&#xb1;" horiz-adv-x="573" 
d="M310 428h176v-41h-176v-180h-47v180h-176v41h176v180h47v-180zM87 91v42h399v-42h-399z" />
    <glyph glyph-name="uni00B2" unicode="&#xb2;" horiz-adv-x="348" 
d="M34 396v26l134 143q2 2 14.5 15t17 18t15.5 18.5t16 21t13 20.5t11.5 23t6.5 22.5t3 24.5q0 39 -25 62t-67 23q-43 0 -69 -25t-26 -66l-39 3q0 55 36.5 88t96.5 33q59 0 95.5 -31.5t36.5 -83.5q0 -26 -8.5 -51t-28.5 -52t-33 -42.5t-41 -44.5l-107 -113l224 1v-33h-276z
" />
    <glyph glyph-name="uni00B3" unicode="&#xb3;" horiz-adv-x="347" 
d="M169 649q64 0 103 -34.5t39 -91.5q0 -60 -41.5 -96.5t-111.5 -36.5q-88 0 -128 51l16 29q35 -47 107 -47q53 0 85 27t32 73q0 43 -31.5 69.5t-82.5 26.5q-39 0 -69 -15l-12 20l168 183h-196v33h250v-24l-158 -169q10 2 30 2z" />
    <glyph glyph-name="acute" unicode="&#xb4;" horiz-adv-x="600" 
d="M133 620l128 145h63l-147 -145h-44z" />
    <glyph glyph-name="paragraph" unicode="&#xb6;" horiz-adv-x="543" 
d="M431 740v-960h-42v921h-115v-921h-42v641h-66q-60 0 -96.5 44.5t-36.5 116.5q0 71 41 114.5t108 43.5h249z" />
    <glyph glyph-name="periodcentered" unicode="&#xb7;" horiz-adv-x="226" 
d="M113 246q-17 0 -29 12t-12 29t12 29t29 12t29 -12t12 -29t-12 -29t-29 -12z" />
    <glyph glyph-name="cedilla" unicode="&#xb8;" horiz-adv-x="600" 
d="M127 -69q48 0 76.5 -21.5t28.5 -56.5q0 -38 -31.5 -60.5t-84.5 -22.5q-63 0 -93 30l12 25q25 -26 77 -26q36 0 58 15t22 39q0 23 -21.5 37t-56.5 14q-26 0 -49 -9l-9 17l56 88h36l-46 -71q16 2 25 2z" />
    <glyph glyph-name="uni00B9" unicode="&#xb9;" horiz-adv-x="254" 
d="M147 396v393l-115 -84l-20 28l144 107h30v-444h-39z" />
    <glyph glyph-name="ordmasculine" unicode="&#xba;" horiz-adv-x="427" 
d="M214 422q-72 0 -116 45t-44 119t44 119t116 45q71 0 115.5 -45.5t44.5 -118.5q0 -74 -44 -119t-116 -45zM214 453q54 0 87.5 36.5t33.5 96.5q0 59 -33.5 95.5t-87.5 36.5q-55 0 -88.5 -36.5t-33.5 -95.5q0 -60 33.5 -96.5t88.5 -36.5z" />
    <glyph glyph-name="guillemotright" unicode="&#xbb;" horiz-adv-x="541" 
d="M104 492l174 -222l-174 -222h-52l171 222l-171 222h52zM319 492l175 -222l-175 -222h-51l171 222l-171 222h51z" />
    <glyph glyph-name="onequarter" unicode="&#xbc;" horiz-adv-x="777" 
d="M146 -10l-31 20l434 740l31 -20zM147 296v393l-115 -84l-20 28l144 107h30v-444h-39zM645 0v98h-222v29l228 317h33v-313h68v-33h-68v-98h-39zM464 129h182l1 254z" />
    <glyph glyph-name="onehalf" unicode="&#xbd;" horiz-adv-x="789" 
d="M146 -10l-31 20l434 740l31 -20zM147 296v393l-115 -84l-20 28l144 107h30v-444h-39zM475 0v26l134 143q2 2 14.5 15t17 18t15.5 18.5t16 21t13 20.5t11.5 23t6.5 22.5t3 24.5q0 39 -25 62t-67 23q-43 0 -69 -25t-26 -66l-39 3q0 55 36.5 88t96.5 33q59 0 95.5 -31.5
t36.5 -83.5q0 -26 -8.5 -51t-28.5 -52t-33 -42.5t-41 -44.5l-107 -113l224 1v-33h-276z" />
    <glyph glyph-name="threequarters" unicode="&#xbe;" horiz-adv-x="870" 
d="M642 750l31 -20l-434 -740l-31 20zM311 423q0 -60 -41.5 -96.5t-111.5 -36.5q-88 0 -128 51l16 29q35 -47 107 -47q53 0 85 27t32 73q0 43 -31.5 69.5t-82.5 26.5q-39 0 -69 -15l-12 20l168 183h-196v33h250v-24l-158 -169q10 2 30 2q64 0 103 -34.5t39 -91.5zM777 131
h68v-33h-68v-98h-39v98h-222v29l228 317h33v-313zM739 129l1 254l-183 -254h182z" />
    <glyph glyph-name="questiondown" unicode="&#xbf;" horiz-adv-x="501" 
d="M261 462q-15 0 -25.5 10.5t-10.5 26.5q0 15 10.5 25.5t25.5 10.5q16 0 26.5 -10.5t10.5 -25.5q0 -16 -10.5 -26.5t-26.5 -10.5zM255 -230q-99 0 -159.5 51.5t-60.5 134.5q0 39 14 70.5t28.5 47t44.5 41.5q28 25 43 41t35.5 47.5t30 75.5t9.5 102h43q0 -67 -10 -117
t-30.5 -84t-37 -52t-43.5 -41q-25 -21 -37.5 -33t-24 -37.5t-11.5 -56.5q0 -66 45.5 -106.5t120.5 -40.5q72 0 118 40.5t48 106.5l49 -2q-3 -85 -62 -136.5t-153 -51.5z" />
    <glyph glyph-name="Agrave" unicode="&#xc0;" horiz-adv-x="715" 
d="M389 835h-45l-146 145h63zM655 0l-92 211h-410l-93 -211h-55l328 740h49l328 -740h-55zM171 254h373l-186 425z" />
    <glyph glyph-name="Aacute" unicode="&#xc1;" horiz-adv-x="715" 
d="M518 980l-147 -145h-44l128 145h63zM655 0l-92 211h-410l-93 -211h-55l328 740h49l328 -740h-55zM171 254h373l-186 425z" />
    <glyph glyph-name="Acircumflex" unicode="&#xc2;" horiz-adv-x="715" 
d="M358 951l-107 -116h-49l129 145h53l128 -145h-48zM655 0l-92 211h-410l-93 -211h-55l328 740h49l328 -740h-55zM171 254h373l-186 425z" />
    <glyph glyph-name="Atilde" unicode="&#xc3;" horiz-adv-x="715" 
d="M276 923q-25 0 -42 -19t-17 -49h-33q0 48 26.5 78t66.5 30q29 0 57.5 -19.5t54 -38.5t49.5 -19q25 0 42 18.5t17 48.5h33q0 -49 -26.5 -78.5t-66.5 -29.5q-36 0 -84.5 39t-76.5 39zM655 0l-92 211h-410l-93 -211h-55l328 740h49l328 -740h-55zM171 254h373l-186 425z" />
    <glyph glyph-name="Adieresis" unicode="&#xc4;" horiz-adv-x="715" 
d="M264 890q-16 0 -26.5 10.5t-10.5 26.5q0 15 10.5 25.5t26.5 10.5q15 0 25.5 -10.5t10.5 -25.5q0 -16 -10.5 -26.5t-25.5 -10.5zM451 890q-15 0 -25.5 10.5t-10.5 26.5q0 15 10.5 25.5t25.5 10.5q16 0 26 -10.5t10 -25.5q0 -16 -10 -26.5t-26 -10.5zM655 0l-92 211h-410
l-93 -211h-55l328 740h49l328 -740h-55zM171 254h373l-186 425z" />
    <glyph glyph-name="Aring" unicode="&#xc5;" horiz-adv-x="715" 
d="M358 799q-47 0 -76.5 28.5t-29.5 75.5t29.5 75.5t76.5 28.5t76.5 -28.5t29.5 -75.5t-29.5 -75.5t-76.5 -28.5zM358 980q-33 0 -52.5 -21t-19.5 -56t19.5 -55.5t52.5 -20.5t52.5 20.5t19.5 55.5t-19.5 56t-52.5 21zM655 0l-92 211h-410l-93 -211h-55l328 740h49l328 -740
h-55zM171 254h373l-186 425z" />
    <glyph glyph-name="AE" unicode="&#xc6;" horiz-adv-x="1057" 
d="M669 43h327v-43h-371l-59 211h-397l-121 -211h-57l431 740h565v-43h-506l85 -297h398v-44h-385zM193 254h361l-119 422z" />
    <glyph glyph-name="Ccedilla" unicode="&#xc7;" horiz-adv-x="754" 
d="M717 133q-100 -134 -275 -143l-40 -61q16 2 25 2q48 0 76.5 -21.5t28.5 -56.5q0 -38 -31.5 -60.5t-84.5 -22.5q-63 0 -93 30l12 25q25 -26 77 -26q36 0 58 15t22 39q0 23 -21.5 37t-56.5 14q-26 0 -49 -9l-9 17l50 78q-158 6 -254 110t-96 271q0 170 101 274.5t266 104.5
q163 0 274 -121l-32 -33q-99 111 -239 111q-142 0 -229 -92t-87 -243q0 -152 86 -245.5t226 -93.5q82 0 149 36t111 97z" />
    <glyph glyph-name="Egrave" unicode="&#xc8;" 
d="M356 835h-45l-146 145h63zM158 43h396v-43h-448v740h439v-43h-387v-297h364v-44h-364v-313z" />
    <glyph glyph-name="Eacute" unicode="&#xc9;" 
d="M485 980l-147 -145h-44l128 145h63zM158 43h396v-43h-448v740h439v-43h-387v-297h364v-44h-364v-313z" />
    <glyph glyph-name="Ecircumflex" unicode="&#xca;" 
d="M325 951l-107 -116h-49l129 145h53l128 -145h-48zM158 43h396v-43h-448v740h439v-43h-387v-297h364v-44h-364v-313z" />
    <glyph glyph-name="Edieresis" unicode="&#xcb;" 
d="M231 890q-16 0 -26.5 10.5t-10.5 26.5q0 15 10.5 25.5t26.5 10.5q15 0 25.5 -10.5t10.5 -25.5q0 -16 -10.5 -26.5t-25.5 -10.5zM418 890q-15 0 -25.5 10.5t-10.5 26.5q0 15 10.5 25.5t25.5 10.5q16 0 26 -10.5t10 -25.5q0 -16 -10 -26.5t-26 -10.5zM158 43h396v-43h-448
v740h439v-43h-387v-297h364v-44h-364v-313z" />
    <glyph glyph-name="Igrave" unicode="&#xcc;" horiz-adv-x="264" 
d="M118 835l-146 145h63l128 -145h-45zM106 0v740h52v-740h-52z" />
    <glyph glyph-name="Iacute" unicode="&#xcd;" horiz-adv-x="264" 
d="M101 835l128 145h63l-147 -145h-44zM106 0v740h52v-740h-52z" />
    <glyph glyph-name="Icircumflex" unicode="&#xce;" horiz-adv-x="264" 
d="M158 980l128 -145h-48l-106 116l-107 -116h-49l129 145h53zM106 0v740h52v-740h-52z" />
    <glyph glyph-name="Idieresis" unicode="&#xcf;" horiz-adv-x="264" 
d="M38 890q-16 0 -26.5 10.5t-10.5 26.5q0 15 10.5 25.5t26.5 10.5q15 0 25.5 -10.5t10.5 -25.5q0 -16 -10.5 -26.5t-25.5 -10.5zM225 890q-15 0 -25.5 10.5t-10.5 26.5q0 15 10.5 25.5t25.5 10.5q16 0 26 -10.5t10 -25.5q0 -16 -10 -26.5t-26 -10.5zM106 0v740h52v-740h-52
z" />
    <glyph glyph-name="Eth" unicode="&#xd0;" horiz-adv-x="755" 
d="M342 740q161 0 259 -102.5t98 -269.5q0 -166 -98 -267t-259 -101h-236v354h-87v37h87v349h236zM334 43q140 0 225.5 89.5t85.5 235.5q0 148 -85.5 238.5t-225.5 90.5h-176v-306h215v-37h-215v-311h176z" />
    <glyph glyph-name="Ntilde" unicode="&#xd1;" horiz-adv-x="829" 
d="M493 845q-36 0 -84.5 39t-76.5 39q-25 0 -42 -19t-17 -49h-33q0 48 26.5 78t66.5 30q37 0 85 -38.5t76 -38.5q25 0 42 18.5t17 48.5h33q0 -49 -26.5 -78.5t-66.5 -29.5zM106 0v740h34l532 -649v649h51v-740h-34l-532 649l1 -649h-52z" />
    <glyph glyph-name="Ograve" unicode="&#xd2;" horiz-adv-x="837" 
d="M405 835l-146 145h63l128 -145h-45zM419 -10q-163 0 -263 104.5t-100 275.5t100 275.5t263 104.5t262.5 -104.5t99.5 -275.5t-99.5 -275.5t-262.5 -104.5zM419 33q139 0 223.5 92.5t84.5 244.5t-84.5 244.5t-223.5 92.5t-224 -93t-85 -244t85 -244t224 -93z" />
    <glyph glyph-name="Oacute" unicode="&#xd3;" horiz-adv-x="837" 
d="M388 835l128 145h63l-147 -145h-44zM419 -10q-163 0 -263 104.5t-100 275.5t100 275.5t263 104.5t262.5 -104.5t99.5 -275.5t-99.5 -275.5t-262.5 -104.5zM419 33q139 0 223.5 92.5t84.5 244.5t-84.5 244.5t-223.5 92.5t-224 -93t-85 -244t85 -244t224 -93z" />
    <glyph glyph-name="Ocircumflex" unicode="&#xd4;" horiz-adv-x="837" 
d="M419 951l-107 -116h-49l129 145h53l128 -145h-48zM419 750q163 0 262.5 -104.5t99.5 -275.5t-99.5 -275.5t-262.5 -104.5t-263 104.5t-100 275.5t100 275.5t263 104.5zM419 33q139 0 223.5 92.5t84.5 244.5t-84.5 244.5t-223.5 92.5t-224 -93t-85 -244t85 -244t224 -93z
" />
    <glyph glyph-name="Otilde" unicode="&#xd5;" horiz-adv-x="837" 
d="M498 845q-36 0 -84.5 39t-76.5 39q-25 0 -42 -19t-17 -49h-33q0 48 26.5 78t66.5 30q30 0 58 -19.5t53.5 -38.5t49.5 -19q25 0 42 18.5t17 48.5h33q0 -49 -26.5 -78.5t-66.5 -29.5zM419 -10q-163 0 -263 104.5t-100 275.5t100 275.5t263 104.5t262.5 -104.5t99.5 -275.5
t-99.5 -275.5t-262.5 -104.5zM419 33q139 0 223.5 92.5t84.5 244.5t-84.5 244.5t-223.5 92.5t-224 -93t-85 -244t85 -244t224 -93z" />
    <glyph glyph-name="Odieresis" unicode="&#xd6;" horiz-adv-x="837" 
d="M325 890q-16 0 -26.5 10.5t-10.5 26.5q0 15 10.5 25.5t26.5 10.5q15 0 25.5 -10.5t10.5 -25.5q0 -16 -10.5 -26.5t-25.5 -10.5zM512 890q-15 0 -25.5 10.5t-10.5 26.5q0 15 10.5 25.5t25.5 10.5q16 0 26 -10.5t10 -25.5q0 -16 -10 -26.5t-26 -10.5zM419 -10
q-163 0 -263 104.5t-100 275.5t100 275.5t263 104.5t262.5 -104.5t99.5 -275.5t-99.5 -275.5t-262.5 -104.5zM419 33q139 0 223.5 92.5t84.5 244.5t-84.5 244.5t-223.5 92.5t-224 -93t-85 -244t85 -244t224 -93z" />
    <glyph glyph-name="multiply" unicode="&#xd7;" horiz-adv-x="494" 
d="M425 493l-148 -148l148 -148l-30 -30l-148 148l-147 -148l-30 30l147 148l-148 148l31 30l148 -148l147 148z" />
    <glyph glyph-name="Oslash" unicode="&#xd8;" horiz-adv-x="842" 
d="M695 630q86 -102 86 -260q0 -171 -99.5 -275.5t-262.5 -104.5q-147 0 -244 86l-80 -86l-33 30l82 88q-88 102 -88 262q0 171 100 275.5t263 104.5q148 0 245 -88l82 88l33 -30zM110 370q0 -136 69 -225l451 482q-83 80 -211 80q-139 0 -224 -93t-85 -244zM419 33
q139 0 223.5 92.5t84.5 244.5q0 134 -67 223l-451 -481q82 -79 210 -79z" />
    <glyph glyph-name="Ugrave" unicode="&#xd9;" horiz-adv-x="786" 
d="M379 835l-146 145h63l128 -145h-45zM393 -10q-133 0 -214.5 73.5t-81.5 194.5v482h51v-480q0 -102 67.5 -164.5t177.5 -62.5t177.5 62.5t67.5 164.5v480h52v-482q0 -121 -81.5 -194.5t-215.5 -73.5z" />
    <glyph glyph-name="Uacute" unicode="&#xda;" horiz-adv-x="786" 
d="M362 835l128 145h63l-147 -145h-44zM393 -10q-133 0 -214.5 73.5t-81.5 194.5v482h51v-480q0 -102 67.5 -164.5t177.5 -62.5t177.5 62.5t67.5 164.5v480h52v-482q0 -121 -81.5 -194.5t-215.5 -73.5z" />
    <glyph glyph-name="Ucircumflex" unicode="&#xdb;" horiz-adv-x="786" 
d="M393 951l-107 -116h-49l129 145h53l128 -145h-48zM638 740h52v-482q0 -121 -81.5 -194.5t-215.5 -73.5q-133 0 -214.5 73.5t-81.5 194.5v482h51v-480q0 -102 67.5 -164.5t177.5 -62.5t177.5 62.5t67.5 164.5v480z" />
    <glyph glyph-name="Udieresis" unicode="&#xdc;" horiz-adv-x="786" 
d="M299 890q-16 0 -26.5 10.5t-10.5 26.5q0 15 10.5 25.5t26.5 10.5q15 0 25.5 -10.5t10.5 -25.5q0 -16 -10.5 -26.5t-25.5 -10.5zM486 890q-15 0 -25.5 10.5t-10.5 26.5q0 15 10.5 25.5t25.5 10.5q16 0 26 -10.5t10 -25.5q0 -16 -10 -26.5t-26 -10.5zM393 -10
q-133 0 -214.5 73.5t-81.5 194.5v482h51v-480q0 -102 67.5 -164.5t177.5 -62.5t177.5 62.5t67.5 164.5v480h52v-482q0 -121 -81.5 -194.5t-215.5 -73.5z" />
    <glyph glyph-name="Yacute" unicode="&#xdd;" horiz-adv-x="643" 
d="M483 980l-147 -145h-44l128 145h63zM567 740h58l-278 -430v-310h-51v310l-278 430h58l246 -383z" />
    <glyph glyph-name="Thorn" unicode="&#xde;" horiz-adv-x="638" 
d="M364 597q106 0 170.5 -60.5t64.5 -159.5q0 -101 -64 -162.5t-170 -61.5h-207v-153h-52v740h52v-143h206zM355 197q86 0 138 49t52 129q0 81 -52 130t-138 49h-197v-357h197z" />
    <glyph glyph-name="germandbls" unicode="&#xdf;" horiz-adv-x="597" 
d="M383 418q77 -20 121 -75t44 -133q0 -99 -66.5 -159.5t-175.5 -60.5q-44 0 -77 12l6 41q27 -11 65 -11q89 0 143 50t54 132t-55 132.5t-145 50.5v40q74 0 118.5 43t44.5 113t-45 112.5t-118 42.5t-118 -42.5t-45 -112.5v-593h-48v599q0 86 58 138.5t153 52.5
q96 0 155 -52.5t59 -138.5q0 -65 -34 -113t-94 -68z" />
    <glyph glyph-name="agrave" unicode="&#xe0;" horiz-adv-x="546" 
d="M303 620h-45l-146 145h63zM259 535q94 0 150.5 -56t56.5 -148v-331h-47l-1 116v11q-27 -64 -83.5 -100.5t-125.5 -36.5q-76 0 -122.5 41t-46.5 108q0 71 58 114t153 43q87 0 167 -21v47q0 79 -46 126t-122 47q-94 0 -153 -65l-23 31q69 74 185 74zM222 27q75 0 135.5 58
t60.5 154q-76 21 -161 21q-75 0 -120.5 -33t-45.5 -87q0 -51 35.5 -82t95.5 -31z" />
    <glyph glyph-name="aacute" unicode="&#xe1;" horiz-adv-x="546" 
d="M432 765l-147 -145h-44l128 145h63zM259 535q94 0 150.5 -56t56.5 -148v-331h-47l-1 116v11q-27 -64 -83.5 -100.5t-125.5 -36.5q-76 0 -122.5 41t-46.5 108q0 71 58 114t153 43q87 0 167 -21v47q0 79 -46 126t-122 47q-94 0 -153 -65l-23 31q69 74 185 74zM222 27
q75 0 135.5 58t60.5 154q-76 21 -161 21q-75 0 -120.5 -33t-45.5 -87q0 -51 35.5 -82t95.5 -31z" />
    <glyph glyph-name="acircumflex" unicode="&#xe2;" horiz-adv-x="546" 
d="M272 736l-107 -116h-49l129 145h53l128 -145h-48zM259 535q94 0 150.5 -56t56.5 -148v-331h-47l-1 116v11q-27 -64 -83.5 -100.5t-125.5 -36.5q-76 0 -122.5 41t-46.5 108q0 71 58 114t153 43q87 0 167 -21v47q0 79 -46 126t-122 47q-94 0 -153 -65l-23 31q69 74 185 74z
M222 27q75 0 135.5 58t60.5 154q-76 21 -161 21q-75 0 -120.5 -33t-45.5 -87q0 -51 35.5 -82t95.5 -31z" />
    <glyph glyph-name="atilde" unicode="&#xe3;" horiz-adv-x="546" 
d="M190 708q-25 0 -42 -19t-17 -49h-33q0 48 26.5 78t66.5 30q36 0 84.5 -38.5t76.5 -38.5q25 0 42 18.5t17 48.5h33q0 -49 -26.5 -78.5t-66.5 -29.5q-36 0 -84.5 39t-76.5 39zM259 535q94 0 150.5 -56t56.5 -148v-331h-47l-1 116v11q-27 -64 -83.5 -100.5t-125.5 -36.5
q-76 0 -122.5 41t-46.5 108q0 71 58 114t153 43q87 0 167 -21v47q0 79 -46 126t-122 47q-94 0 -153 -65l-23 31q69 74 185 74zM222 27q75 0 135.5 58t60.5 154q-76 21 -161 21q-75 0 -120.5 -33t-45.5 -87q0 -51 35.5 -82t95.5 -31z" />
    <glyph glyph-name="adieresis" unicode="&#xe4;" horiz-adv-x="546" 
d="M178 675q-16 0 -26.5 10.5t-10.5 26.5q0 15 10.5 25.5t26.5 10.5q15 0 25.5 -10.5t10.5 -25.5q0 -16 -10.5 -26.5t-25.5 -10.5zM365 675q-15 0 -25.5 10.5t-10.5 26.5q0 15 10.5 25.5t25.5 10.5q16 0 26 -10.5t10 -25.5q0 -16 -10 -26.5t-26 -10.5zM259 535
q94 0 150.5 -56t56.5 -148v-331h-47l-1 116v11q-27 -64 -83.5 -100.5t-125.5 -36.5q-76 0 -122.5 41t-46.5 108q0 71 58 114t153 43q87 0 167 -21v47q0 79 -46 126t-122 47q-94 0 -153 -65l-23 31q69 74 185 74zM222 27q75 0 135.5 58t60.5 154q-76 21 -161 21
q-75 0 -120.5 -33t-45.5 -87q0 -51 35.5 -82t95.5 -31z" />
    <glyph glyph-name="aring" unicode="&#xe5;" horiz-adv-x="546" 
d="M272 584q-47 0 -76.5 28.5t-29.5 75.5t29.5 75.5t76.5 28.5t76.5 -28.5t29.5 -75.5t-29.5 -75.5t-76.5 -28.5zM272 765q-33 0 -52.5 -21t-19.5 -56t19.5 -55.5t52.5 -20.5t52.5 20.5t19.5 55.5t-19.5 56t-52.5 21zM259 535q94 0 150.5 -56t56.5 -148v-331h-47l-1 116v11
q-27 -64 -83.5 -100.5t-125.5 -36.5q-76 0 -122.5 41t-46.5 108q0 71 58 114t153 43q87 0 167 -21v47q0 79 -46 126t-122 47q-94 0 -153 -65l-23 31q69 74 185 74zM222 27q75 0 135.5 58t60.5 154q-76 21 -161 21q-75 0 -120.5 -33t-45.5 -87q0 -51 35.5 -82t95.5 -31z" />
    <glyph glyph-name="ae" unicode="&#xe6;" horiz-adv-x="946" 
d="M901 269l-1 -25h-433q5 -98 56.5 -156.5t135.5 -58.5q112 0 187 100l36 -23q-79 -116 -220 -116q-78 0 -136 41t-85 113q-24 -72 -86 -113t-141 -41q-78 0 -126 41t-48 108q0 71 58 114t153 43q87 0 167 -21v47q0 79 -46 126t-122 47q-94 0 -153 -65l-23 31q68 74 183 74
q72 0 122.5 -35t71.5 -96q30 62 84.5 96.5t125.5 34.5q107 0 173.5 -73.5t66.5 -192.5zM658 495q-84 0 -135.5 -58t-56.5 -157h384q-4 98 -55.5 156.5t-136.5 58.5zM222 27q75 0 135.5 58t60.5 154q-76 21 -161 21q-75 0 -120.5 -33t-45.5 -87q0 -51 35.5 -82t95.5 -31z" />
    <glyph glyph-name="ccedilla" unicode="&#xe7;" horiz-adv-x="531" 
d="M311 -69q48 0 76.5 -21.5t28.5 -56.5q0 -38 -31.5 -60.5t-84.5 -22.5q-63 0 -93 30l12 25q25 -26 77 -26q36 0 58 15t22 39q0 23 -21.5 37t-56.5 14q-26 0 -49 -9l-9 17l50 79q-108 7 -173.5 81t-65.5 191q0 122 72.5 197t191.5 75q96 0 167 -56l-29 -34q-60 48 -139 48
q-95 0 -153.5 -63.5t-58.5 -167.5t58.5 -167t155.5 -63q93 0 153 60l28 -33q-64 -64 -171 -69l-40 -61q16 2 25 2z" />
    <glyph glyph-name="egrave" unicode="&#xe8;" horiz-adv-x="583" 
d="M326 620h-45l-146 145h63zM537 269v-25h-433q5 -98 56 -156.5t136 -58.5q112 0 187 100l36 -23q-81 -116 -222 -116q-110 0 -177.5 75.5t-67.5 198.5q0 122 66.5 196.5t176.5 74.5q109 0 175.5 -73.5t66.5 -192.5zM295 495q-85 0 -136.5 -58t-55.5 -157h384
q-4 98 -55.5 156.5t-136.5 58.5z" />
    <glyph glyph-name="eacute" unicode="&#xe9;" horiz-adv-x="583" 
d="M455 765l-147 -145h-44l128 145h63zM537 269v-25h-433q5 -98 56 -156.5t136 -58.5q112 0 187 100l36 -23q-81 -116 -222 -116q-110 0 -177.5 75.5t-67.5 198.5q0 122 66.5 196.5t176.5 74.5q109 0 175.5 -73.5t66.5 -192.5zM295 495q-85 0 -136.5 -58t-55.5 -157h384
q-4 98 -55.5 156.5t-136.5 58.5z" />
    <glyph glyph-name="ecircumflex" unicode="&#xea;" horiz-adv-x="583" 
d="M295 736l-107 -116h-49l129 145h53l128 -145h-48zM537 269v-25h-433q5 -98 56 -156.5t136 -58.5q112 0 187 100l36 -23q-81 -116 -222 -116q-110 0 -177.5 75.5t-67.5 198.5q0 122 66.5 196.5t176.5 74.5q109 0 175.5 -73.5t66.5 -192.5zM295 495q-85 0 -136.5 -58
t-55.5 -157h384q-4 98 -55.5 156.5t-136.5 58.5z" />
    <glyph glyph-name="edieresis" unicode="&#xeb;" horiz-adv-x="583" 
d="M201 675q-16 0 -26.5 10.5t-10.5 26.5q0 15 10.5 25.5t26.5 10.5q15 0 25.5 -10.5t10.5 -25.5q0 -16 -10.5 -26.5t-25.5 -10.5zM388 675q-15 0 -25.5 10.5t-10.5 26.5q0 15 10.5 25.5t25.5 10.5q16 0 26 -10.5t10 -25.5q0 -16 -10 -26.5t-26 -10.5zM537 269v-25h-433
q5 -98 56 -156.5t136 -58.5q112 0 187 100l36 -23q-81 -116 -222 -116q-110 0 -177.5 75.5t-67.5 198.5q0 122 66.5 196.5t176.5 74.5q109 0 175.5 -73.5t66.5 -192.5zM295 495q-85 0 -136.5 -58t-55.5 -157h384q-4 98 -55.5 156.5t-136.5 58.5z" />
    <glyph glyph-name="igrave" unicode="&#xec;" horiz-adv-x="224" 
d="M98 620l-146 145h63l128 -145h-45zM88 0v525h48v-525h-48z" />
    <glyph glyph-name="iacute" unicode="&#xed;" horiz-adv-x="224" 
d="M81 620l128 145h63l-147 -145h-44zM88 0v525h48v-525h-48z" />
    <glyph glyph-name="icircumflex" unicode="&#xee;" horiz-adv-x="224" 
d="M138 765l128 -145h-48l-106 116l-107 -116h-49l129 145h53zM88 0v525h48v-525h-48z" />
    <glyph glyph-name="idieresis" unicode="&#xef;" horiz-adv-x="224" 
d="M18 675q-16 0 -26.5 10.5t-10.5 26.5q0 15 10.5 25.5t26.5 10.5q15 0 25.5 -10.5t10.5 -25.5q0 -16 -10.5 -26.5t-25.5 -10.5zM205 675q-15 0 -25.5 10.5t-10.5 26.5q0 15 10.5 25.5t25.5 10.5q16 0 26 -10.5t10 -25.5q0 -16 -10 -26.5t-26 -10.5zM88 0v525h48v-525h-48z
" />
    <glyph glyph-name="eth" unicode="&#xf0;" horiz-adv-x="630" 
d="M340 709q236 -182 236 -424q0 -136 -71.5 -215.5t-190.5 -79.5q-118 0 -190.5 75t-72.5 198q0 121 70 195t182 74q119 0 185 -77q-56 126 -188 227l-88 -59l-31 21l89 60q-47 34 -94 59l40 27q55 -31 94 -59l88 59l30 -22zM314 32q95 0 153.5 63.5t58.5 166.5
q0 104 -59 167.5t-153 63.5q-95 0 -153.5 -63.5t-58.5 -167.5q0 -103 58.5 -166.5t153.5 -63.5z" />
    <glyph glyph-name="ntilde" unicode="&#xf1;" horiz-adv-x="629" 
d="M237 708q-25 0 -42 -19t-17 -49h-33q0 48 26.5 78t66.5 30q23 0 46.5 -12t39 -26.5t36 -26.5t39.5 -12q25 0 42 18.5t17 48.5h33q0 -49 -26.5 -78.5t-66.5 -29.5q-36 0 -84.5 39t-76.5 39zM332 535q98 0 158 -56t60 -148v-331h-48v320q0 78 -50.5 125.5t-133.5 47.5
t-133.5 -47.5t-50.5 -125.5v-320h-48v525h47l1 -102q50 112 198 112z" />
    <glyph glyph-name="ograve" unicode="&#xf2;" horiz-adv-x="627" 
d="M300 620l-146 145h63l128 -145h-45zM314 -10q-118 0 -190.5 75t-72.5 197q0 123 72.5 198t190.5 75t190 -75t72 -198q0 -122 -72 -197t-190 -75zM314 32q95 0 153.5 63.5t58.5 166.5q0 104 -58.5 167.5t-153.5 63.5q-96 0 -154 -63.5t-58 -167.5t58 -167t154 -63z" />
    <glyph glyph-name="oacute" unicode="&#xf3;" horiz-adv-x="627" 
d="M283 620l128 145h63l-147 -145h-44zM314 -10q-118 0 -190.5 75t-72.5 197q0 123 72.5 198t190.5 75t190 -75t72 -198q0 -122 -72 -197t-190 -75zM314 32q95 0 153.5 63.5t58.5 166.5q0 104 -58.5 167.5t-153.5 63.5q-96 0 -154 -63.5t-58 -167.5t58 -167t154 -63z" />
    <glyph glyph-name="ocircumflex" unicode="&#xf4;" horiz-adv-x="627" 
d="M314 736l-107 -116h-49l129 145h53l128 -145h-48zM314 535q118 0 190 -75t72 -198q0 -122 -72 -197t-190 -75t-190.5 75t-72.5 197q0 123 72.5 198t190.5 75zM314 32q95 0 153.5 63.5t58.5 166.5q0 104 -58.5 167.5t-153.5 63.5q-96 0 -154 -63.5t-58 -167.5t58 -167
t154 -63z" />
    <glyph glyph-name="otilde" unicode="&#xf5;" horiz-adv-x="627" 
d="M393 630q-36 0 -84.5 39t-76.5 39q-25 0 -42 -19t-17 -49h-33q0 48 26.5 78t66.5 30q37 0 85 -38.5t76 -38.5q25 0 42 18.5t17 48.5h33q0 -49 -26.5 -78.5t-66.5 -29.5zM314 -10q-118 0 -190.5 75t-72.5 197q0 123 72.5 198t190.5 75t190 -75t72 -198q0 -122 -72 -197
t-190 -75zM314 32q95 0 153.5 63.5t58.5 166.5q0 104 -58.5 167.5t-153.5 63.5q-96 0 -154 -63.5t-58 -167.5t58 -167t154 -63z" />
    <glyph glyph-name="odieresis" unicode="&#xf6;" horiz-adv-x="627" 
d="M220 675q-16 0 -26.5 10.5t-10.5 26.5q0 15 10.5 25.5t26.5 10.5q15 0 25.5 -10.5t10.5 -25.5q0 -16 -10.5 -26.5t-25.5 -10.5zM407 675q-15 0 -25.5 10.5t-10.5 26.5q0 15 10.5 25.5t25.5 10.5q16 0 26 -10.5t10 -25.5q0 -16 -10 -26.5t-26 -10.5zM314 -10
q-118 0 -190.5 75t-72.5 197q0 123 72.5 198t190.5 75t190 -75t72 -198q0 -122 -72 -197t-190 -75zM314 32q95 0 153.5 63.5t58.5 166.5q0 104 -58.5 167.5t-153.5 63.5q-96 0 -154 -63.5t-58 -167.5t58 -167t154 -63z" />
    <glyph glyph-name="divide" unicode="&#xf7;" horiz-adv-x="562" 
d="M281 454q-15 0 -25.5 10.5t-10.5 26.5q0 15 10.5 25.5t25.5 10.5q16 0 26 -10.5t10 -25.5q0 -16 -10 -26.5t-26 -10.5zM74 325v41h415v-41h-415zM281 164q-15 0 -25.5 10.5t-10.5 26.5q0 15 10.5 25.5t25.5 10.5q16 0 26 -10.5t10 -25.5q0 -16 -10 -26.5t-26 -10.5z" />
    <glyph glyph-name="oslash" unicode="&#xf8;" horiz-adv-x="631" 
d="M576 506l-58 -62q58 -72 58 -182q0 -122 -72 -197t-190 -75q-103 0 -172 58l-55 -58l-33 29l57 60q-60 73 -60 183q0 123 72.5 198t190.5 75q105 0 173 -60l57 60zM102 262q0 -88 43 -148l310 328q-56 51 -141 51q-96 0 -154 -63.5t-58 -167.5zM526 262q0 88 -42 147
l-310 -327q56 -50 140 -50q95 0 153.5 63.5t58.5 166.5z" />
    <glyph glyph-name="ugrave" unicode="&#xf9;" horiz-adv-x="618" 
d="M337 620h-45l-146 145h63zM484 525h48v-525h-47l-1 100q-49 -110 -192 -110q-95 0 -153.5 56t-58.5 147v332h48v-320q0 -78 49 -125.5t129 -47.5t129 47.5t49 125.5v320z" />
    <glyph glyph-name="uacute" unicode="&#xfa;" horiz-adv-x="618" 
d="M466 765l-147 -145h-44l128 145h63zM484 525h48v-525h-47l-1 100q-49 -110 -192 -110q-95 0 -153.5 56t-58.5 147v332h48v-320q0 -78 49 -125.5t129 -47.5t129 47.5t49 125.5v320z" />
    <glyph glyph-name="ucircumflex" unicode="&#xfb;" horiz-adv-x="618" 
d="M306 736l-107 -116h-49l129 145h53l128 -145h-48zM484 525h48v-525h-47l-1 100q-49 -110 -192 -110q-95 0 -153.5 56t-58.5 147v332h48v-320q0 -78 49 -125.5t129 -47.5t129 47.5t49 125.5v320z" />
    <glyph glyph-name="udieresis" unicode="&#xfc;" horiz-adv-x="618" 
d="M212 675q-16 0 -26.5 10.5t-10.5 26.5q0 15 10.5 25.5t26.5 10.5q15 0 25.5 -10.5t10.5 -25.5q0 -16 -10.5 -26.5t-25.5 -10.5zM399 675q-15 0 -25.5 10.5t-10.5 26.5q0 15 10.5 25.5t25.5 10.5q16 0 26 -10.5t10 -25.5q0 -16 -10 -26.5t-26 -10.5zM484 525h48v-525h-47
l-1 100q-49 -110 -192 -110q-95 0 -153.5 56t-58.5 147v332h48v-320q0 -78 49 -125.5t129 -47.5t129 47.5t49 125.5v320z" />
    <glyph glyph-name="yacute" unicode="&#xfd;" horiz-adv-x="555" 
d="M249 620l128 145h63l-147 -145h-44zM123 -230q-34 0 -58 11l6 40q18 -9 44 -9q32 0 50 18t37 58l54 117l-240 520h54l212 -467l207 467h54l-294 -643q-26 -58 -52.5 -85t-73.5 -27z" />
    <glyph glyph-name="thorn" unicode="&#xfe;" horiz-adv-x="660" 
d="M357 535q112 0 182 -75t70 -196q0 -123 -70 -198.5t-182 -75.5q-166 0 -223 142v-352h-48v1000h48v-387q57 142 223 142zM346 32q96 0 154.5 63.5t58.5 167.5t-58.5 167t-154.5 63q-95 0 -153.5 -63.5t-58.5 -167.5q0 -103 58.5 -166.5t153.5 -63.5z" />
    <glyph glyph-name="ydieresis" unicode="&#xff;" horiz-adv-x="555" 
d="M186 675q-16 0 -26.5 10.5t-10.5 26.5q0 15 10.5 25.5t26.5 10.5q15 0 25.5 -10.5t10.5 -25.5q0 -16 -10.5 -26.5t-25.5 -10.5zM373 675q-15 0 -25.5 10.5t-10.5 26.5q0 15 10.5 25.5t25.5 10.5q16 0 26 -10.5t10 -25.5q0 -16 -10 -26.5t-26 -10.5zM123 -230
q-34 0 -58 11l6 40q18 -9 44 -9q32 0 50 18t37 58l54 117l-240 520h54l212 -467l207 467h54l-294 -643q-26 -58 -52.5 -85t-73.5 -27z" />
    <glyph glyph-name="Amacron" unicode="&#x100;" horiz-adv-x="715" 
d="M505 910v-40h-293v40h293zM655 0l-92 211h-410l-93 -211h-55l328 740h49l328 -740h-55zM171 254h373l-186 425z" />
    <glyph glyph-name="amacron" unicode="&#x101;" horiz-adv-x="546" 
d="M419 695v-40h-293v40h293zM259 535q94 0 150.5 -56t56.5 -148v-331h-47l-1 116v11q-27 -64 -83.5 -100.5t-125.5 -36.5q-76 0 -122.5 41t-46.5 108q0 71 58 114t153 43q87 0 167 -21v47q0 79 -46 126t-122 47q-94 0 -153 -65l-23 31q69 74 185 74zM222 27q75 0 135.5 58
t60.5 154q-76 21 -161 21q-75 0 -120.5 -33t-45.5 -87q0 -51 35.5 -82t95.5 -31z" />
    <glyph glyph-name="Abreve" unicode="&#x102;" horiz-adv-x="715" 
d="M358 825q-69 0 -111 42.5t-42 112.5h42q0 -55 30.5 -89t80.5 -34q49 0 79.5 34t30.5 89h42q0 -70 -42 -112.5t-110 -42.5zM655 0l-92 211h-410l-93 -211h-55l328 740h49l328 -740h-55zM171 254h373l-186 425z" />
    <glyph glyph-name="abreve" unicode="&#x103;" horiz-adv-x="546" 
d="M272 610q-69 0 -111 42.5t-42 112.5h42q0 -55 30.5 -89t80.5 -34q49 0 79.5 34t30.5 89h42q0 -70 -42 -112.5t-110 -42.5zM259 535q94 0 150.5 -56t56.5 -148v-331h-47l-1 116v11q-27 -64 -83.5 -100.5t-125.5 -36.5q-76 0 -122.5 41t-46.5 108q0 71 58 114t153 43
q87 0 167 -21v47q0 79 -46 126t-122 47q-94 0 -153 -65l-23 31q69 74 185 74zM222 27q75 0 135.5 58t60.5 154q-76 21 -161 21q-75 0 -120.5 -33t-45.5 -87q0 -51 35.5 -82t95.5 -31z" />
    <glyph glyph-name="Aogonek" unicode="&#x104;" horiz-adv-x="715" 
d="M707 -172l6 -30q-32 -28 -76 -28q-36 0 -58.5 20.5t-22.5 54.5q0 79 107 155h-8l-92 211h-410l-93 -211h-55l328 740h49l328 -740q-113 -75 -113 -150q0 -21 13 -34.5t35 -13.5q34 0 62 26zM171 254h373l-186 425z" />
    <glyph glyph-name="aogonek" unicode="&#x105;" horiz-adv-x="546" 
d="M463 -172l6 -30q-32 -28 -76 -28q-36 0 -58.5 20.5t-22.5 54.5q0 77 108 155h-1l-1 116v11q-27 -64 -83.5 -100.5t-125.5 -36.5q-76 0 -122.5 41t-46.5 108q0 71 58 114t153 43q87 0 167 -21v47q0 79 -46 126t-122 47q-94 0 -153 -65l-23 31q69 74 185 74q94 0 150.5 -56
t56.5 -148v-331q-113 -75 -113 -150q0 -21 13 -34.5t35 -13.5q34 0 62 26zM222 27q75 0 135.5 58t60.5 154q-76 21 -161 21q-75 0 -120.5 -33t-45.5 -87q0 -51 35.5 -82t95.5 -31z" />
    <glyph glyph-name="Cacute" unicode="&#x106;" horiz-adv-x="754" 
d="M382 835l128 145h63l-147 -145h-44zM422 -10q-164 0 -265 104.5t-101 276.5q0 170 101 274.5t266 104.5q163 0 274 -121l-32 -33q-99 111 -239 111q-142 0 -229 -92t-87 -243q0 -152 86 -245.5t226 -93.5q82 0 149 36t111 97l35 -33q-50 -67 -126 -105t-169 -38z" />
    <glyph glyph-name="cacute" unicode="&#x107;" horiz-adv-x="531" 
d="M275 620l128 145h63l-147 -145h-44zM311 -10q-117 0 -188.5 75t-71.5 198q0 122 72.5 197t191.5 75q96 0 167 -56l-29 -34q-60 48 -139 48q-95 0 -153.5 -63.5t-58.5 -167.5t58.5 -167t155.5 -63q93 0 153 60l28 -33q-69 -69 -186 -69z" />
    <glyph glyph-name="Cdotaccent" unicode="&#x10a;" horiz-adv-x="754" 
d="M413 890q-16 0 -26.5 10.5t-10.5 26.5q0 15 10.5 25.5t26.5 10.5q15 0 25.5 -10.5t10.5 -25.5q0 -16 -10.5 -26.5t-25.5 -10.5zM422 -10q-164 0 -265 104.5t-101 276.5q0 170 101 274.5t266 104.5q163 0 274 -121l-32 -33q-99 111 -239 111q-142 0 -229 -92t-87 -243
q0 -152 86 -245.5t226 -93.5q82 0 149 36t111 97l35 -33q-50 -67 -126 -105t-169 -38z" />
    <glyph glyph-name="cdotaccent" unicode="&#x10b;" horiz-adv-x="531" 
d="M306 675q-16 0 -26.5 10.5t-10.5 26.5q0 15 10.5 25.5t26.5 10.5q15 0 25.5 -10.5t10.5 -25.5q0 -16 -10.5 -26.5t-25.5 -10.5zM311 -10q-117 0 -188.5 75t-71.5 198q0 122 72.5 197t191.5 75q96 0 167 -56l-29 -34q-60 48 -139 48q-95 0 -153.5 -63.5t-58.5 -167.5
t58.5 -167t155.5 -63q93 0 153 60l28 -33q-69 -69 -186 -69z" />
    <glyph glyph-name="Ccaron" unicode="&#x10c;" horiz-adv-x="754" 
d="M439 835h-53l-129 145h49l107 -116l106 116h48zM682 166l35 -33q-50 -67 -126 -105t-169 -38q-164 0 -265 104.5t-101 276.5q0 170 101 274.5t266 104.5q163 0 274 -121l-32 -33q-99 111 -239 111q-142 0 -229 -92t-87 -243q0 -152 86 -245.5t226 -93.5q82 0 149 36
t111 97z" />
    <glyph glyph-name="ccaron" unicode="&#x10d;" horiz-adv-x="531" 
d="M332 620h-53l-129 145h49l107 -116l106 116h48zM469 92l28 -33q-69 -69 -186 -69t-188.5 75t-71.5 198q0 122 72.5 197t191.5 75q96 0 167 -56l-29 -34q-60 48 -139 48q-95 0 -153.5 -63.5t-58.5 -167.5t58.5 -167t155.5 -63q93 0 153 60z" />
    <glyph glyph-name="Dcaron" unicode="&#x10e;" horiz-adv-x="755" 
d="M339 835h-53l-129 145h49l107 -116l106 116h48zM342 740q161 0 259 -102.5t98 -269.5q0 -166 -98 -267t-259 -101h-236v740h236zM334 43q140 0 225.5 89.5t85.5 235.5q0 148 -85.5 238.5t-225.5 90.5h-176v-654h176z" />
    <glyph glyph-name="dcaron" unicode="&#x10f;" horiz-adv-x="668" 
d="M526 393v387h48v-780h-47l-1 124v7q-27 -66 -83 -103.5t-140 -37.5q-112 0 -182 75t-70 196q0 123 70 198.5t182 75.5q166 0 223 -142zM685 780h46l-71 -187h-38zM314 32q95 0 153.5 63.5t58.5 166.5q0 104 -58.5 167.5t-153.5 63.5q-96 0 -154 -64t-58 -168t58 -166.5
t154 -62.5z" />
    <glyph glyph-name="Dcroat" unicode="&#x110;" horiz-adv-x="755" 
d="M342 740q161 0 259 -102.5t98 -269.5q0 -166 -98 -267t-259 -101h-236v354h-87v37h87v349h236zM334 43q140 0 225.5 89.5t85.5 235.5q0 148 -85.5 238.5t-225.5 90.5h-176v-306h215v-37h-215v-311h176z" />
    <glyph glyph-name="dcroat" unicode="&#x111;" horiz-adv-x="660" 
d="M662 674v-37h-88v-637h-47l-1 124v7q-27 -66 -83 -103.5t-140 -37.5q-112 0 -182 75t-70 196q0 123 70 198.5t182 75.5q166 0 223 -142v244h-218v37h218v106h48v-106h88zM314 32q95 0 153.5 63.5t58.5 166.5q0 104 -58.5 167.5t-153.5 63.5q-96 0 -154 -64t-58 -168
t58 -166.5t154 -62.5z" />
    <glyph glyph-name="Emacron" unicode="&#x112;" 
d="M472 910v-40h-293v40h293zM158 43h396v-43h-448v740h439v-43h-387v-297h364v-44h-364v-313z" />
    <glyph glyph-name="emacron" unicode="&#x113;" horiz-adv-x="583" 
d="M442 695v-40h-293v40h293zM537 269v-25h-433q5 -98 56 -156.5t136 -58.5q112 0 187 100l36 -23q-81 -116 -222 -116q-110 0 -177.5 75.5t-67.5 198.5q0 122 66.5 196.5t176.5 74.5q109 0 175.5 -73.5t66.5 -192.5zM295 495q-85 0 -136.5 -58t-55.5 -157h384
q-4 98 -55.5 156.5t-136.5 58.5z" />
    <glyph glyph-name="Edotaccent" unicode="&#x116;" 
d="M325 890q-16 0 -26.5 10.5t-10.5 26.5q0 15 10.5 25.5t26.5 10.5q15 0 25.5 -10.5t10.5 -25.5q0 -16 -10.5 -26.5t-25.5 -10.5zM158 43h396v-43h-448v740h439v-43h-387v-297h364v-44h-364v-313z" />
    <glyph glyph-name="edotaccent" unicode="&#x117;" horiz-adv-x="583" 
d="M295 675q-16 0 -26.5 10.5t-10.5 26.5q0 15 10.5 25.5t26.5 10.5q15 0 25.5 -10.5t10.5 -25.5q0 -16 -10.5 -26.5t-25.5 -10.5zM537 269v-25h-433q5 -98 56 -156.5t136 -58.5q112 0 187 100l36 -23q-81 -116 -222 -116q-110 0 -177.5 75.5t-67.5 198.5q0 122 66.5 196.5
t176.5 74.5q109 0 175.5 -73.5t66.5 -192.5zM295 495q-85 0 -136.5 -58t-55.5 -157h384q-4 98 -55.5 156.5t-136.5 58.5z" />
    <glyph glyph-name="Eogonek" unicode="&#x118;" 
d="M551 -172l6 -30q-32 -28 -76 -28q-36 0 -58.5 20.5t-22.5 54.5q0 77 108 155h-402v740h439v-43h-387v-297h364v-44h-364v-313h396v-43q-113 -75 -113 -150q0 -21 13 -34.5t35 -13.5q34 0 62 26z" />
    <glyph glyph-name="eogonek" unicode="&#x119;" horiz-adv-x="583" 
d="M537 269v-25h-433q5 -98 56 -156.5t136 -58.5q112 0 187 100l36 -23q-57 -81 -147 -106q-113 -75 -113 -150q0 -21 13 -34.5t35 -13.5q34 0 62 26l6 -30q-32 -28 -76 -28q-36 0 -58.5 20.5t-22.5 54.5q0 72 95 145h-16q-110 0 -177.5 75.5t-67.5 198.5q0 122 66.5 196.5
t176.5 74.5q109 0 175.5 -73.5t66.5 -192.5zM295 495q-85 0 -136.5 -58t-55.5 -157h384q-4 98 -55.5 156.5t-136.5 58.5z" />
    <glyph glyph-name="Ecaron" unicode="&#x11a;" 
d="M351 835h-53l-129 145h49l107 -116l106 116h48zM158 43h396v-43h-448v740h439v-43h-387v-297h364v-44h-364v-313z" />
    <glyph glyph-name="ecaron" unicode="&#x11b;" horiz-adv-x="583" 
d="M321 620h-53l-129 145h49l107 -116l106 116h48zM537 269v-25h-433q5 -98 56 -156.5t136 -58.5q112 0 187 100l36 -23q-81 -116 -222 -116q-110 0 -177.5 75.5t-67.5 198.5q0 122 66.5 196.5t176.5 74.5q109 0 175.5 -73.5t66.5 -192.5zM295 495q-85 0 -136.5 -58
t-55.5 -157h384q-4 98 -55.5 156.5t-136.5 58.5z" />
    <glyph glyph-name="Gbreve" unicode="&#x11e;" horiz-adv-x="791" 
d="M412 825q-69 0 -111 42.5t-42 112.5h42q0 -55 30.5 -89t80.5 -34q49 0 79.5 34t30.5 89h42q0 -70 -42 -112.5t-110 -42.5zM755 384v-14q0 -175 -92.5 -277.5t-250.5 -102.5q-160 0 -257.5 104.5t-97.5 275.5t97.5 275.5t257.5 104.5q142 0 242 -74l-34 -34
q-83 65 -207 65q-136 0 -219 -93t-83 -244t83 -244t219 -93q128 0 205.5 83.5t82.5 223.5h-252v44h306z" />
    <glyph glyph-name="gbreve" unicode="&#x11f;" horiz-adv-x="660" 
d="M326 610q-69 0 -111 42.5t-42 112.5h42q0 -55 30.5 -89t80.5 -34q49 0 79.5 34t30.5 89h42q0 -70 -42 -112.5t-110 -42.5zM528 525h47v-492q0 -118 -77 -190.5t-203 -72.5q-141 0 -229 70l11 39q92 -67 217 -67q105 0 169 62t64 164v94q-57 -142 -223 -142
q-112 0 -182 75.5t-70 198.5q0 121 70 196t182 75q166 0 223 -142v8zM315 32q95 0 153.5 63.5t58.5 166.5q0 104 -58.5 167.5t-153.5 63.5q-96 0 -154 -63t-58 -167t58 -167.5t154 -63.5z" />
    <glyph glyph-name="Gdotaccent" unicode="&#x120;" horiz-adv-x="791" 
d="M412 890q-16 0 -26.5 10.5t-10.5 26.5q0 15 10.5 25.5t26.5 10.5q15 0 25.5 -10.5t10.5 -25.5q0 -16 -10.5 -26.5t-25.5 -10.5zM755 384v-14q0 -175 -92.5 -277.5t-250.5 -102.5q-160 0 -257.5 104.5t-97.5 275.5t97.5 275.5t257.5 104.5q142 0 242 -74l-34 -34
q-83 65 -207 65q-136 0 -219 -93t-83 -244t83 -244t219 -93q128 0 205.5 83.5t82.5 223.5h-252v44h306z" />
    <glyph glyph-name="gdotaccent" unicode="&#x121;" horiz-adv-x="660" 
d="M326 675q-16 0 -26.5 10.5t-10.5 26.5q0 15 10.5 25.5t26.5 10.5q15 0 25.5 -10.5t10.5 -25.5q0 -16 -10.5 -26.5t-25.5 -10.5zM528 525h47v-492q0 -118 -77 -190.5t-203 -72.5q-141 0 -229 70l11 39q92 -67 217 -67q105 0 169 62t64 164v94q-57 -142 -223 -142
q-112 0 -182 75.5t-70 198.5q0 121 70 196t182 75q166 0 223 -142v8zM315 32q95 0 153.5 63.5t58.5 166.5q0 104 -58.5 167.5t-153.5 63.5q-96 0 -154 -63t-58 -167t58 -167.5t154 -63.5z" />
    <glyph glyph-name="Gcommaaccent" unicode="&#x122;" horiz-adv-x="791" 
d="M755 384v-14q0 -175 -92.5 -277.5t-250.5 -102.5q-160 0 -257.5 104.5t-97.5 275.5t97.5 275.5t257.5 104.5q142 0 242 -74l-34 -34q-83 65 -207 65q-136 0 -219 -93t-83 -244t83 -244t219 -93q128 0 205.5 83.5t82.5 223.5h-252v44h306zM335 -220l56 168h47l-65 -168
h-38z" />
    <glyph glyph-name="gcommaaccent" unicode="&#x123;" horiz-adv-x="660" 
d="M399 780l-63 -187h-47l71 187h39zM528 525h47v-492q0 -118 -77 -190.5t-203 -72.5q-141 0 -229 70l11 39q92 -67 217 -67q105 0 169 62t64 164v94q-57 -142 -223 -142q-112 0 -182 75.5t-70 198.5q0 121 70 196t182 75q166 0 223 -142v8zM315 32q95 0 153.5 63.5
t58.5 166.5q0 104 -58.5 167.5t-153.5 63.5q-96 0 -154 -63t-58 -167t58 -167.5t154 -63.5z" />
    <glyph glyph-name="Hbar" unicode="&#x126;" horiz-adv-x="796" 
d="M778 598v-37h-89v-561h-51v354h-480v-354h-52v561h-91v37h91v142h52v-142h480v142h51v-142h89zM638 397v164h-480v-164h480z" />
    <glyph glyph-name="hbar" unicode="&#x127;" horiz-adv-x="629" 
d="M332 535q98 0 158 -56t60 -148v-331h-48v320q0 78 -50.5 125.5t-133.5 47.5t-133.5 -47.5t-50.5 -125.5v-320h-48v637h-88v37h88v106h48v-106h218v-37h-218v-213q51 111 198 111z" />
    <glyph glyph-name="Imacron" unicode="&#x12a;" horiz-adv-x="264" 
d="M-14 870v40h293v-40h-293zM106 0v740h52v-740h-52z" />
    <glyph glyph-name="imacron" unicode="&#x12b;" horiz-adv-x="224" 
d="M-34 655v40h293v-40h-293zM88 0v525h48v-525h-48z" />
    <glyph glyph-name="Iogonek" unicode="&#x12e;" horiz-adv-x="264" 
d="M155 -172l6 -30q-32 -28 -76 -28q-36 0 -58.5 20.5t-22.5 54.5q0 77 108 155h-6v740h52v-740q-113 -75 -113 -150q0 -21 13 -34.5t35 -13.5q34 0 62 26z" />
    <glyph glyph-name="iogonek" unicode="&#x12f;" horiz-adv-x="224" 
d="M112 675q-16 0 -26.5 10.5t-10.5 26.5q0 15 10.5 25.5t26.5 10.5q15 0 25.5 -10.5t10.5 -25.5q0 -16 -10.5 -26.5t-25.5 -10.5zM71 -198q34 0 62 26l6 -30q-32 -28 -76 -28q-36 0 -58.5 20.5t-22.5 54.5q0 77 108 155h-2v525h48v-525q-113 -75 -113 -150q0 -21 13 -34.5
t35 -13.5z" />
    <glyph glyph-name="Idotaccent" unicode="&#x130;" horiz-adv-x="264" 
d="M132 890q-16 0 -26.5 10.5t-10.5 26.5q0 15 10.5 25.5t26.5 10.5q15 0 25.5 -10.5t10.5 -25.5q0 -16 -10.5 -26.5t-25.5 -10.5zM106 0v740h52v-740h-52z" />
    <glyph glyph-name="dotlessi" unicode="&#x131;" horiz-adv-x="224" 
d="M88 0v525h48v-525h-48z" />
    <glyph glyph-name="Kcommaaccent" unicode="&#x136;" horiz-adv-x="667" 
d="M364 379l293 -379h-64l-275 358h-160v-358h-52v740h52v-339h161l265 339h64zM286 -220l56 168h47l-65 -168h-38z" />
    <glyph glyph-name="kcommaaccent" unicode="&#x137;" horiz-adv-x="556" 
d="M305 275l245 -275h-62l-223 255h-131v-255h-48v780h48v-484h131l211 229h62zM213 -220l56 168h47l-65 -168h-38z" />
    <glyph glyph-name="Lacute" unicode="&#x139;" horiz-adv-x="530" 
d="M292 980l-147 -145h-44l128 145h63zM158 43h358v-43h-410v740h52v-697z" />
    <glyph glyph-name="lacute" unicode="&#x13a;" horiz-adv-x="228" 
d="M83 875l128 145h63l-147 -145h-44zM90 0v780h48v-780h-48z" />
    <glyph glyph-name="Lcommaaccent" unicode="&#x13b;" horiz-adv-x="530" 
d="M158 43h358v-43h-410v740h52v-697zM216 -220l56 168h47l-65 -168h-38z" />
    <glyph glyph-name="lcommaaccent" unicode="&#x13c;" horiz-adv-x="228" 
d="M90 0v780h48v-780h-48zM43 -220l56 168h47l-65 -168h-38z" />
    <glyph glyph-name="Lcaron" unicode="&#x13d;" horiz-adv-x="517" 
d="M158 43h358v-43h-410v740h52v-697zM457 740l-72 -194h-43l64 194h51z" />
    <glyph glyph-name="lcaron" unicode="&#x13e;" horiz-adv-x="232" 
d="M90 0v780h48v-780h-48zM186 593l63 187h46l-71 -187h-38z" />
    <glyph glyph-name="Lslash" unicode="&#x141;" horiz-adv-x="530" 
d="M158 43h358v-43h-410v358l-82 -58v43l82 58v339h52v-309l111 77v-43l-111 -77v-345z" />
    <glyph glyph-name="lslash" unicode="&#x142;" horiz-adv-x="228" 
d="M235 508v-43l-97 -67v-398h-48v370l-100 -70v43l100 70v367h48v-339z" />
    <glyph glyph-name="Nacute" unicode="&#x143;" horiz-adv-x="829" 
d="M383 835l128 145h63l-147 -145h-44zM106 0v740h34l532 -649v649h51v-740h-34l-532 649l1 -649h-52z" />
    <glyph glyph-name="nacute" unicode="&#x144;" horiz-adv-x="629" 
d="M479 765l-147 -145h-44l128 145h63zM332 535q98 0 158 -56t60 -148v-331h-48v320q0 78 -50.5 125.5t-133.5 47.5t-133.5 -47.5t-50.5 -125.5v-320h-48v525h47l1 -102q50 112 198 112z" />
    <glyph glyph-name="Ncommaaccent" unicode="&#x145;" horiz-adv-x="829" 
d="M106 0v740h34l532 -649v649h51v-740h-34l-532 649l1 -649h-52zM344 -220l56 168h47l-65 -168h-38z" />
    <glyph glyph-name="ncommaaccent" unicode="&#x146;" horiz-adv-x="629" 
d="M332 535q98 0 158 -56t60 -148v-331h-48v320q0 78 -50.5 125.5t-133.5 47.5t-133.5 -47.5t-50.5 -125.5v-320h-48v525h47l1 -102q50 112 198 112zM247 -220l56 168h47l-65 -168h-38z" />
    <glyph glyph-name="Ncaron" unicode="&#x147;" horiz-adv-x="829" 
d="M440 835h-53l-129 145h49l107 -116l106 116h48zM672 740h51v-740h-34l-532 649l1 -649h-52v740h34l532 -649v649z" />
    <glyph glyph-name="ncaron" unicode="&#x148;" horiz-adv-x="629" 
d="M345 620h-53l-129 145h49l107 -116l106 116h48zM332 535q98 0 158 -56t60 -148v-331h-48v320q0 78 -50.5 125.5t-133.5 47.5t-133.5 -47.5t-50.5 -125.5v-320h-48v525h47l1 -102q50 112 198 112z" />
    <glyph glyph-name="Eng" unicode="&#x14a;" horiz-adv-x="829" 
d="M672 740h51v-822q0 -67 -43 -107.5t-117 -40.5q-85 0 -130 50l14 36q44 -43 110 -43q53 0 84 32t31 84v92l-515 628l1 -649h-52v740h34l532 -649v649z" />
    <glyph glyph-name="eng" unicode="&#x14b;" horiz-adv-x="629" 
d="M332 535q98 0 158 -56t60 -148v-413q0 -67 -39 -107.5t-102 -40.5q-51 0 -84 15l4 40q29 -13 70 -13q46 0 74.5 32t28.5 84v392q0 78 -50.5 125.5t-133.5 47.5t-133.5 -47.5t-50.5 -125.5v-320h-48v525h47l1 -102q50 112 198 112z" />
    <glyph glyph-name="Omacron" unicode="&#x14c;" horiz-adv-x="837" 
d="M273 870v40h293v-40h-293zM419 -10q-163 0 -263 104.5t-100 275.5t100 275.5t263 104.5t262.5 -104.5t99.5 -275.5t-99.5 -275.5t-262.5 -104.5zM419 33q139 0 223.5 92.5t84.5 244.5t-84.5 244.5t-223.5 92.5t-224 -93t-85 -244t85 -244t224 -93z" />
    <glyph glyph-name="omacron" unicode="&#x14d;" horiz-adv-x="627" 
d="M168 655v40h293v-40h-293zM314 -10q-118 0 -190.5 75t-72.5 197q0 123 72.5 198t190.5 75t190 -75t72 -198q0 -122 -72 -197t-190 -75zM314 32q95 0 153.5 63.5t58.5 166.5q0 104 -58.5 167.5t-153.5 63.5q-96 0 -154 -63.5t-58 -167.5t58 -167t154 -63z" />
    <glyph glyph-name="Ohungarumlaut" unicode="&#x150;" horiz-adv-x="837" 
d="M325 835l106 145h62l-124 -145h-44zM456 835l106 145h62l-124 -145h-44zM419 -10q-163 0 -263 104.5t-100 275.5t100 275.5t263 104.5t262.5 -104.5t99.5 -275.5t-99.5 -275.5t-262.5 -104.5zM419 33q139 0 223.5 92.5t84.5 244.5t-84.5 244.5t-223.5 92.5t-224 -93
t-85 -244t85 -244t224 -93z" />
    <glyph glyph-name="ohungarumlaut" unicode="&#x151;" horiz-adv-x="627" 
d="M220 620l106 145h62l-124 -145h-44zM351 620l106 145h62l-124 -145h-44zM314 -10q-118 0 -190.5 75t-72.5 197q0 123 72.5 198t190.5 75t190 -75t72 -198q0 -122 -72 -197t-190 -75zM314 32q95 0 153.5 63.5t58.5 166.5q0 104 -58.5 167.5t-153.5 63.5q-96 0 -154 -63.5
t-58 -167.5t58 -167t154 -63z" />
    <glyph glyph-name="OE" unicode="&#x152;" horiz-adv-x="1239" 
d="M781 43h397v-43h-448v176q-43 -88 -124.5 -137t-188.5 -49q-163 0 -262 104.5t-99 275.5t99 275.5t262 104.5q107 0 188.5 -49t124.5 -137v176h438v-43h-387v-297h365v-44h-365v-313zM419 33q139 0 223.5 92.5t84.5 244.5t-84.5 244.5t-223.5 92.5t-224 -93t-85 -244
t85 -244t224 -93z" />
    <glyph glyph-name="oe" unicode="&#x153;" horiz-adv-x="1057" 
d="M1011 269v-25h-434q5 -98 56.5 -156.5t136.5 -58.5q112 0 187 100l36 -23q-81 -116 -220 -116q-82 0 -140 45.5t-82 125.5q-25 -80 -88 -125.5t-151 -45.5q-118 0 -189.5 75t-71.5 197q0 123 71.5 198t189.5 75q87 0 150 -45.5t89 -124.5q23 79 81 124.5t139 45.5
q108 0 174 -73.5t66 -192.5zM769 495q-85 0 -136.5 -58t-56.5 -157h385q-4 98 -55.5 156.5t-136.5 58.5zM314 32q95 0 153.5 63.5t58.5 166.5q0 104 -58.5 167.5t-153.5 63.5t-153.5 -63.5t-58.5 -167.5q0 -103 58.5 -166.5t153.5 -63.5z" />
    <glyph glyph-name="Racute" unicode="&#x154;" horiz-adv-x="686" 
d="M485 980l-147 -145h-44l128 145h63zM658 0h-61l-208 314q-8 -1 -24 -1h-207v-313h-52v740h259q110 0 177 -58.5t67 -155.5q0 -77 -44.5 -131t-122.5 -73zM361 356q87 0 140.5 47t53.5 123q0 77 -54 124t-143 47h-200v-341h203z" />
    <glyph glyph-name="racute" unicode="&#x155;" horiz-adv-x="356" 
d="M363 765l-147 -145h-44l128 145h63zM134 424q50 111 214 111l-4 -44q-100 0 -155 -47.5t-55 -130.5v-313h-48v525h47z" />
    <glyph glyph-name="Rcommaaccent" unicode="&#x156;" horiz-adv-x="686" 
d="M658 0h-61l-208 314q-8 -1 -24 -1h-207v-313h-52v740h259q110 0 177 -58.5t67 -155.5q0 -77 -44.5 -131t-122.5 -73zM361 356q87 0 140.5 47t53.5 123q0 77 -54 124t-143 47h-200v-341h203zM279 -220l56 168h47l-65 -168h-38z" />
    <glyph glyph-name="rcommaaccent" unicode="&#x157;" horiz-adv-x="356" 
d="M134 424q50 111 214 111l-4 -44q-100 0 -155 -47.5t-55 -130.5v-313h-48v525h47zM53 -220l56 168h47l-65 -168h-38z" />
    <glyph glyph-name="Rcaron" unicode="&#x158;" horiz-adv-x="686" 
d="M351 835h-53l-129 145h49l107 -116l106 116h48zM658 0h-61l-208 314q-8 -1 -24 -1h-207v-313h-52v740h259q110 0 177 -58.5t67 -155.5q0 -77 -44.5 -131t-122.5 -73zM361 356q87 0 140.5 47t53.5 123q0 77 -54 124t-143 47h-200v-341h203z" />
    <glyph glyph-name="rcaron" unicode="&#x159;" horiz-adv-x="356" 
d="M229 620h-53l-129 145h49l107 -116l106 116h48zM134 424q50 111 214 111l-4 -44q-100 0 -155 -47.5t-55 -130.5v-313h-48v525h47z" />
    <glyph glyph-name="Sacute" unicode="&#x15a;" horiz-adv-x="611" 
d="M276 835l128 145h63l-147 -145h-44zM298 -10q-158 0 -233 84l23 37q77 -78 205 -78q95 0 152.5 40.5t57.5 108.5q0 64 -52 102t-154 68l-52 16q-86 25 -135 67t-49 120q0 88 67 141.5t178 53.5q140 0 223 -85l-26 -37q-77 79 -199 79q-85 0 -137 -40t-52 -105
q0 -62 41.5 -94t116.5 -54l55 -17q48 -14 81 -28t71 -38.5t58 -61t20 -83.5q0 -88 -72 -142t-188 -54z" />
    <glyph glyph-name="sacute" unicode="&#x15b;" horiz-adv-x="468" 
d="M199 620l128 145h63l-147 -145h-44zM228 -10q-117 0 -173 53l22 31q57 -45 151 -45q63 0 101.5 28.5t38.5 75.5q0 74 -118 107l-61 18q-67 19 -101.5 49t-34.5 84q0 64 48.5 104t127.5 40q99 0 172 -45l-22 -35q-61 40 -146 40q-58 0 -94 -26.5t-36 -71.5q0 -39 27 -61.5
t78 -36.5l62 -18q148 -43 148 -145q0 -66 -51.5 -106t-138.5 -40z" />
    <glyph glyph-name="Scedilla" unicode="&#x15e;" horiz-adv-x="611" 
d="M558 186q0 -81 -62 -134t-164 -61l-40 -62q16 2 25 2q48 0 76.5 -21.5t28.5 -56.5q0 -38 -31.5 -60.5t-84.5 -22.5q-63 0 -93 30l12 25q25 -26 77 -26q36 0 58 15t22 39q0 23 -21.5 37t-56.5 14q-26 0 -49 -9l-9 17l50 78q-156 0 -231 84l23 37q77 -78 205 -78
q95 0 152.5 40.5t57.5 108.5q0 64 -52 102t-154 68l-52 16q-86 25 -135 67t-49 120q0 88 67 141.5t178 53.5q140 0 223 -85l-26 -37q-77 79 -199 79q-85 0 -137 -40t-52 -105q0 -62 41.5 -94t116.5 -54l55 -17q48 -14 81 -28t71 -38.5t58 -61t20 -83.5z" />
    <glyph glyph-name="scedilla" unicode="&#x15f;" horiz-adv-x="468" 
d="M418 136q0 -61 -44.5 -100t-120.5 -45l-40 -62q16 2 25 2q48 0 76.5 -21.5t28.5 -56.5q0 -38 -31.5 -60.5t-84.5 -22.5q-63 0 -93 30l12 25q25 -26 77 -26q36 0 58 15t22 39q0 23 -21.5 37t-56.5 14q-27 0 -49 -9l-9 17l50 78q-109 3 -162 53l22 31q57 -45 151 -45
q63 0 101.5 28.5t38.5 75.5q0 74 -118 107l-61 18q-67 19 -101.5 49t-34.5 84q0 64 48.5 104t127.5 40q99 0 172 -45l-22 -35q-61 40 -146 40q-58 0 -94 -26.5t-36 -71.5q0 -39 27 -61.5t78 -36.5l62 -18q148 -43 148 -145z" />
    <glyph glyph-name="Scaron" unicode="&#x160;" horiz-adv-x="611" 
d="M333 835h-53l-129 145h49l107 -116l106 116h48zM328 397q48 -14 81 -28t71 -38.5t58 -61t20 -83.5q0 -88 -72 -142t-188 -54q-158 0 -233 84l23 37q77 -78 205 -78q95 0 152.5 40.5t57.5 108.5q0 64 -52 102t-154 68l-52 16q-86 25 -135 67t-49 120q0 88 67 141.5
t178 53.5q140 0 223 -85l-26 -37q-77 79 -199 79q-85 0 -137 -40t-52 -105q0 -62 41.5 -94t116.5 -54z" />
    <glyph glyph-name="scaron" unicode="&#x161;" horiz-adv-x="468" 
d="M256 620h-53l-129 145h49l107 -116l106 116h48zM270 281q148 -43 148 -145q0 -66 -51.5 -106t-138.5 -40q-117 0 -173 53l22 31q57 -45 151 -45q63 0 101.5 28.5t38.5 75.5q0 74 -118 107l-61 18q-67 19 -101.5 49t-34.5 84q0 64 48.5 104t127.5 40q99 0 172 -45l-22 -35
q-61 40 -146 40q-58 0 -94 -26.5t-36 -71.5q0 -39 27 -61.5t78 -36.5z" />
    <glyph glyph-name="uni0162" unicode="&#x162;" horiz-adv-x="564" 
d="M307 0h-7l-46 -71q16 2 25 2q48 0 76.5 -21.5t28.5 -56.5q0 -38 -31.5 -60.5t-84.5 -22.5q-63 0 -93 30l12 25q25 -26 77 -26q36 0 58 15t22 39q0 23 -21.5 37t-56.5 14q-26 0 -49 -9l-9 17l56 88h-8v697h-243v43h538v-43h-244v-697z" />
    <glyph glyph-name="uni0163" unicode="&#x163;" horiz-adv-x="377" 
d="M245 -10q-17 0 -32 3l-41 -64q16 2 25 2q48 0 77 -21.5t29 -56.5q0 -38 -32 -60.5t-84 -22.5q-62 0 -94 30l13 25q25 -26 76 -26q37 0 59 15t22 39q0 23 -21.5 37t-56.5 14q-27 0 -49 -9l-9 17l56 91q-34 15 -53.5 47.5t-19.5 76.5v357h-94v41h94v154h48v-154h203v-41
h-203v-348q0 -46 28 -75t73 -29q57 0 110 19v-40q-46 -21 -124 -21z" />
    <glyph glyph-name="Tcaron" unicode="&#x164;" horiz-adv-x="564" 
d="M307 835h-53l-129 145h49l107 -116l106 116h48zM551 740v-43h-244v-697h-51v697h-243v43h538z" />
    <glyph glyph-name="tcaron" unicode="&#x165;" horiz-adv-x="377" 
d="M354 780l-71 -187h-38l63 187h46zM259 32q57 0 110 19v-40q-46 -21 -124 -21q-61 0 -98 37.5t-37 99.5v357h-94v41h94v154h48v-154h203v-41h-203v-348q0 -46 28 -75t73 -29z" />
    <glyph glyph-name="Tbar" unicode="&#x166;" horiz-adv-x="564" 
d="M551 697h-244v-317h156v-37h-156v-343h-51v343h-147v37h147v317h-243v43h538v-43z" />
    <glyph glyph-name="tbar" unicode="&#x167;" horiz-adv-x="386" 
d="M259 32q57 0 110 19v-40q-46 -21 -124 -21q-61 0 -98 37.5t-37 99.5v133h-83v37h83v187h-94v41h94v154h48v-154h203v-41h-203v-187h202v-37h-202v-124q0 -46 28 -75t73 -29z" />
    <glyph glyph-name="Umacron" unicode="&#x16a;" horiz-adv-x="786" 
d="M247 870v40h293v-40h-293zM393 -10q-133 0 -214.5 73.5t-81.5 194.5v482h51v-480q0 -102 67.5 -164.5t177.5 -62.5t177.5 62.5t67.5 164.5v480h52v-482q0 -121 -81.5 -194.5t-215.5 -73.5z" />
    <glyph glyph-name="umacron" unicode="&#x16b;" horiz-adv-x="618" 
d="M453 695v-40h-293v40h293zM484 525h48v-525h-47l-1 100q-49 -110 -192 -110q-95 0 -153.5 56t-58.5 147v332h48v-320q0 -78 49 -125.5t129 -47.5t129 47.5t49 125.5v320z" />
    <glyph glyph-name="Uring" unicode="&#x16e;" horiz-adv-x="786" 
d="M393 799q-47 0 -76.5 28.5t-29.5 75.5t29.5 75.5t76.5 28.5t76.5 -28.5t29.5 -75.5t-29.5 -75.5t-76.5 -28.5zM393 827q33 0 52.5 20.5t19.5 55.5t-19.5 56t-52.5 21t-52.5 -21t-19.5 -56t19.5 -55.5t52.5 -20.5zM393 -10q-133 0 -214.5 73.5t-81.5 194.5v482h51v-480
q0 -102 67.5 -164.5t177.5 -62.5t177.5 62.5t67.5 164.5v480h52v-482q0 -121 -81.5 -194.5t-215.5 -73.5z" />
    <glyph glyph-name="uring" unicode="&#x16f;" horiz-adv-x="618" 
d="M306 584q-47 0 -76.5 28.5t-29.5 75.5t29.5 75.5t76.5 28.5t76.5 -28.5t29.5 -75.5t-29.5 -75.5t-76.5 -28.5zM306 765q-33 0 -52.5 -21t-19.5 -56t19.5 -55.5t52.5 -20.5t52.5 20.5t19.5 55.5t-19.5 56t-52.5 21zM484 525h48v-525h-47l-1 100q-49 -110 -192 -110
q-95 0 -153.5 56t-58.5 147v332h48v-320q0 -78 49 -125.5t129 -47.5t129 47.5t49 125.5v320z" />
    <glyph glyph-name="Uhungarumlaut" unicode="&#x170;" horiz-adv-x="786" 
d="M299 835l106 145h62l-124 -145h-44zM430 835l106 145h62l-124 -145h-44zM393 -10q-133 0 -214.5 73.5t-81.5 194.5v482h51v-480q0 -102 67.5 -164.5t177.5 -62.5t177.5 62.5t67.5 164.5v480h52v-482q0 -121 -81.5 -194.5t-215.5 -73.5z" />
    <glyph glyph-name="uhungarumlaut" unicode="&#x171;" horiz-adv-x="618" 
d="M380 765l-124 -145h-44l106 145h62zM387 620h-44l106 145h62zM484 525h48v-525h-47l-1 100q-49 -110 -192 -110q-95 0 -153.5 56t-58.5 147v332h48v-320q0 -78 49 -125.5t129 -47.5t129 47.5t49 125.5v320z" />
    <glyph glyph-name="Uogonek" unicode="&#x172;" horiz-adv-x="786" 
d="M638 740h52v-482q0 -99 -56 -167t-152 -91q-113 -75 -113 -150q0 -21 13 -34.5t35 -13.5q34 0 62 26l6 -30q-32 -28 -76 -28q-36 0 -58.5 20.5t-22.5 54.5q0 73 96 146q-10 -1 -31 -1q-133 0 -214.5 73.5t-81.5 194.5v482h51v-480q0 -102 67.5 -164.5t177.5 -62.5
t177.5 62.5t67.5 164.5v480z" />
    <glyph glyph-name="uogonek" unicode="&#x173;" horiz-adv-x="618" 
d="M529 -172l6 -30q-32 -28 -76 -28q-36 0 -58.5 20.5t-22.5 54.5q0 77 108 155h-1l-1 100q-49 -110 -192 -110q-95 0 -153.5 56t-58.5 147v332h48v-320q0 -78 49 -125.5t129 -47.5t129 47.5t49 125.5v320h48v-525q-113 -75 -113 -150q0 -21 13 -34.5t35 -13.5q34 0 62 26z
" />
    <glyph glyph-name="Wcircumflex" unicode="&#x174;" horiz-adv-x="1092" 
d="M546 951l-107 -116h-49l129 145h53l128 -145h-48zM1025 740h55l-268 -740h-49l-217 664l-217 -664h-50l-268 740h56l239 -671l215 671h50l216 -671z" />
    <glyph glyph-name="wcircumflex" unicode="&#x175;" horiz-adv-x="910" 
d="M456 736l-107 -116h-49l129 145h53l128 -145h-48zM840 525h54l-209 -525h-49l-181 468l-181 -468h-49l-209 525h54l182 -469l181 469h44l181 -469z" />
    <glyph glyph-name="Ycircumflex" unicode="&#x176;" horiz-adv-x="643" 
d="M323 951l-107 -116h-49l129 145h53l128 -145h-48zM567 740h58l-278 -430v-310h-51v310l-278 430h58l246 -383z" />
    <glyph glyph-name="ycircumflex" unicode="&#x177;" horiz-adv-x="555" 
d="M280 736l-107 -116h-49l129 145h53l128 -145h-48zM489 525h54l-294 -643q-26 -58 -52.5 -85t-73.5 -27q-34 0 -58 11l6 40q18 -9 44 -9q32 0 50 18t37 58l54 117l-240 520h54l212 -467z" />
    <glyph glyph-name="Ydieresis" unicode="&#x178;" horiz-adv-x="643" 
d="M229 890q-16 0 -26.5 10.5t-10.5 26.5q0 15 10.5 25.5t26.5 10.5q15 0 25.5 -10.5t10.5 -25.5q0 -16 -10.5 -26.5t-25.5 -10.5zM416 890q-15 0 -25.5 10.5t-10.5 26.5q0 15 10.5 25.5t25.5 10.5q16 0 26 -10.5t10 -25.5q0 -16 -10 -26.5t-26 -10.5zM567 740h58l-278 -430
v-310h-51v310l-278 430h58l246 -383z" />
    <glyph glyph-name="Zacute" unicode="&#x179;" horiz-adv-x="613" 
d="M465 980l-147 -145h-44l128 145h63zM103 43h477v-43h-546v34l467 663h-461v43h530v-34z" />
    <glyph glyph-name="zacute" unicode="&#x17a;" horiz-adv-x="498" 
d="M215 620l128 145h63l-147 -145h-44zM37 0v33l347 451h-342v41h409v-33l-346 -451h360v-41h-428z" />
    <glyph glyph-name="Zdotaccent" unicode="&#x17b;" horiz-adv-x="613" 
d="M305 890q-16 0 -26.5 10.5t-10.5 26.5q0 15 10.5 25.5t26.5 10.5q15 0 25.5 -10.5t10.5 -25.5q0 -16 -10.5 -26.5t-25.5 -10.5zM103 43h477v-43h-546v34l467 663h-461v43h530v-34z" />
    <glyph glyph-name="zdotaccent" unicode="&#x17c;" horiz-adv-x="498" 
d="M246 675q-16 0 -26.5 10.5t-10.5 26.5q0 15 10.5 25.5t26.5 10.5q15 0 25.5 -10.5t10.5 -25.5q0 -16 -10.5 -26.5t-25.5 -10.5zM37 0v33l347 451h-342v41h409v-33l-346 -451h360v-41h-428z" />
    <glyph glyph-name="Zcaron" unicode="&#x17d;" horiz-adv-x="613" 
d="M331 835h-53l-129 145h49l107 -116l106 116h48zM103 43h477v-43h-546v34l467 663h-461v43h530v-34z" />
    <glyph glyph-name="zcaron" unicode="&#x17e;" horiz-adv-x="498" 
d="M272 620h-53l-129 145h49l107 -116l106 116h48zM105 41h360v-41h-428v33l347 451h-342v41h409v-33z" />
    <glyph glyph-name="florin" unicode="&#x192;" horiz-adv-x="466" 
d="M369 707q-49 0 -85 -31.5t-46 -87.5l-39 -222h209v-43h-217l-74 -423h-50l74 423h-88v43h95l41 233q13 73 61 112t121 39q40 0 74 -13l-7 -41q-29 11 -69 11z" />
    <glyph glyph-name="Scommaaccent" unicode="&#x218;" horiz-adv-x="611" 
d="M298 -10q-158 0 -233 84l23 37q77 -78 205 -78q95 0 152.5 40.5t57.5 108.5q0 64 -52 102t-154 68l-52 16q-86 25 -135 67t-49 120q0 88 67 141.5t178 53.5q140 0 223 -85l-26 -37q-77 79 -199 79q-85 0 -137 -40t-52 -105q0 -62 41.5 -94t116.5 -54l55 -17
q48 -14 81 -28t71 -38.5t58 -61t20 -83.5q0 -88 -72 -142t-188 -54zM248 -220l56 168h47l-65 -168h-38z" />
    <glyph glyph-name="scommaaccent" unicode="&#x219;" horiz-adv-x="468" 
d="M228 -10q-117 0 -173 53l22 31q57 -45 151 -45q63 0 101.5 28.5t38.5 75.5q0 74 -118 107l-61 18q-67 19 -101.5 49t-34.5 84q0 64 48.5 104t127.5 40q99 0 172 -45l-22 -35q-61 40 -146 40q-58 0 -94 -26.5t-36 -71.5q0 -39 27 -61.5t78 -36.5l62 -18q148 -43 148 -145
q0 -66 -51.5 -106t-138.5 -40zM169 -220l56 168h47l-65 -168h-38z" />
    <glyph glyph-name="uni021A" unicode="&#x21a;" horiz-adv-x="564" 
d="M551 740v-43h-244v-697h-51v697h-243v43h538zM210 -220l56 168h47l-65 -168h-38z" />
    <glyph glyph-name="uni021B" unicode="&#x21b;" horiz-adv-x="377" 
d="M259 32q57 0 110 19v-40q-46 -21 -124 -21q-61 0 -98 37.5t-37 99.5v357h-94v41h94v154h48v-154h203v-41h-203v-348q0 -46 28 -75t73 -29zM135 -220l56 168h47l-65 -168h-38z" />
    <glyph glyph-name="circumflex" unicode="&#x2c6;" horiz-adv-x="600" 
d="M356 620h-48l-106 116l-107 -116h-49l129 145h53z" />
    <glyph glyph-name="caron" unicode="&#x2c7;" horiz-adv-x="600" 
d="M308 765h48l-128 -145h-53l-129 145h49l107 -116z" />
    <glyph glyph-name="breve" unicode="&#x2d8;" horiz-adv-x="600" 
d="M198 610q-69 0 -111 42.5t-42 112.5h42q0 -55 30.5 -89t80.5 -34q49 0 79.5 34t30.5 89h42q0 -70 -42 -112.5t-110 -42.5z" />
    <glyph glyph-name="dotaccent" unicode="&#x2d9;" horiz-adv-x="600" 
d="M109 675q-16 0 -26.5 10.5t-10.5 26.5q0 15 10.5 25.5t26.5 10.5q15 0 25.5 -10.5t10.5 -25.5q0 -16 -10.5 -26.5t-25.5 -10.5z" />
    <glyph glyph-name="ring" unicode="&#x2da;" horiz-adv-x="600" 
d="M171 584q-47 0 -76.5 28.5t-29.5 75.5t29.5 75.5t76.5 28.5t76.5 -28.5t29.5 -75.5t-29.5 -75.5t-76.5 -28.5zM171 612q33 0 52.5 20.5t19.5 55.5t-19.5 56t-52.5 21t-52.5 -21t-19.5 -56t19.5 -55.5t52.5 -20.5z" />
    <glyph glyph-name="ogonek" unicode="&#x2db;" horiz-adv-x="600" 
d="M164 -230q-36 0 -58.5 20.5t-22.5 54.5q0 94 154 185v-30q-113 -75 -113 -150q0 -21 13 -34.5t35 -13.5q34 0 62 26l6 -30q-32 -28 -76 -28z" />
    <glyph glyph-name="tilde" unicode="&#x2dc;" horiz-adv-x="600" 
d="M312 630q-36 0 -84.5 39t-76.5 39q-25 0 -42 -19t-17 -49h-33q0 48 26.5 78t66.5 30q23 0 46.5 -12t39 -26.5t36 -26.5t39.5 -12q25 0 42 18.5t17 48.5h33q0 -49 -26.5 -78.5t-66.5 -29.5z" />
    <glyph glyph-name="hungarumlaut" unicode="&#x2dd;" horiz-adv-x="600" 
d="M146 620l106 145h62l-124 -145h-44zM277 620l106 145h62l-124 -145h-44z" />
    <glyph glyph-name="gravecomb" unicode="&#x300;" horiz-adv-x="0" 
d="M-178 620l-146 145h63l128 -145h-45z" />
    <glyph glyph-name="acutecomb" unicode="&#x301;" horiz-adv-x="0" 
d="M-194 620l128 145h63l-147 -145h-44z" />
    <glyph glyph-name="uni0302" unicode="&#x302;" horiz-adv-x="0" 
d="M-47 620h-48l-106 116l-107 -116h-49l129 145h53z" />
    <glyph glyph-name="tildecomb" unicode="&#x303;" horiz-adv-x="0" 
d="M-153 630q-36 0 -84.5 39t-76.5 39q-25 0 -42 -19t-17 -49h-33q0 48 26.5 78t66.5 30q37 0 85 -38.5t76 -38.5q25 0 42 18.5t17 48.5h33q0 -49 -26.5 -78.5t-66.5 -29.5z" />
    <glyph glyph-name="uni0304" unicode="&#x304;" horiz-adv-x="0" 
d="M-364 655v40h293v-40h-293z" />
    <glyph glyph-name="uni0306" unicode="&#x306;" horiz-adv-x="0" 
d="M-197 610q-69 0 -111 42.5t-42 112.5h42q0 -55 30.5 -89t80.5 -34q49 0 79.5 34t30.5 89h42q0 -70 -42 -112.5t-110 -42.5z" />
    <glyph glyph-name="uni0307" unicode="&#x307;" horiz-adv-x="0" 
d="M-108 675q-16 0 -26.5 10.5t-10.5 26.5q0 15 10.5 25.5t26.5 10.5q15 0 25.5 -10.5t10.5 -25.5q0 -16 -10.5 -26.5t-25.5 -10.5z" />
    <glyph glyph-name="uni0308" unicode="&#x308;" horiz-adv-x="0" 
d="M-296 675q-16 0 -26.5 10.5t-10.5 26.5q0 15 10.5 25.5t26.5 10.5q15 0 25.5 -10.5t10.5 -25.5q0 -16 -10.5 -26.5t-25.5 -10.5zM-109 675q-15 0 -25.5 10.5t-10.5 26.5q0 15 10.5 25.5t25.5 10.5q16 0 26 -10.5t10 -25.5q0 -16 -10 -26.5t-26 -10.5z" />
    <glyph glyph-name="uni030A" unicode="&#x30a;" horiz-adv-x="0" 
d="M-171 584q-47 0 -76.5 28.5t-29.5 75.5t29.5 75.5t76.5 28.5t76.5 -28.5t29.5 -75.5t-29.5 -75.5t-76.5 -28.5zM-171 612q33 0 52.5 20.5t19.5 55.5t-19.5 56t-52.5 21t-52.5 -21t-19.5 -56t19.5 -55.5t52.5 -20.5z" />
    <glyph glyph-name="uni030B" unicode="&#x30b;" horiz-adv-x="0" 
d="M-332 620l106 145h62l-124 -145h-44zM-201 620l106 145h62l-124 -145h-44z" />
    <glyph glyph-name="uni030C" unicode="&#x30c;" horiz-adv-x="0" 
d="M-95 765h48l-128 -145h-53l-129 145h49l107 -116z" />
    <glyph glyph-name="uni0312" unicode="&#x312;" horiz-adv-x="0" 
d="M-122 593l71 187h39l-63 -187h-47z" />
    <glyph glyph-name="uni0326" unicode="&#x326;" horiz-adv-x="0" 
d="M-116 -220l56 168h47l-65 -168h-38z" />
    <glyph glyph-name="uni0327" unicode="&#x327;" horiz-adv-x="0" 
d="M-129 -69q48 0 76.5 -21.5t28.5 -56.5q0 -38 -31.5 -60.5t-84.5 -22.5q-63 0 -93 30l12 25q25 -26 77 -26q36 0 58 15t22 39q0 23 -21.5 37t-56.5 14q-26 0 -49 -9l-9 17l56 88h36l-46 -71q16 2 25 2z" />
    <glyph glyph-name="uni0328" unicode="&#x328;" horiz-adv-x="0" 
d="M-92 -230q-36 0 -58.5 20.5t-22.5 54.5q0 94 154 185v-30q-113 -75 -113 -150q0 -21 13 -34.5t35 -13.5q34 0 62 26l6 -30q-32 -28 -76 -28z" />
    <glyph glyph-name="uni0335" unicode="&#x335;" horiz-adv-x="0" 
d="M-507 268v37h354v-37h-354z" />
    <glyph glyph-name="uni0336" unicode="&#x336;" horiz-adv-x="0" 
d="M-852 268v37h763v-37h-763z" />
    <glyph glyph-name="uni0337" unicode="&#x337;" horiz-adv-x="0" 
d="M-277 448l123 85v-43l-123 -85v6l-122 -86v43l122 86v-6z" />
    <glyph glyph-name="uni0338" unicode="&#x338;" horiz-adv-x="0" 
d="M-450 -10l-31 20l434 740l31 -20z" />
    <glyph glyph-name="uni0394" unicode="&#x394;" horiz-adv-x="771" 
d="M410 740l328 -740h-705l328 740h49zM107 43h557l-278 636z" />
    <glyph glyph-name="uni03A9" unicode="&#x3a9;" horiz-adv-x="769" 
d="M503 150v-107h205v-43h-250v184q93 20 147 88.5t54 168.5q0 120 -75.5 193t-198.5 73t-198.5 -73t-75.5 -193q0 -100 54 -168t147 -89v-184h-249v43h205v107q-98 31 -154.5 107.5t-56.5 183.5q0 139 90 224t238 85q147 0 237 -85t90 -224q0 -107 -55.5 -184t-153.5 -107z
" />
    <glyph glyph-name="uni03BC" unicode="&#x3bc;" horiz-adv-x="625" 
d="M491 525h48v-525h-47l-1 97q-45 -107 -179 -107q-131 0 -178 106v-316h-48v745h48v-320q0 -78 49 -125.5t129 -47.5q81 0 130 47.5t49 125.5v320z" />
    <glyph glyph-name="pi" unicode="&#x3c0;" horiz-adv-x="679" 
d="M634 484h-134v-380q0 -32 17 -52t45 -20q38 0 72 19v-40q-32 -21 -86 -21q-43 0 -69.5 29t-26.5 76v389h-245v-484h-48v484h-134v41h609v-41z" />
    <glyph glyph-name="Wgrave" unicode="&#x1e80;" horiz-adv-x="1092" 
d="M577 835h-45l-146 145h63zM1025 740h55l-268 -740h-49l-217 664l-217 -664h-50l-268 740h56l239 -671l215 671h50l216 -671z" />
    <glyph glyph-name="wgrave" unicode="&#x1e81;" horiz-adv-x="910" 
d="M487 620h-45l-146 145h63zM840 525h54l-209 -525h-49l-181 468l-181 -468h-49l-209 525h54l182 -469l181 469h44l181 -469z" />
    <glyph glyph-name="Wacute" unicode="&#x1e82;" horiz-adv-x="1092" 
d="M706 980l-147 -145h-44l128 145h63zM1025 740h55l-268 -740h-49l-217 664l-217 -664h-50l-268 740h56l239 -671l215 671h50l216 -671z" />
    <glyph glyph-name="wacute" unicode="&#x1e83;" horiz-adv-x="910" 
d="M616 765l-147 -145h-44l128 145h63zM840 525h54l-209 -525h-49l-181 468l-181 -468h-49l-209 525h54l182 -469l181 469h44l181 -469z" />
    <glyph glyph-name="Wdieresis" unicode="&#x1e84;" horiz-adv-x="1092" 
d="M452 890q-16 0 -26.5 10.5t-10.5 26.5q0 15 10.5 25.5t26.5 10.5q15 0 25.5 -10.5t10.5 -25.5q0 -16 -10.5 -26.5t-25.5 -10.5zM639 890q-15 0 -25.5 10.5t-10.5 26.5q0 15 10.5 25.5t25.5 10.5q16 0 26 -10.5t10 -25.5q0 -16 -10 -26.5t-26 -10.5zM1025 740h55
l-268 -740h-49l-217 664l-217 -664h-50l-268 740h56l239 -671l215 671h50l216 -671z" />
    <glyph glyph-name="wdieresis" unicode="&#x1e85;" horiz-adv-x="910" 
d="M362 675q-16 0 -26.5 10.5t-10.5 26.5q0 15 10.5 25.5t26.5 10.5q15 0 25.5 -10.5t10.5 -25.5q0 -16 -10.5 -26.5t-25.5 -10.5zM549 675q-15 0 -25.5 10.5t-10.5 26.5q0 15 10.5 25.5t25.5 10.5q16 0 26 -10.5t10 -25.5q0 -16 -10 -26.5t-26 -10.5zM840 525h54l-209 -525
h-49l-181 468l-181 -468h-49l-209 525h54l182 -469l181 469h44l181 -469z" />
    <glyph glyph-name="uni1E9E" unicode="&#x1e9e;" horiz-adv-x="661" 
d="M435 388q80 -19 126 -70t46 -123q0 -92 -67.5 -148.5t-177.5 -56.5q-60 0 -106 21l5 42q41 -20 94 -20q89 0 143.5 46t54.5 120q0 75 -58 121.5t-152 46.5v41q78 0 125.5 41t47.5 109q0 67 -50 108t-133 41q-82 0 -132.5 -41t-50.5 -108v-558h-51v564q0 84 64 135t170 51
q107 0 172 -51t65 -134q0 -64 -35.5 -110.5t-99.5 -66.5z" />
    <glyph glyph-name="Ygrave" unicode="&#x1ef2;" horiz-adv-x="643" 
d="M354 835h-45l-146 145h63zM567 740h58l-278 -430v-310h-51v310l-278 430h58l246 -383z" />
    <glyph glyph-name="ygrave" unicode="&#x1ef3;" horiz-adv-x="555" 
d="M266 620l-146 145h63l128 -145h-45zM123 -230q-34 0 -58 11l6 40q18 -9 44 -9q32 0 50 18t37 58l54 117l-240 520h54l212 -467l207 467h54l-294 -643q-26 -58 -52.5 -85t-73.5 -27z" />
    <glyph glyph-name="endash" unicode="&#x2013;" horiz-adv-x="551" 
d="M74 268v37h402v-37h-402z" />
    <glyph glyph-name="emdash" unicode="&#x2014;" horiz-adv-x="872" 
d="M74 268v37h723v-37h-723z" />
    <glyph glyph-name="quoteleft" unicode="&#x2018;" horiz-adv-x="212" 
d="M171 740l-67 -204h-51l75 204h43z" />
    <glyph glyph-name="quoteright" unicode="&#x2019;" horiz-adv-x="212" 
d="M55 536l67 204h51l-75 -204h-43z" />
    <glyph glyph-name="quotesinglbase" unicode="&#x201a;" horiz-adv-x="201" 
d="M15 -140l67 204h51l-75 -204h-43z" />
    <glyph glyph-name="quotedblleft" unicode="&#x201c;" horiz-adv-x="342" 
d="M174 739l-68 -203h-51l76 203h43zM301 739l-67 -203h-51l75 203h43z" />
    <glyph glyph-name="quotedblright" unicode="&#x201d;" horiz-adv-x="339" 
d="M55 537l67 204h51l-75 -204h-43zM182 537l67 204h51l-75 -204h-43z" />
    <glyph glyph-name="quotedblbase" unicode="&#x201e;" horiz-adv-x="328" 
d="M15 -140l67 204h51l-75 -204h-43zM142 -140l68 204h51l-75 -204h-44z" />
    <glyph glyph-name="dagger" unicode="&#x2020;" horiz-adv-x="516" 
d="M475 525v-44h-191v-701h-52v701h-192v44h192v255h52v-255h191z" />
    <glyph glyph-name="daggerdbl" unicode="&#x2021;" horiz-adv-x="516" 
d="M475 481h-191v-161h191v-43h-191v-497h-52v497h-192v43h192v161h-192v44h192v255h52v-255h191v-44z" />
    <glyph glyph-name="bullet" unicode="&#x2022;" horiz-adv-x="350" 
d="M175 242q-36 0 -58 22t-22 58t22 58t58 22t58 -22t22 -58t-22 -58t-58 -22z" />
    <glyph glyph-name="ellipsis" unicode="&#x2026;" horiz-adv-x="576" 
d="M105 -10q-17 0 -29 12t-12 29t12 29t29 12t29 -12t12 -29t-12 -29t-29 -12zM288 -10q-16 0 -28.5 12t-12.5 29t12 29t29 12t29 -12t12 -29t-12 -29t-29 -12zM472 -10q-17 0 -29.5 12t-12.5 29t12.5 29t29.5 12t29 -12t12 -29t-12.5 -29t-28.5 -12z" />
    <glyph glyph-name="perthousand" unicode="&#x2030;" horiz-adv-x="1102" 
d="M196 423q-71 0 -114.5 45t-43.5 119t43.5 118.5t114.5 44.5t114 -44.5t43 -118.5t-43 -119t-114 -45zM167 -10l-31 20l434 740l31 -20zM196 458q51 0 82 35.5t31 93.5t-31 93t-82 35q-52 0 -83 -35t-31 -93q0 -59 31 -94t83 -35zM539 -10q-71 0 -114.5 44.5t-43.5 118.5
t43.5 119t114.5 45t114 -45t43 -119t-43 -118.5t-114 -44.5zM910 -10q-71 0 -114.5 45t-43.5 118q0 74 43.5 119t114.5 45t114.5 -45t43.5 -119t-43.5 -118.5t-114.5 -44.5zM539 25q51 0 82 35t31 93t-31 93.5t-82 35.5q-52 0 -83 -35t-31 -94q0 -58 31 -93t83 -35zM910 25
q51 0 82 35t31 93t-31 93.5t-82 35.5q-52 0 -83 -35t-31 -94q0 -58 31 -93t83 -35z" />
    <glyph glyph-name="guilsinglleft" unicode="&#x2039;" horiz-adv-x="325" 
d="M273 492l-171 -222l171 -222h-51l-175 222l175 222h51z" />
    <glyph glyph-name="guilsinglright" unicode="&#x203a;" horiz-adv-x="325" 
d="M104 492l174 -222l-174 -222h-52l171 222l-171 222h52z" />
    <glyph glyph-name="fraction" unicode="&#x2044;" horiz-adv-x="187" 
d="M-108 -10l-31 20l434 740l31 -20z" />
    <glyph glyph-name="uni2070" unicode="&#x2070;" horiz-adv-x="381" 
d="M191 390q-70 0 -112.5 62.5t-42.5 165.5t42.5 165.5t112.5 62.5t112 -62.5t42 -165.5t-42 -165.5t-112 -62.5zM191 423q52 0 84 53.5t32 141.5t-32 141.5t-84 53.5t-83.5 -53.5t-31.5 -141.5t31.5 -141.5t83.5 -53.5z" />
    <glyph glyph-name="uni2074" unicode="&#x2074;" horiz-adv-x="373" 
d="M241 396v98h-222v29l228 317h33v-313h68v-33h-68v-98h-39zM60 525h182l1 254z" />
    <glyph glyph-name="uni2075" unicode="&#x2075;" horiz-adv-x="350" 
d="M156 390q-84 0 -127 42l11 29q39 -38 112 -38q56 0 89 28.5t33 76.5q0 45 -28.5 73t-76.5 28q-43 0 -86 -17l-26 4l30 224h207v-33h-173l-23 -157q39 11 78 11q62 0 100.5 -36.5t38.5 -95.5q0 -62 -44 -100.5t-115 -38.5z" />
    <glyph glyph-name="uni2076" unicode="&#x2076;" horiz-adv-x="346" 
d="M182 664q59 0 97 -38t38 -99q0 -62 -39 -99.5t-103 -37.5q-65 0 -104 37.5t-39 99.5q0 52 33 99l143 214h44l-129 -186q28 10 59 10zM175 423q46 0 74 28.5t28 75.5q0 48 -28 77.5t-74 29.5t-74 -29.5t-28 -77.5q0 -47 28 -75.5t74 -28.5z" />
    <glyph glyph-name="uni2077" unicode="&#x2077;" horiz-adv-x="310" 
d="M17 840h277l-159 -444h-41l149 411h-226v33z" />
    <glyph glyph-name="uni2078" unicode="&#x2078;" horiz-adv-x="367" 
d="M242 626q39 -13 61.5 -42.5t22.5 -70.5q0 -55 -39 -89t-103 -34t-103 33.5t-39 89.5q0 41 22 70.5t61 42.5q-33 13 -52 40.5t-19 63.5q0 52 35.5 84t94.5 32t94.5 -31.5t35.5 -83.5q0 -76 -72 -105zM94 728q0 -39 24.5 -62.5t65.5 -23.5q40 0 65 23.5t25 62.5
q0 38 -25 61.5t-65 23.5t-65 -23.5t-25 -61.5zM184 423q46 0 74 25t28 67q0 43 -28 69t-74 26t-74 -26t-28 -69q0 -42 28 -67t74 -25z" />
    <glyph glyph-name="uni2079" unicode="&#x2079;" horiz-adv-x="346" 
d="M171 846q65 0 104 -37.5t39 -99.5q0 -52 -33 -99l-143 -214h-44l129 186q-28 -10 -59 -10q-59 0 -97 38t-38 99q0 62 39 99.5t103 37.5zM69 709q0 -48 28 -77.5t74 -29.5t74 29.5t28 77.5q0 47 -28 75.5t-74 28.5t-74 -28.5t-28 -75.5z" />
    <glyph glyph-name="uni2080" unicode="&#x2080;" horiz-adv-x="381" 
d="M191 -106q-70 0 -112.5 62.5t-42.5 165.5t42.5 165.5t112.5 62.5t112 -62.5t42 -165.5t-42 -165.5t-112 -62.5zM191 -73q52 0 84 53.5t32 141.5t-32 141.5t-84 53.5t-83.5 -53.5t-31.5 -141.5t31.5 -141.5t83.5 -53.5z" />
    <glyph glyph-name="uni2081" unicode="&#x2081;" horiz-adv-x="254" 
d="M147 -100v393l-115 -84l-20 28l144 107h30v-444h-39z" />
    <glyph glyph-name="uni2082" unicode="&#x2082;" horiz-adv-x="348" 
d="M34 -100v26l134 143q2 2 14.5 15t17 18t15.5 18.5t16 21t13 20.5t11.5 23t6.5 22.5t3 24.5q0 39 -25 62t-67 23q-43 0 -69 -25t-26 -66l-39 3q0 55 36.5 88t96.5 33q59 0 95.5 -31.5t36.5 -83.5q0 -26 -8.5 -51t-28.5 -52t-33 -42.5t-41 -44.5l-107 -113l224 1v-33h-276z
" />
    <glyph glyph-name="uni2083" unicode="&#x2083;" horiz-adv-x="347" 
d="M169 153q64 0 103 -34.5t39 -91.5q0 -60 -41.5 -96.5t-111.5 -36.5q-88 0 -128 51l16 29q35 -47 107 -47q53 0 85 27t32 73q0 43 -31.5 69.5t-82.5 26.5q-39 0 -69 -15l-12 20l168 183h-196v33h250v-24l-158 -169q10 2 30 2z" />
    <glyph glyph-name="uni2084" unicode="&#x2084;" horiz-adv-x="373" 
d="M241 -100v98h-222v29l228 317h33v-313h68v-33h-68v-98h-39zM60 29h182l1 254z" />
    <glyph glyph-name="uni2085" unicode="&#x2085;" horiz-adv-x="350" 
d="M156 -106q-84 0 -127 42l11 29q39 -38 112 -38q56 0 89 28.5t33 76.5q0 45 -28.5 73t-76.5 28q-43 0 -86 -17l-26 4l30 224h207v-33h-173l-23 -157q39 11 78 11q62 0 100.5 -36.5t38.5 -95.5q0 -62 -44 -100.5t-115 -38.5z" />
    <glyph glyph-name="uni2086" unicode="&#x2086;" horiz-adv-x="346" 
d="M182 168q59 0 97 -38t38 -99q0 -62 -39 -99.5t-103 -37.5q-65 0 -104 37.5t-39 99.5q0 52 33 99l143 214h44l-129 -186q28 10 59 10zM175 -73q46 0 74 28.5t28 75.5q0 48 -28 77.5t-74 29.5t-74 -29.5t-28 -77.5q0 -47 28 -75.5t74 -28.5z" />
    <glyph glyph-name="uni2087" unicode="&#x2087;" horiz-adv-x="310" 
d="M17 344h277l-159 -444h-41l149 411h-226v33z" />
    <glyph glyph-name="uni2088" unicode="&#x2088;" horiz-adv-x="367" 
d="M242 130q39 -13 61.5 -42.5t22.5 -70.5q0 -55 -39 -89t-103 -34t-103 33.5t-39 89.5q0 41 22 70.5t61 42.5q-33 13 -52 40.5t-19 63.5q0 52 35.5 84t94.5 32t94.5 -31.5t35.5 -83.5q0 -76 -72 -105zM94 232q0 -39 24.5 -62.5t65.5 -23.5q40 0 65 23.5t25 62.5
q0 38 -25 61.5t-65 23.5t-65 -23.5t-25 -61.5zM184 -73q46 0 74 25t28 67q0 43 -28 69t-74 26t-74 -26t-28 -69q0 -42 28 -67t74 -25z" />
    <glyph glyph-name="uni2089" unicode="&#x2089;" horiz-adv-x="346" 
d="M171 350q65 0 104 -37.5t39 -99.5q0 -52 -33 -99l-143 -214h-44l129 186q-28 -10 -59 -10q-59 0 -97 38t-38 99q0 62 39 99.5t103 37.5zM69 213q0 -48 28 -77.5t74 -29.5t74 29.5t28 77.5q0 47 -28 75.5t-74 28.5t-74 -28.5t-28 -75.5z" />
    <glyph glyph-name="Euro" unicode="&#x20ac;" horiz-adv-x="805" 
d="M721 166l35 -33q-50 -67 -126 -105t-169 -38q-142 0 -238 79.5t-120 214.5h-61v36h56q-3 26 -3 51v13h-53v37h55q16 150 114.5 239.5t250.5 89.5q163 0 274 -121l-32 -33q-99 111 -239 111q-130 0 -214.5 -78t-98.5 -208h295v-37h-298v-12q0 -26 3 -52h295v-36h-289
q23 -116 104 -183.5t199 -67.5q82 0 149 36t111 97z" />
    <glyph glyph-name="uni20B9" unicode="&#x20b9;" horiz-adv-x="650" 
d="M603 740v-36h-209q109 -54 117 -179h87v-36h-87q-4 -72 -42.5 -124.5t-101.5 -75.5l193 -289h-61l-182 276q-23 -3 -46 -3h-194v43h186q83 0 136 47.5t58 125.5h-380v36h380q-6 79 -59.5 125.5t-137.5 46.5h-183v43h526z" />
    <glyph glyph-name="uni20BD" unicode="&#x20bd;" horiz-adv-x="619" 
d="M161 328v-64h272v-36h-272v-228h-51v228h-52v36h52v64h-52v37h52v375h237q106 0 171 -56t65 -148q0 -94 -64.5 -151t-169.5 -57h-188zM161 697v-325h178q85 0 137.5 44.5t52.5 117.5t-52 118t-138 45h-178z" />
    <glyph glyph-name="trademark" unicode="&#x2122;" horiz-adv-x="711" 
d="M262 780v-28h-95v-258h-34v258h-94v28h223zM635 494h-34l-13 228l-108 -228h-24l-108 229l-13 -229h-34l18 286h34l115 -247l115 247h33z" />
    <glyph glyph-name="oneeighth" unicode="&#x215b;" horiz-adv-x="808" 
d="M549 750l31 -20l-434 -740l-31 20zM147 296v393l-115 -84l-20 28l144 107h30v-444h-39zM683 230q39 -13 61.5 -42.5t22.5 -70.5q0 -55 -39 -89t-103 -34t-103 33.5t-39 89.5q0 41 22 70.5t61 42.5q-33 13 -52 40.5t-19 63.5q0 52 35.5 84t94.5 32t94.5 -31.5t35.5 -83.5
q0 -76 -72 -105zM535 332q0 -39 24.5 -62.5t65.5 -23.5q40 0 65 23.5t25 62.5q0 38 -25 61.5t-65 23.5q-41 0 -65.5 -23.5t-24.5 -61.5zM625 27q46 0 74 25t28 67q0 43 -28 69t-74 26t-74 -26t-28 -69q0 -42 28 -67t74 -25z" />
    <glyph glyph-name="threeeighths" unicode="&#x215c;" horiz-adv-x="901" 
d="M642 750l31 -20l-434 -740l-31 20zM311 423q0 -60 -41.5 -96.5t-111.5 -36.5q-88 0 -128 51l16 29q35 -47 107 -47q53 0 85 27t32 73q0 43 -31.5 69.5t-82.5 26.5q-39 0 -69 -15l-12 20l168 183h-196v33h250v-24l-158 -169q10 2 30 2q64 0 103 -34.5t39 -91.5zM776 230
q39 -13 61.5 -42.5t22.5 -70.5q0 -55 -39 -89t-103 -34t-103 33.5t-39 89.5q0 41 22 70.5t61 42.5q-33 13 -52 40.5t-19 63.5q0 52 35.5 84t94.5 32q58 0 94 -31.5t36 -83.5q0 -76 -72 -105zM628 332q0 -39 24.5 -62.5t65.5 -23.5q40 0 65 23.5t25 62.5q0 38 -25 61.5
t-65 23.5t-65 -23.5t-25 -61.5zM718 27q46 0 74 25t28 67q0 43 -28 69t-74 26t-74 -26t-28 -69q0 -42 28 -67t74 -25z" />
    <glyph glyph-name="fiveeighths" unicode="&#x215d;" horiz-adv-x="904" 
d="M645 750l31 -20l-434 -740l-31 20zM315 429q0 -62 -44 -100.5t-115 -38.5q-84 0 -127 42l11 29q39 -38 112 -38q56 0 89 28.5t33 76.5q0 45 -28.5 73t-76.5 28q-43 0 -86 -17l-26 4l30 224h207v-33h-173l-23 -157q39 11 78 11q62 0 100.5 -36.5t38.5 -95.5zM779 230
q39 -13 61.5 -42.5t22.5 -70.5q0 -55 -39 -89t-103 -34t-103 33.5t-39 89.5q0 41 22 70.5t61 42.5q-33 13 -52 40.5t-19 63.5q0 52 35.5 84t94.5 32t94.5 -31.5t35.5 -83.5q0 -76 -72 -105zM631 332q0 -39 24.5 -62.5t65.5 -23.5q40 0 65 23.5t25 62.5q0 38 -25 61.5
t-65 23.5q-41 0 -65.5 -23.5t-24.5 -61.5zM721 27q46 0 74 25t28 67q0 43 -28 69t-74 26t-74 -26t-28 -69q0 -42 28 -67t74 -25z" />
    <glyph glyph-name="seveneighths" unicode="&#x215e;" horiz-adv-x="833" 
d="M574 750l31 -20l-434 -740l-31 20zM17 740h277l-159 -444h-41l149 411h-226v33zM708 230q39 -13 61.5 -42.5t22.5 -70.5q0 -55 -39 -89t-103 -34t-103 33.5t-39 89.5q0 41 22 70.5t61 42.5q-33 13 -52 40.5t-19 63.5q0 52 35.5 84t94.5 32q58 0 94 -31.5t36 -83.5
q0 -76 -72 -105zM560 332q0 -39 24.5 -62.5t65.5 -23.5q40 0 65 23.5t25 62.5q0 38 -25 61.5t-65 23.5t-65 -23.5t-25 -61.5zM650 27q46 0 74 25t28 67q0 43 -28 69t-74 26t-74 -26t-28 -69q0 -42 28 -67t74 -25z" />
    <glyph glyph-name="partialdiff" unicode="&#x2202;" horiz-adv-x="625" 
d="M302 750q121 0 194.5 -104.5t73.5 -274.5q0 -172 -87.5 -276.5t-230.5 -104.5q-98 0 -158 50t-60 132q0 106 132 171.5t349 69.5q-8 134 -67 214t-150 80q-115 0 -198 -111l-33 33q96 121 235 121zM252 33q118 0 190.5 93t73.5 244q-194 -2 -311.5 -57t-117.5 -144
q0 -61 45.5 -98.5t119.5 -37.5z" />
    <glyph glyph-name="emptyset" unicode="&#x2205;" horiz-adv-x="661" 
d="M527 534q65 -76 65 -191q0 -122 -72 -197t-190 -75q-106 0 -174 59l-55 -59l-25 19l57 62q-66 75 -66 191q0 123 72.5 198t190.5 75q105 0 174 -60l55 59l25 -19zM118 343q0 -95 48 -155l307 333q-56 53 -143 53q-96 0 -154 -63.5t-58 -167.5zM330 113q95 0 153.5 63.5
t58.5 166.5q0 95 -48 155l-307 -333q58 -52 143 -52z" />
    <glyph glyph-name="product" unicode="&#x220f;" horiz-adv-x="724" 
d="M618 780v-1000h-52v957h-409v-957h-51v1000h512z" />
    <glyph glyph-name="summation" unicode="&#x2211;" horiz-adv-x="608" 
d="M33 -220v33l331 470l-322 464v33h516v-43h-453l321 -454l-330 -460h472v-43h-535z" />
    <glyph glyph-name="minus" unicode="&#x2212;" horiz-adv-x="570" 
d="M77 325v41h415v-41h-415z" />
    <glyph glyph-name="radical" unicode="&#x221a;" horiz-adv-x="755" 
d="M248 -220l-238 525h53l210 -469l425 944h54l-454 -1000h-50z" />
    <glyph glyph-name="infinity" unicode="&#x221e;" horiz-adv-x="712" 
d="M495 442q70 0 112.5 -45t42.5 -118t-42.5 -118t-112.5 -45q-102 0 -139 91q-17 -43 -53 -67t-85 -24q-70 0 -113 45t-43 118t43 118t113 45q49 0 85 -24t53 -67q37 91 139 91zM221 150q51 0 82 35.5t31 93.5t-31 93.5t-82 35.5q-52 0 -83 -35.5t-31 -93.5t31 -93.5
t83 -35.5zM492 150q51 0 82 35.5t31 93.5t-31 93.5t-82 35.5q-52 0 -83 -35.5t-31 -93.5t31 -93.5t83 -35.5z" />
    <glyph glyph-name="integral" unicode="&#x222b;" horiz-adv-x="451" 
d="M340 790q72 0 110 -40l-15 -36q-36 33 -89 33q-44 0 -69.5 -26.5t-25.5 -69.5v-753q0 -58 -37.5 -93t-101.5 -35q-73 0 -111 40l15 36q36 -33 89 -33q44 0 69.5 26.5t25.5 69.5v753q0 58 37.5 93t102.5 35z" />
    <glyph glyph-name="approxequal" unicode="&#x2248;" horiz-adv-x="566" 
d="M376 338q-41 0 -97.5 38.5t-87.5 38.5q-33 0 -56 -18.5t-23 -48.5h-33q0 48 32 78t81 30q34 0 66.5 -19.5t62 -39t56.5 -19.5q34 0 57 18.5t23 49.5h33q0 -49 -32 -78.5t-82 -29.5zM376 138q-41 0 -97.5 38.5t-87.5 38.5q-33 0 -56 -18.5t-23 -48.5h-33q0 48 32 78t81 30
q34 0 66.5 -19.5t62 -39t56.5 -19.5q34 0 57 18.5t23 49.5h33q0 -49 -32 -78.5t-82 -29.5z" />
    <glyph glyph-name="notequal" unicode="&#x2260;" horiz-adv-x="569" 
d="M492 443h-156l-53 -195h209v-40h-220l-31 -112h-49l31 112h-146v40h157l53 195h-210v41h222l30 111h49l-30 -111h144v-41z" />
    <glyph glyph-name="lessequal" unicode="&#x2264;" horiz-adv-x="562" 
d="M479 586v-47l-330 -147l330 -148v-46l-398 179v29zM81 91v41h398v-41h-398z" />
    <glyph glyph-name="greaterequal" unicode="&#x2265;" horiz-adv-x="562" 
d="M83 586l398 -180v-29l-398 -179v46l331 148l-331 147v47zM83 91v41h398v-41h-398z" />
    <glyph glyph-name="lozenge" unicode="&#x25ca;" horiz-adv-x="539" 
d="M290 625l205 -313l-205 -312h-41l-204 312l204 313h41zM270 45l172 267l-172 268l-173 -268z" />
    <glyph glyph-name="A.ss01" horiz-adv-x="788" 
d="M394 750q134 0 215.5 -73.5t81.5 -194.5v-482h-52v265h-490v-265h-52v482q0 121 81.5 194.5t215.5 73.5zM149 309h490v171q0 102 -67.5 164.5t-177.5 62.5t-177.5 -62.5t-67.5 -164.5v-171z" />
    <glyph glyph-name="Aacute.ss01" horiz-adv-x="788" 
d="M554 980l-147 -145h-44l128 145h63zM394 750q134 0 215.5 -73.5t81.5 -194.5v-482h-52v265h-490v-265h-52v482q0 121 81.5 194.5t215.5 73.5zM149 309h490v171q0 102 -67.5 164.5t-177.5 62.5t-177.5 -62.5t-67.5 -164.5v-171z" />
    <glyph glyph-name="Abreve.ss01" horiz-adv-x="788" 
d="M394 825q-69 0 -111 42.5t-42 112.5h42q0 -55 30.5 -89t80.5 -34q49 0 79.5 34t30.5 89h42q0 -70 -42 -112.5t-110 -42.5zM394 750q134 0 215.5 -73.5t81.5 -194.5v-482h-52v265h-490v-265h-52v482q0 121 81.5 194.5t215.5 73.5zM149 309h490v171q0 102 -67.5 164.5
t-177.5 62.5t-177.5 -62.5t-67.5 -164.5v-171z" />
    <glyph glyph-name="Acircumflex.ss01" horiz-adv-x="788" 
d="M394 951l-107 -116h-49l129 145h53l128 -145h-48zM394 750q134 0 215.5 -73.5t81.5 -194.5v-482h-52v265h-490v-265h-52v482q0 121 81.5 194.5t215.5 73.5zM149 309h490v171q0 102 -67.5 164.5t-177.5 62.5t-177.5 -62.5t-67.5 -164.5v-171z" />
    <glyph glyph-name="Adieresis.ss01" horiz-adv-x="788" 
d="M300 890q-16 0 -26.5 10.5t-10.5 26.5q0 15 10.5 25.5t26.5 10.5q15 0 25.5 -10.5t10.5 -25.5q0 -16 -10.5 -26.5t-25.5 -10.5zM487 890q-15 0 -25.5 10.5t-10.5 26.5q0 15 10.5 25.5t25.5 10.5q16 0 26 -10.5t10 -25.5q0 -16 -10 -26.5t-26 -10.5zM394 750
q134 0 215.5 -73.5t81.5 -194.5v-482h-52v265h-490v-265h-52v482q0 121 81.5 194.5t215.5 73.5zM149 309h490v171q0 102 -67.5 164.5t-177.5 62.5t-177.5 -62.5t-67.5 -164.5v-171z" />
    <glyph glyph-name="Agrave.ss01" horiz-adv-x="788" 
d="M425 835h-45l-146 145h63zM394 750q134 0 215.5 -73.5t81.5 -194.5v-482h-52v265h-490v-265h-52v482q0 121 81.5 194.5t215.5 73.5zM149 309h490v171q0 102 -67.5 164.5t-177.5 62.5t-177.5 -62.5t-67.5 -164.5v-171z" />
    <glyph glyph-name="Amacron.ss01" horiz-adv-x="788" 
d="M541 910v-40h-293v40h293zM394 750q134 0 215.5 -73.5t81.5 -194.5v-482h-52v265h-490v-265h-52v482q0 121 81.5 194.5t215.5 73.5zM149 309h490v171q0 102 -67.5 164.5t-177.5 62.5t-177.5 -62.5t-67.5 -164.5v-171z" />
    <glyph glyph-name="Aogonek.ss01" horiz-adv-x="788" 
d="M688 -172l6 -30q-32 -28 -76 -28q-36 0 -58.5 20.5t-22.5 54.5q0 77 108 155h-6v265h-490v-265h-52v482q0 121 81.5 194.5t215.5 73.5t215.5 -73.5t81.5 -194.5v-482q-113 -75 -113 -150q0 -21 13 -34.5t35 -13.5q34 0 62 26zM149 309h490v171q0 102 -67.5 164.5
t-177.5 62.5t-177.5 -62.5t-67.5 -164.5v-171z" />
    <glyph glyph-name="Aring.ss01" horiz-adv-x="788" 
d="M394 799q-47 0 -76.5 28.5t-29.5 75.5t29.5 75.5t76.5 28.5t76.5 -28.5t29.5 -75.5t-29.5 -75.5t-76.5 -28.5zM394 980q-33 0 -52.5 -21t-19.5 -56t19.5 -55.5t52.5 -20.5t52.5 20.5t19.5 55.5t-19.5 56t-52.5 21zM394 750q134 0 215.5 -73.5t81.5 -194.5v-482h-52v265
h-490v-265h-52v482q0 121 81.5 194.5t215.5 73.5zM149 309h490v171q0 102 -67.5 164.5t-177.5 62.5t-177.5 -62.5t-67.5 -164.5v-171z" />
    <glyph glyph-name="Atilde.ss01" horiz-adv-x="788" 
d="M312 923q-25 0 -42 -19t-17 -49h-33q0 48 26.5 78t66.5 30q37 0 85 -38.5t76 -38.5q25 0 42 18.5t17 48.5h33q0 -49 -26.5 -78.5t-66.5 -29.5q-36 0 -84.5 39t-76.5 39zM394 750q134 0 215.5 -73.5t81.5 -194.5v-482h-52v265h-490v-265h-52v482q0 121 81.5 194.5
t215.5 73.5zM149 309h490v171q0 102 -67.5 164.5t-177.5 62.5t-177.5 -62.5t-67.5 -164.5v-171z" />
    <glyph glyph-name="AE.ss01" horiz-adv-x="900" 
d="M493 43h347v-43h-398v265h-295v-265h-52v422q0 143 95.5 230.5t251.5 87.5h388v-43h-337v-297h315v-44h-315v-313zM147 309h295v388q-133 0 -214 -76t-81 -201v-111z" />
    <glyph glyph-name="J.ss01" horiz-adv-x="557" 
d="M459 740v-535q0 -97 -60.5 -156t-159.5 -59q-127 0 -200 95l26 36q64 -88 172 -88q76 0 123 48t47 126v490h-354v43h406z" />
    <glyph glyph-name="C.ss02" horiz-adv-x="679" 
d="M419 -10q-163 0 -263 104.5t-100 275.5t100 275.5t263 104.5q123 0 212 -67v-51q-85 75 -211 75q-139 0 -224.5 -92.5t-85.5 -244.5t85.5 -244.5t224.5 -92.5q126 0 211 75v-51q-89 -67 -212 -67z" />
    <glyph glyph-name="Cacute.ss02" horiz-adv-x="679" 
d="M382 835l128 145h63l-147 -145h-44zM419 -10q-163 0 -263 104.5t-100 275.5t100 275.5t263 104.5q123 0 212 -67v-51q-85 75 -211 75q-139 0 -224.5 -92.5t-85.5 -244.5t85.5 -244.5t224.5 -92.5q126 0 211 75v-51q-89 -67 -212 -67z" />
    <glyph glyph-name="Ccaron.ss02" horiz-adv-x="679" 
d="M439 835h-53l-129 145h49l107 -116l106 116h48zM420 707q-139 0 -224.5 -92.5t-85.5 -244.5t85.5 -244.5t224.5 -92.5q126 0 211 75v-51q-89 -67 -212 -67q-163 0 -263 104.5t-100 275.5t100 275.5t263 104.5q123 0 212 -67v-51q-85 75 -211 75z" />
    <glyph glyph-name="Ccedilla.ss02" horiz-adv-x="679" 
d="M420 707q-139 0 -224.5 -92.5t-85.5 -244.5t85.5 -244.5t224.5 -92.5q126 0 211 75v-51q-84 -64 -199 -67l-40 -61q16 2 25 2q48 0 76.5 -21.5t28.5 -56.5q0 -38 -31.5 -60.5t-84.5 -22.5q-63 0 -93 30l12 25q25 -26 77 -26q36 0 58 15t22 39q0 23 -21.5 37t-56.5 14
q-26 0 -49 -9l-9 17l50 79q-154 8 -247 111t-93 268q0 171 100 275.5t263 104.5q123 0 212 -67v-51q-85 75 -211 75z" />
    <glyph glyph-name="Cdotaccent.ss02" horiz-adv-x="679" 
d="M413 890q-16 0 -26.5 10.5t-10.5 26.5q0 15 10.5 25.5t26.5 10.5q15 0 25.5 -10.5t10.5 -25.5q0 -16 -10.5 -26.5t-25.5 -10.5zM419 -10q-163 0 -263 104.5t-100 275.5t100 275.5t263 104.5q123 0 212 -67v-51q-85 75 -211 75q-139 0 -224.5 -92.5t-85.5 -244.5
t85.5 -244.5t224.5 -92.5q126 0 211 75v-51q-89 -67 -212 -67z" />
    <glyph glyph-name="Z.ss02" horiz-adv-x="563" 
d="M112 43h420v-43h-501l414 697h-408v43h489z" />
    <glyph glyph-name="Zacute.ss02" horiz-adv-x="563" 
d="M442 980l-147 -145h-44l128 145h63zM112 43h420v-43h-501l414 697h-408v43h489z" />
    <glyph glyph-name="Zcaron.ss02" horiz-adv-x="563" 
d="M308 835h-53l-129 145h49l107 -116l106 116h48zM112 43h420v-43h-501l414 697h-408v43h489z" />
    <glyph glyph-name="Zdotaccent.ss02" horiz-adv-x="563" 
d="M282 890q-16 0 -26.5 10.5t-10.5 26.5q0 15 10.5 25.5t26.5 10.5q15 0 25.5 -10.5t10.5 -25.5q0 -16 -10.5 -26.5t-25.5 -10.5zM112 43h420v-43h-501l414 697h-408v43h489z" />
    <glyph glyph-name="i.loclTRK" horiz-adv-x="224" 
d="M112 675q-16 0 -26.5 10.5t-10.5 26.5q0 15 10.5 25.5t26.5 10.5q15 0 25.5 -10.5t10.5 -25.5q0 -16 -10.5 -26.5t-25.5 -10.5zM88 0v525h48v-525h-48z" />
    <glyph glyph-name="a.ss01" horiz-adv-x="660" 
d="M527 525h47v-525h-47l-1 124v7q-27 -66 -83 -103.5t-140 -37.5q-112 0 -182 75t-70 196q0 123 70 198.5t182 75.5q166 0 223 -142v8zM314 32q95 0 153.5 63.5t58.5 166.5q0 104 -58.5 167.5t-153.5 63.5q-96 0 -154 -64t-58 -168t58 -166.5t154 -62.5z" />
    <glyph glyph-name="aacute.ss01" horiz-adv-x="660" 
d="M483 765l-147 -145h-44l128 145h63zM527 525h47v-525h-47l-1 124v7q-27 -66 -83 -103.5t-140 -37.5q-112 0 -182 75t-70 196q0 123 70 198.5t182 75.5q166 0 223 -142v8zM314 32q95 0 153.5 63.5t58.5 166.5q0 104 -58.5 167.5t-153.5 63.5q-96 0 -154 -64t-58 -168
t58 -166.5t154 -62.5z" />
    <glyph glyph-name="abreve.ss01" horiz-adv-x="660" 
d="M323 610q-69 0 -111 42.5t-42 112.5h42q0 -55 30.5 -89t80.5 -34q49 0 79.5 34t30.5 89h42q0 -70 -42 -112.5t-110 -42.5zM527 525h47v-525h-47l-1 124v7q-27 -66 -83 -103.5t-140 -37.5q-112 0 -182 75t-70 196q0 123 70 198.5t182 75.5q166 0 223 -142v8zM314 32
q95 0 153.5 63.5t58.5 166.5q0 104 -58.5 167.5t-153.5 63.5q-96 0 -154 -64t-58 -168t58 -166.5t154 -62.5z" />
    <glyph glyph-name="acircumflex.ss01" horiz-adv-x="660" 
d="M323 736l-107 -116h-49l129 145h53l128 -145h-48zM527 525h47v-525h-47l-1 124v7q-27 -66 -83 -103.5t-140 -37.5q-112 0 -182 75t-70 196q0 123 70 198.5t182 75.5q166 0 223 -142v8zM314 32q95 0 153.5 63.5t58.5 166.5q0 104 -58.5 167.5t-153.5 63.5q-96 0 -154 -64
t-58 -168t58 -166.5t154 -62.5z" />
    <glyph glyph-name="adieresis.ss01" horiz-adv-x="660" 
d="M229 675q-16 0 -26.5 10.5t-10.5 26.5q0 15 10.5 25.5t26.5 10.5q15 0 25.5 -10.5t10.5 -25.5q0 -16 -10.5 -26.5t-25.5 -10.5zM416 675q-15 0 -25.5 10.5t-10.5 26.5q0 15 10.5 25.5t25.5 10.5q16 0 26 -10.5t10 -25.5q0 -16 -10 -26.5t-26 -10.5zM527 525h47v-525h-47
l-1 124v7q-27 -66 -83 -103.5t-140 -37.5q-112 0 -182 75t-70 196q0 123 70 198.5t182 75.5q166 0 223 -142v8zM314 32q95 0 153.5 63.5t58.5 166.5q0 104 -58.5 167.5t-153.5 63.5q-96 0 -154 -64t-58 -168t58 -166.5t154 -62.5z" />
    <glyph glyph-name="agrave.ss01" horiz-adv-x="660" 
d="M354 620h-45l-146 145h63zM527 525h47v-525h-47l-1 124v7q-27 -66 -83 -103.5t-140 -37.5q-112 0 -182 75t-70 196q0 123 70 198.5t182 75.5q166 0 223 -142v8zM314 32q95 0 153.5 63.5t58.5 166.5q0 104 -58.5 167.5t-153.5 63.5q-96 0 -154 -64t-58 -168t58 -166.5
t154 -62.5z" />
    <glyph glyph-name="amacron.ss01" horiz-adv-x="660" 
d="M470 695v-40h-293v40h293zM527 525h47v-525h-47l-1 124v7q-27 -66 -83 -103.5t-140 -37.5q-112 0 -182 75t-70 196q0 123 70 198.5t182 75.5q166 0 223 -142v8zM314 32q95 0 153.5 63.5t58.5 166.5q0 104 -58.5 167.5t-153.5 63.5q-96 0 -154 -64t-58 -168t58 -166.5
t154 -62.5z" />
    <glyph glyph-name="aogonek.ss01" horiz-adv-x="660" 
d="M571 -172l6 -30q-32 -28 -76 -28q-36 0 -58.5 20.5t-22.5 54.5q0 77 108 155h-1l-1 124v7q-27 -66 -83 -103.5t-140 -37.5q-112 0 -182 75t-70 196q0 123 70 198.5t182 75.5q166 0 223 -142v8l1 124h47v-525q-113 -75 -113 -150q0 -21 13 -34.5t35 -13.5q34 0 62 26z
M314 32q95 0 153.5 63.5t58.5 166.5q0 104 -58.5 167.5t-153.5 63.5q-96 0 -154 -64t-58 -168t58 -166.5t154 -62.5z" />
    <glyph glyph-name="aring.ss01" horiz-adv-x="660" 
d="M323 584q-47 0 -76.5 28.5t-29.5 75.5t29.5 75.5t76.5 28.5t76.5 -28.5t29.5 -75.5t-29.5 -75.5t-76.5 -28.5zM323 765q-33 0 -52.5 -21t-19.5 -56t19.5 -55.5t52.5 -20.5t52.5 20.5t19.5 55.5t-19.5 56t-52.5 21zM527 525h47v-525h-47l-1 124v7q-27 -66 -83 -103.5
t-140 -37.5q-112 0 -182 75t-70 196q0 123 70 198.5t182 75.5q166 0 223 -142v8zM314 32q95 0 153.5 63.5t58.5 166.5q0 104 -58.5 167.5t-153.5 63.5q-96 0 -154 -64t-58 -168t58 -166.5t154 -62.5z" />
    <glyph glyph-name="atilde.ss01" horiz-adv-x="660" 
d="M241 708q-25 0 -42 -19t-17 -49h-33q0 48 26.5 78t66.5 30q23 0 46.5 -12t39 -26.5t36 -26.5t39.5 -12q25 0 42 18.5t17 48.5h33q0 -49 -26.5 -78.5t-66.5 -29.5q-36 0 -84.5 39t-76.5 39zM527 525h47v-525h-47l-1 124v7q-27 -66 -83 -103.5t-140 -37.5q-112 0 -182 75
t-70 196q0 123 70 198.5t182 75.5q166 0 223 -142v8zM314 32q95 0 153.5 63.5t58.5 166.5q0 104 -58.5 167.5t-153.5 63.5q-96 0 -154 -64t-58 -168t58 -166.5t154 -62.5z" />
    <glyph glyph-name="f.ss01" horiz-adv-x="338" 
d="M243 748q-49 0 -79 -29t-30 -77v-117h194v-41h-194v-484h-48v650q0 63 40.5 101.5t105.5 38.5q63 0 103 -20l-4 -40q-35 18 -88 18z" />
    <glyph glyph-name="j.ss01" horiz-adv-x="224" 
d="M111 675q-15 0 -25.5 10.5t-10.5 26.5q0 15 10.5 25.5t25.5 10.5q16 0 26 -10.5t10 -25.5q0 -16 -10 -26.5t-26 -10.5zM88 -220v745h48v-745h-48z" />
    <glyph glyph-name="t.ss01" horiz-adv-x="348" 
d="M230 32q59 0 110 19v-40q-46 -21 -124 -21q-61 0 -98 37.5t-37 99.5v552h48v-154h203v-41h-203v-348q0 -46 28 -75t73 -29z" />
    <glyph glyph-name="tbar.ss01" horiz-adv-x="350" 
d="M230 32q59 0 110 19v-40q-46 -21 -124 -21q-61 0 -98 37.5t-37 99.5v552h48v-154h203v-41h-203v-187h195v-37h-195v-124q0 -46 28 -75t73 -29z" />
    <glyph glyph-name="tcaron.ss01" horiz-adv-x="348" 
d="M325 780l-71 -187h-38l63 187h46zM230 32q59 0 110 19v-40q-46 -21 -124 -21q-61 0 -98 37.5t-37 99.5v552h48v-154h203v-41h-203v-348q0 -46 28 -75t73 -29z" />
    <glyph glyph-name="uni0163.ss01" horiz-adv-x="348" 
d="M216 -10q-16 0 -31 3l-41 -64q16 2 25 2q48 0 76.5 -21.5t28.5 -56.5q0 -38 -31.5 -60.5t-84.5 -22.5q-63 0 -93 30l12 25q25 -26 76 -26q37 0 59 15t22 39q0 23 -21.5 37t-56.5 14q-26 0 -49 -9l-9 17l56 91q-34 15 -53.5 47.5t-19.5 76.5v552h48v-154h203v-41h-203
v-348q0 -46 28 -75t73 -29q59 0 110 19v-40q-46 -21 -124 -21z" />
    <glyph glyph-name="uni021B.ss01" horiz-adv-x="348" 
d="M230 32q59 0 110 19v-40q-46 -21 -124 -21q-61 0 -98 37.5t-37 99.5v552h48v-154h203v-41h-203v-348q0 -46 28 -75t73 -29zM108 -220l56 168h47l-65 -168h-38z" />
    <glyph glyph-name="u.ss01" horiz-adv-x="611" 
d="M306 -10q-102 0 -164.5 56.5t-62.5 150.5v328h48v-320q0 -78 49 -125.5t130 -47.5q80 0 129 47.5t49 125.5v320h48v-328q0 -94 -62 -150.5t-164 -56.5z" />
    <glyph glyph-name="uacute.ss01" horiz-adv-x="611" 
d="M275 620l128 145h63l-147 -145h-44zM306 -10q-102 0 -164.5 56.5t-62.5 150.5v328h48v-320q0 -78 49 -125.5t130 -47.5q80 0 129 47.5t49 125.5v320h48v-328q0 -94 -62 -150.5t-164 -56.5z" />
    <glyph glyph-name="ucircumflex.ss01" horiz-adv-x="611" 
d="M306 736l-107 -116h-49l129 145h53l128 -145h-48zM484 525h48v-328q0 -94 -62 -150.5t-164 -56.5t-164.5 56.5t-62.5 150.5v328h48v-320q0 -78 49 -125.5t130 -47.5q80 0 129 47.5t49 125.5v320z" />
    <glyph glyph-name="udieresis.ss01" horiz-adv-x="611" 
d="M212 675q-16 0 -26.5 10.5t-10.5 26.5q0 15 10.5 25.5t26.5 10.5q15 0 25.5 -10.5t10.5 -25.5q0 -16 -10.5 -26.5t-25.5 -10.5zM399 675q-15 0 -25.5 10.5t-10.5 26.5q0 15 10.5 25.5t25.5 10.5q16 0 26 -10.5t10 -25.5q0 -16 -10 -26.5t-26 -10.5zM306 -10
q-102 0 -164.5 56.5t-62.5 150.5v328h48v-320q0 -78 49 -125.5t130 -47.5q80 0 129 47.5t49 125.5v320h48v-328q0 -94 -62 -150.5t-164 -56.5z" />
    <glyph glyph-name="ugrave.ss01" horiz-adv-x="611" 
d="M292 620l-146 145h63l128 -145h-45zM306 -10q-102 0 -164.5 56.5t-62.5 150.5v328h48v-320q0 -78 49 -125.5t130 -47.5q80 0 129 47.5t49 125.5v320h48v-328q0 -94 -62 -150.5t-164 -56.5z" />
    <glyph glyph-name="uhungarumlaut.ss01" horiz-adv-x="611" 
d="M212 620l106 145h62l-124 -145h-44zM343 620l106 145h62l-124 -145h-44zM306 -10q-102 0 -164.5 56.5t-62.5 150.5v328h48v-320q0 -78 49 -125.5t130 -47.5q80 0 129 47.5t49 125.5v320h48v-328q0 -94 -62 -150.5t-164 -56.5z" />
    <glyph glyph-name="umacron.ss01" horiz-adv-x="611" 
d="M160 655v40h293v-40h-293zM306 -10q-102 0 -164.5 56.5t-62.5 150.5v328h48v-320q0 -78 49 -125.5t130 -47.5q80 0 129 47.5t49 125.5v320h48v-328q0 -94 -62 -150.5t-164 -56.5z" />
    <glyph glyph-name="uogonek.ss01" horiz-adv-x="611" 
d="M484 525h48v-328q0 -75 -40.5 -127t-110.5 -70q-112 -75 -112 -150q0 -21 13 -34.5t35 -13.5q34 0 62 26l6 -30q-32 -28 -76 -28q-36 0 -58.5 20.5t-22.5 54.5q0 72 95 145h-17q-102 0 -164.5 56.5t-62.5 150.5v328h48v-320q0 -78 49 -125.5t130 -47.5q80 0 129 47.5
t49 125.5v320z" />
    <glyph glyph-name="uring.ss01" horiz-adv-x="611" 
d="M306 584q-47 0 -76.5 28.5t-29.5 75.5t29.5 75.5t76.5 28.5t76.5 -28.5t29.5 -75.5t-29.5 -75.5t-76.5 -28.5zM306 612q33 0 52.5 20.5t19.5 55.5t-19.5 56t-52.5 21t-52.5 -21t-19.5 -56t19.5 -55.5t52.5 -20.5zM306 -10q-102 0 -164.5 56.5t-62.5 150.5v328h48v-320
q0 -78 49 -125.5t130 -47.5q80 0 129 47.5t49 125.5v320h48v-328q0 -94 -62 -150.5t-164 -56.5z" />
    <glyph glyph-name="y.ss01" horiz-adv-x="618" 
d="M484 525h48v-492q0 -119 -67.5 -191t-178.5 -72q-131 0 -211 70l10 39q85 -67 200 -67q90 0 144.5 62t54.5 164v61q-49 -109 -192 -109q-95 0 -153.5 56t-58.5 147v332h48v-320q0 -78 49 -125.5t129 -47.5t129 47.5t49 125.5v320z" />
    <glyph glyph-name="yacute.ss01" horiz-adv-x="618" 
d="M461 765l-147 -145h-44l128 145h63zM484 525h48v-492q0 -119 -67.5 -191t-178.5 -72q-131 0 -211 70l10 39q85 -67 200 -67q90 0 144.5 62t54.5 164v61q-49 -109 -192 -109q-95 0 -153.5 56t-58.5 147v332h48v-320q0 -78 49 -125.5t129 -47.5t129 47.5t49 125.5v320z" />
    <glyph glyph-name="ycircumflex.ss01" horiz-adv-x="618" 
d="M301 736l-107 -116h-49l129 145h53l128 -145h-48zM484 525h48v-492q0 -119 -67.5 -191t-178.5 -72q-131 0 -211 70l10 39q85 -67 200 -67q90 0 144.5 62t54.5 164v61q-49 -109 -192 -109q-95 0 -153.5 56t-58.5 147v332h48v-320q0 -78 49 -125.5t129 -47.5t129 47.5
t49 125.5v320z" />
    <glyph glyph-name="ydieresis.ss01" horiz-adv-x="618" 
d="M207 675q-16 0 -26.5 10.5t-10.5 26.5q0 15 10.5 25.5t26.5 10.5q15 0 25.5 -10.5t10.5 -25.5q0 -16 -10.5 -26.5t-25.5 -10.5zM394 675q-15 0 -25.5 10.5t-10.5 26.5q0 15 10.5 25.5t25.5 10.5q16 0 26 -10.5t10 -25.5q0 -16 -10 -26.5t-26 -10.5zM484 525h48v-492
q0 -119 -67.5 -191t-178.5 -72q-131 0 -211 70l10 39q85 -67 200 -67q90 0 144.5 62t54.5 164v61q-49 -109 -192 -109q-95 0 -153.5 56t-58.5 147v332h48v-320q0 -78 49 -125.5t129 -47.5t129 47.5t49 125.5v320z" />
    <glyph glyph-name="ygrave.ss01" horiz-adv-x="618" 
d="M332 620h-45l-146 145h63zM484 525h48v-492q0 -119 -67.5 -191t-178.5 -72q-131 0 -211 70l10 39q85 -67 200 -67q90 0 144.5 62t54.5 164v61q-49 -109 -192 -109q-95 0 -153.5 56t-58.5 147v332h48v-320q0 -78 49 -125.5t129 -47.5t129 47.5t49 125.5v320z" />
    <glyph glyph-name="a.ss02" horiz-adv-x="552" 
d="M74 525h392v-525h-47l-1 116v11q-27 -64 -83.5 -100.5t-125.5 -36.5q-76 0 -122.5 41t-46.5 108q0 71 58 114t153 43q87 0 167 -21v210h-344v40zM221 27q75 0 136 58t61 154q-76 21 -161 21q-75 0 -121 -33t-46 -87q0 -51 35.5 -82t95.5 -31z" />
    <glyph glyph-name="aacute.ss02" horiz-adv-x="552" 
d="M432 765l-147 -145h-44l128 145h63zM74 525h392v-525h-47l-1 116v11q-27 -64 -83.5 -100.5t-125.5 -36.5q-76 0 -122.5 41t-46.5 108q0 71 58 114t153 43q87 0 167 -21v210h-344v40zM221 27q75 0 136 58t61 154q-76 21 -161 21q-75 0 -121 -33t-46 -87q0 -51 35.5 -82
t95.5 -31z" />
    <glyph glyph-name="abreve.ss02" horiz-adv-x="552" 
d="M272 610q-69 0 -111 42.5t-42 112.5h42q0 -55 30.5 -89t80.5 -34q49 0 79.5 34t30.5 89h42q0 -70 -42 -112.5t-110 -42.5zM74 525h392v-525h-47l-1 116v11q-27 -64 -83.5 -100.5t-125.5 -36.5q-76 0 -122.5 41t-46.5 108q0 71 58 114t153 43q87 0 167 -21v210h-344v40z
M221 27q75 0 136 58t61 154q-76 21 -161 21q-75 0 -121 -33t-46 -87q0 -51 35.5 -82t95.5 -31z" />
    <glyph glyph-name="acircumflex.ss02" horiz-adv-x="552" 
d="M272 736l-107 -116h-49l129 145h53l128 -145h-48zM74 525h392v-525h-47l-1 116v11q-27 -64 -83.5 -100.5t-125.5 -36.5q-76 0 -122.5 41t-46.5 108q0 71 58 114t153 43q87 0 167 -21v210h-344v40zM221 27q75 0 136 58t61 154q-76 21 -161 21q-75 0 -121 -33t-46 -87
q0 -51 35.5 -82t95.5 -31z" />
    <glyph glyph-name="adieresis.ss02" horiz-adv-x="552" 
d="M178 675q-16 0 -26.5 10.5t-10.5 26.5q0 15 10.5 25.5t26.5 10.5q15 0 25.5 -10.5t10.5 -25.5q0 -16 -10.5 -26.5t-25.5 -10.5zM365 675q-15 0 -25.5 10.5t-10.5 26.5q0 15 10.5 25.5t25.5 10.5q16 0 26 -10.5t10 -25.5q0 -16 -10 -26.5t-26 -10.5zM74 525h392v-525h-47
l-1 116v11q-27 -64 -83.5 -100.5t-125.5 -36.5q-76 0 -122.5 41t-46.5 108q0 71 58 114t153 43q87 0 167 -21v210h-344v40zM221 27q75 0 136 58t61 154q-76 21 -161 21q-75 0 -121 -33t-46 -87q0 -51 35.5 -82t95.5 -31z" />
    <glyph glyph-name="agrave.ss02" horiz-adv-x="552" 
d="M303 620h-45l-146 145h63zM74 525h392v-525h-47l-1 116v11q-27 -64 -83.5 -100.5t-125.5 -36.5q-76 0 -122.5 41t-46.5 108q0 71 58 114t153 43q87 0 167 -21v210h-344v40zM221 27q75 0 136 58t61 154q-76 21 -161 21q-75 0 -121 -33t-46 -87q0 -51 35.5 -82t95.5 -31z
" />
    <glyph glyph-name="amacron.ss02" horiz-adv-x="552" 
d="M419 695v-40h-293v40h293zM74 525h392v-525h-47l-1 116v11q-27 -64 -83.5 -100.5t-125.5 -36.5q-76 0 -122.5 41t-46.5 108q0 71 58 114t153 43q87 0 167 -21v210h-344v40zM221 27q75 0 136 58t61 154q-76 21 -161 21q-75 0 -121 -33t-46 -87q0 -51 35.5 -82t95.5 -31z
" />
    <glyph glyph-name="aogonek.ss02" horiz-adv-x="552" 
d="M463 -172l6 -30q-32 -28 -76 -28q-36 0 -58.5 20.5t-22.5 54.5q0 77 108 155h-1l-1 116v11q-27 -64 -83.5 -100.5t-125.5 -36.5q-76 0 -122.5 41t-46.5 108q0 71 58 114t153 43q87 0 167 -21v210h-344v40h392v-525q-113 -75 -113 -150q0 -21 13 -34.5t35 -13.5
q34 0 62 26zM221 27q75 0 136 58t61 154q-76 21 -161 21q-75 0 -121 -33t-46 -87q0 -51 35.5 -82t95.5 -31z" />
    <glyph glyph-name="aring.ss02" horiz-adv-x="552" 
d="M272 584q-47 0 -76.5 28.5t-29.5 75.5t29.5 75.5t76.5 28.5t76.5 -28.5t29.5 -75.5t-29.5 -75.5t-76.5 -28.5zM272 765q-33 0 -52.5 -21t-19.5 -56t19.5 -55.5t52.5 -20.5t52.5 20.5t19.5 55.5t-19.5 56t-52.5 21zM74 525h392v-525h-47l-1 116v11q-27 -64 -83.5 -100.5
t-125.5 -36.5q-76 0 -122.5 41t-46.5 108q0 71 58 114t153 43q87 0 167 -21v210h-344v40zM221 27q75 0 136 58t61 154q-76 21 -161 21q-75 0 -121 -33t-46 -87q0 -51 35.5 -82t95.5 -31z" />
    <glyph glyph-name="atilde.ss02" horiz-adv-x="552" 
d="M190 708q-25 0 -42 -19t-17 -49h-33q0 48 26.5 78t66.5 30q36 0 84.5 -38.5t76.5 -38.5q25 0 42 18.5t17 48.5h33q0 -49 -26.5 -78.5t-66.5 -29.5q-36 0 -84.5 39t-76.5 39zM74 525h392v-525h-47l-1 116v11q-27 -64 -83.5 -100.5t-125.5 -36.5q-76 0 -122.5 41t-46.5 108
q0 71 58 114t153 43q87 0 167 -21v210h-344v40zM221 27q75 0 136 58t61 154q-76 21 -161 21q-75 0 -121 -33t-46 -87q0 -51 35.5 -82t95.5 -31z" />
    <glyph glyph-name="c.ss02" horiz-adv-x="479" 
d="M307 -10q-115 0 -185.5 75t-70.5 197q0 123 70.5 198t185.5 75q68 0 123 -42v-48q-50 48 -122 48q-93 0 -149.5 -63.5t-56.5 -167.5t56.5 -167t149.5 -63q73 0 123 48v-47q-54 -43 -124 -43z" />
    <glyph glyph-name="cacute.ss02" horiz-adv-x="479" 
d="M267 620l128 145h63l-147 -145h-44zM307 -10q-115 0 -185.5 75t-70.5 197q0 123 70.5 198t185.5 75q68 0 123 -42v-48q-50 48 -122 48q-93 0 -149.5 -63.5t-56.5 -167.5t56.5 -167t149.5 -63q73 0 123 48v-47q-54 -43 -124 -43z" />
    <glyph glyph-name="ccaron.ss02" horiz-adv-x="479" 
d="M324 620h-53l-129 145h49l107 -116l106 116h48zM102 262q0 -104 56.5 -167t149.5 -63q73 0 123 48v-47q-54 -43 -124 -43q-115 0 -185.5 75t-70.5 197q0 123 70.5 198t185.5 75q68 0 123 -42v-48q-50 48 -122 48q-93 0 -149.5 -63.5t-56.5 -167.5z" />
    <glyph glyph-name="ccedilla.ss02" horiz-adv-x="479" 
d="M431 33q-53 -42 -118 -43l-40 -61q16 2 25 2q48 0 76.5 -21.5t28.5 -56.5q0 -38 -31.5 -60.5t-84.5 -22.5q-63 0 -93 30l12 25q25 -26 77 -26q36 0 58 15t22 39q0 23 -21.5 37t-56.5 14q-27 0 -49 -9l-9 17l51 79q-104 10 -165.5 83.5t-61.5 187.5q0 123 70.5 198
t185.5 75q68 0 123 -42v-48q-50 48 -122 48q-93 0 -149.5 -63.5t-56.5 -167.5t56.5 -167t149.5 -63q73 0 123 48v-47z" />
    <glyph glyph-name="cdotaccent.ss02" horiz-adv-x="479" 
d="M298 675q-16 0 -26.5 10.5t-10.5 26.5q0 15 10.5 25.5t26.5 10.5q15 0 25.5 -10.5t10.5 -25.5q0 -16 -10.5 -26.5t-25.5 -10.5zM307 -10q-115 0 -185.5 75t-70.5 197q0 123 70.5 198t185.5 75q68 0 123 -42v-48q-50 48 -122 48q-93 0 -149.5 -63.5t-56.5 -167.5
t56.5 -167t149.5 -63q73 0 123 48v-47q-54 -43 -124 -43z" />
    <glyph glyph-name="f.ss02" horiz-adv-x="364" 
d="M360 739h-199v-214h194v-41h-194v-484h-48v484h-93v41h93v255h247v-41z" />
    <glyph glyph-name="g.ss02" horiz-adv-x="660" 
d="M528 525h47v-745h-503v41h455v311q-57 -142 -223 -142q-112 0 -182 75.5t-70 198.5q0 121 70 196t182 75q166 0 223 -142v8zM315 32q95 0 153.5 63.5t58.5 166.5q0 104 -58.5 167.5t-153.5 63.5q-96 0 -154 -63t-58 -167t58 -167.5t154 -63.5z" />
    <glyph glyph-name="gbreve.ss02" horiz-adv-x="660" 
d="M326 610q-69 0 -111 42.5t-42 112.5h42q0 -55 30.5 -89t80.5 -34q49 0 79.5 34t30.5 89h42q0 -70 -42 -112.5t-110 -42.5zM528 525h47v-745h-503v41h455v311q-57 -142 -223 -142q-112 0 -182 75.5t-70 198.5q0 121 70 196t182 75q166 0 223 -142v8zM315 32
q95 0 153.5 63.5t58.5 166.5q0 104 -58.5 167.5t-153.5 63.5q-96 0 -154 -63t-58 -167t58 -167.5t154 -63.5z" />
    <glyph glyph-name="gcommaaccent.ss02" horiz-adv-x="660" 
d="M399 780l-63 -187h-47l71 187h39zM528 525h47v-745h-503v41h455v311q-57 -142 -223 -142q-112 0 -182 75.5t-70 198.5q0 121 70 196t182 75q166 0 223 -142v8zM315 32q95 0 153.5 63.5t58.5 166.5q0 104 -58.5 167.5t-153.5 63.5q-96 0 -154 -63t-58 -167t58 -167.5
t154 -63.5z" />
    <glyph glyph-name="gdotaccent.ss02" horiz-adv-x="660" 
d="M326 675q-16 0 -26.5 10.5t-10.5 26.5q0 15 10.5 25.5t26.5 10.5q15 0 25.5 -10.5t10.5 -25.5q0 -16 -10.5 -26.5t-25.5 -10.5zM528 525h47v-745h-503v41h455v311q-57 -142 -223 -142q-112 0 -182 75.5t-70 198.5q0 121 70 196t182 75q166 0 223 -142v8zM315 32
q95 0 153.5 63.5t58.5 166.5q0 104 -58.5 167.5t-153.5 63.5q-96 0 -154 -63t-58 -167t58 -167.5t154 -63.5z" />
    <glyph glyph-name="j.ss02" horiz-adv-x="224" 
d="M111 675q-15 0 -25.5 10.5t-10.5 26.5q0 15 10.5 25.5t25.5 10.5q16 0 26 -10.5t10 -25.5q0 -16 -10 -26.5t-26 -10.5zM88 -220v745h48v-745h-48z" />
    <glyph glyph-name="l.ss02" horiz-adv-x="259" 
d="M90 0v780h48v-739h115v-41h-163z" />
    <glyph glyph-name="lacute.ss02" horiz-adv-x="259" 
d="M83 875l128 145h63l-147 -145h-44zM90 0v780h48v-739h115v-41h-163z" />
    <glyph glyph-name="lcaron.ss02" horiz-adv-x="263" 
d="M90 0v780h48v-739h115v-41h-163zM186 593l63 187h46l-71 -187h-38z" />
    <glyph glyph-name="lcommaaccent.ss02" horiz-adv-x="259" 
d="M90 0v780h48v-739h115v-41h-163zM93 -220l56 168h47l-65 -168h-38z" />
    <glyph glyph-name="lslash.ss02" horiz-adv-x="259" 
d="M138 41h115v-41h-163v370l-100 -70v43l100 70v367h48v-339l97 67v-43l-97 -67v-357z" />
    <glyph glyph-name="t.ss02" horiz-adv-x="331" 
d="M337 525v-41h-138v-484h-48v484h-139v41h139v154h48v-154h138z" />
    <glyph glyph-name="tbar.ss02" horiz-adv-x="335" 
d="M337 484h-138v-205h121v-37h-121v-242h-48v242h-120v37h120v205h-139v41h139v154h48v-154h138v-41z" />
    <glyph glyph-name="tcaron.ss02" horiz-adv-x="331" 
d="M395 780l-71 -187h-39l63 187h47zM199 679v-154h138v-41h-138v-484h-48v484h-139v41h139v154h48z" />
    <glyph glyph-name="uni0163.ss02" horiz-adv-x="331" 
d="M199 0h-7l-46 -71q18 2 27 2q48 0 76.5 -21.5t28.5 -56.5q0 -38 -31.5 -60.5t-84.5 -22.5q-63 0 -93 30l12 25q25 -26 76 -26q37 0 59 15t22 39q0 23 -21.5 37t-56.5 14q-26 0 -49 -9l-9 17l56 88h-7v484h-139v41h139v154h48v-154h138v-41h-138v-484z" />
    <glyph glyph-name="uni021B.ss02" horiz-adv-x="331" 
d="M199 525h138v-41h-138v-484h-48v484h-139v41h139v154h48v-154zM104 -220l56 168h47l-65 -168h-38z" />
    <glyph glyph-name="u.ss02" horiz-adv-x="611" 
d="M306 -10q-102 0 -164.5 56.5t-62.5 150.5v328h48v-320q0 -78 49 -125.5t130 -47.5q80 0 129 47.5t49 125.5v320h48v-328q0 -94 -62 -150.5t-164 -56.5z" />
    <glyph glyph-name="uacute.ss02" horiz-adv-x="611" 
d="M275 620l128 145h63l-147 -145h-44zM306 -10q-102 0 -164.5 56.5t-62.5 150.5v328h48v-320q0 -78 49 -125.5t130 -47.5q80 0 129 47.5t49 125.5v320h48v-328q0 -94 -62 -150.5t-164 -56.5z" />
    <glyph glyph-name="ucircumflex.ss02" horiz-adv-x="611" 
d="M306 736l-107 -116h-49l129 145h53l128 -145h-48zM484 525h48v-328q0 -94 -62 -150.5t-164 -56.5t-164.5 56.5t-62.5 150.5v328h48v-320q0 -78 49 -125.5t130 -47.5q80 0 129 47.5t49 125.5v320z" />
    <glyph glyph-name="udieresis.ss02" horiz-adv-x="611" 
d="M212 675q-16 0 -26.5 10.5t-10.5 26.5q0 15 10.5 25.5t26.5 10.5q15 0 25.5 -10.5t10.5 -25.5q0 -16 -10.5 -26.5t-25.5 -10.5zM399 675q-15 0 -25.5 10.5t-10.5 26.5q0 15 10.5 25.5t25.5 10.5q16 0 26 -10.5t10 -25.5q0 -16 -10 -26.5t-26 -10.5zM306 -10
q-102 0 -164.5 56.5t-62.5 150.5v328h48v-320q0 -78 49 -125.5t130 -47.5q80 0 129 47.5t49 125.5v320h48v-328q0 -94 -62 -150.5t-164 -56.5z" />
    <glyph glyph-name="ugrave.ss02" horiz-adv-x="611" 
d="M292 620l-146 145h63l128 -145h-45zM306 -10q-102 0 -164.5 56.5t-62.5 150.5v328h48v-320q0 -78 49 -125.5t130 -47.5q80 0 129 47.5t49 125.5v320h48v-328q0 -94 -62 -150.5t-164 -56.5z" />
    <glyph glyph-name="uhungarumlaut.ss02" horiz-adv-x="611" 
d="M212 620l106 145h62l-124 -145h-44zM343 620l106 145h62l-124 -145h-44zM306 -10q-102 0 -164.5 56.5t-62.5 150.5v328h48v-320q0 -78 49 -125.5t130 -47.5q80 0 129 47.5t49 125.5v320h48v-328q0 -94 -62 -150.5t-164 -56.5z" />
    <glyph glyph-name="umacron.ss02" horiz-adv-x="611" 
d="M160 655v40h293v-40h-293zM306 -10q-102 0 -164.5 56.5t-62.5 150.5v328h48v-320q0 -78 49 -125.5t130 -47.5q80 0 129 47.5t49 125.5v320h48v-328q0 -94 -62 -150.5t-164 -56.5z" />
    <glyph glyph-name="uogonek.ss02" horiz-adv-x="611" 
d="M484 525h48v-328q0 -75 -40.5 -127t-110.5 -70q-112 -75 -112 -150q0 -21 13 -34.5t35 -13.5q34 0 62 26l6 -30q-32 -28 -76 -28q-36 0 -58.5 20.5t-22.5 54.5q0 72 95 145h-17q-102 0 -164.5 56.5t-62.5 150.5v328h48v-320q0 -78 49 -125.5t130 -47.5q80 0 129 47.5
t49 125.5v320z" />
    <glyph glyph-name="uring.ss02" horiz-adv-x="611" 
d="M306 584q-47 0 -76.5 28.5t-29.5 75.5t29.5 75.5t76.5 28.5t76.5 -28.5t29.5 -75.5t-29.5 -75.5t-76.5 -28.5zM306 612q33 0 52.5 20.5t19.5 55.5t-19.5 56t-52.5 21t-52.5 -21t-19.5 -56t19.5 -55.5t52.5 -20.5zM306 -10q-102 0 -164.5 56.5t-62.5 150.5v328h48v-320
q0 -78 49 -125.5t130 -47.5q80 0 129 47.5t49 125.5v320h48v-328q0 -94 -62 -150.5t-164 -56.5z" />
    <glyph glyph-name="y.ss02" horiz-adv-x="618" 
d="M484 525h48v-745h-447v41h399v278q-49 -109 -192 -109q-95 0 -153.5 56t-58.5 147v332h48v-320q0 -78 49 -125.5t129 -47.5t129 47.5t49 125.5v320z" />
    <glyph glyph-name="yacute.ss02" horiz-adv-x="618" 
d="M466 765l-147 -145h-44l128 145h63zM484 525h48v-745h-447v41h399v278q-49 -109 -192 -109q-95 0 -153.5 56t-58.5 147v332h48v-320q0 -78 49 -125.5t129 -47.5t129 47.5t49 125.5v320z" />
    <glyph glyph-name="ycircumflex.ss02" horiz-adv-x="618" 
d="M306 736l-107 -116h-49l129 145h53l128 -145h-48zM484 525h48v-745h-447v41h399v278q-49 -109 -192 -109q-95 0 -153.5 56t-58.5 147v332h48v-320q0 -78 49 -125.5t129 -47.5t129 47.5t49 125.5v320z" />
    <glyph glyph-name="ydieresis.ss02" horiz-adv-x="618" 
d="M212 675q-16 0 -26.5 10.5t-10.5 26.5q0 15 10.5 25.5t26.5 10.5q15 0 25.5 -10.5t10.5 -25.5q0 -16 -10.5 -26.5t-25.5 -10.5zM399 675q-15 0 -25.5 10.5t-10.5 26.5q0 15 10.5 25.5t25.5 10.5q16 0 26 -10.5t10 -25.5q0 -16 -10 -26.5t-26 -10.5zM484 525h48v-745h-447
v41h399v278q-49 -109 -192 -109q-95 0 -153.5 56t-58.5 147v332h48v-320q0 -78 49 -125.5t129 -47.5t129 47.5t49 125.5v320z" />
    <glyph glyph-name="ygrave.ss02" horiz-adv-x="618" 
d="M337 620h-45l-146 145h63zM484 525h48v-745h-447v41h399v278q-49 -109 -192 -109q-95 0 -153.5 56t-58.5 147v332h48v-320q0 -78 49 -125.5t129 -47.5t129 47.5t49 125.5v320z" />
    <glyph glyph-name="z.ss02" horiz-adv-x="485" 
d="M34 0l333 484h-329v41h408l-333 -484h338v-41h-417z" />
    <glyph glyph-name="zacute.ss02" horiz-adv-x="485" 
d="M212 620l128 145h63l-147 -145h-44zM34 0l333 484h-329v41h408l-333 -484h338v-41h-417z" />
    <glyph glyph-name="zcaron.ss02" horiz-adv-x="485" 
d="M269 620h-53l-129 145h49l107 -116l106 116h48zM113 41h338v-41h-417l333 484h-329v41h408z" />
    <glyph glyph-name="zdotaccent.ss02" horiz-adv-x="485" 
d="M243 675q-16 0 -26.5 10.5t-10.5 26.5q0 15 10.5 25.5t26.5 10.5q15 0 25.5 -10.5t10.5 -25.5q0 -16 -10.5 -26.5t-25.5 -10.5zM34 0l333 484h-329v41h408l-333 -484h338v-41h-417z" />
    <glyph glyph-name="fi.ss01" horiz-adv-x="562" 
d="M86 650q0 63 40.5 101.5t105.5 38.5q63 0 103 -20l-4 -40q-35 18 -88 18q-49 0 -79 -29t-30 -77v-117h194v-41h-194v-484h-48v650zM449 748q16 0 26.5 -10.5t10.5 -25.5q0 -16 -10.5 -26.5t-26.5 -10.5q-15 0 -25.5 10.5t-10.5 26.5q0 15 10.5 25.5t25.5 10.5zM426 0v525
h48v-525h-48z" />
    <glyph glyph-name="fl.ss01" horiz-adv-x="566" 
d="M86 650q0 63 40.5 101.5t105.5 38.5q63 0 103 -20l-4 -40q-35 18 -88 18q-49 0 -79 -29t-30 -77v-117h194v-41h-194v-484h-48v650zM428 780h48v-780h-48v780z" />
    <glyph glyph-name="fi.ss02" horiz-adv-x="588" 
d="M113 525v255h247v-41h-199v-214h194v-41h-194v-484h-48v484h-93v41h93zM475 748q16 0 26.5 -10.5t10.5 -25.5q0 -16 -10.5 -26.5t-26.5 -10.5q-15 0 -25.5 10.5t-10.5 26.5q0 15 10.5 25.5t25.5 10.5zM452 0v525h48v-525h-48z" />
    <glyph glyph-name="fl.ss02" horiz-adv-x="623" 
d="M113 525v255h247v-41h-199v-214h194v-41h-194v-484h-48v484h-93v41h93zM502 41h115v-41h-163v780h48v-739z" />
    <glyph glyph-name="zero.lf" horiz-adv-x="681" 
d="M307 -10q-114 0 -184 104.5t-70 275.5t70 275.5t184 104.5q115 0 184.5 -104.5t69.5 -275.5t-69.5 -275.5t-184.5 -104.5zM307 33q91 0 145.5 92.5t54.5 244.5t-54.5 244.5t-145.5 92.5t-145.5 -92.5t-54.5 -244.5t54.5 -244.5t145.5 -92.5z" />
    <glyph glyph-name="one.lf" horiz-adv-x="400" 
d="M243 0v671l-200 -146l-28 38l240 177h39v-740h-51z" />
    <glyph glyph-name="two.lf" horiz-adv-x="553" 
d="M48 0v34l222 239q4 4 25.5 27t29 31.5t27 31t28 35.5t22 35.5t20 39.5t11.5 39t5 43q0 70 -45 111t-119 41q-76 0 -121.5 -44t-45.5 -116l-53 4q0 89 60.5 144t158.5 55t157.5 -51.5t59.5 -138.5q0 -37 -13 -75t-26.5 -64.5t-46 -67t-47 -56t-54.5 -57.5l-185 -197h383
v-43h-453z" />
    <glyph glyph-name="three.lf" horiz-adv-x="557" 
d="M270 418q106 0 171 -57.5t65 -151.5q0 -99 -68.5 -159t-182.5 -60q-147 0 -210 87l21 38q60 -82 183 -82q91 0 146.5 48t55.5 128q0 76 -54.5 122t-143.5 46q-68 0 -120 -26l-13 27l294 319h-344v43h414v-33l-275 -294q32 5 61 5z" />
    <glyph glyph-name="four.lf" horiz-adv-x="597" 
d="M398 0v167h-375v40l383 533h44v-530h115v-43h-115v-167h-52zM81 209h319v445z" />
    <glyph glyph-name="five.lf" horiz-adv-x="561" 
d="M251 -10q-139 0 -210 70l16 40q67 -67 190 -67q94 0 151.5 50.5t57.5 132.5q0 80 -50.5 129t-133.5 49q-74 0 -149 -26l-36 5l51 367h339v-43h-293l-42 -279q69 20 139 20q103 0 166 -60.5t63 -158.5q0 -103 -71.5 -166t-187.5 -63z" />
    <glyph glyph-name="six.lf" horiz-adv-x="552" 
d="M289 445q99 0 161.5 -62.5t62.5 -163.5q0 -103 -64 -166t-169 -63t-169 62.5t-64 164.5q0 88 49 157l244 366h59l-217 -318q46 23 107 23zM280 33q80 0 129.5 51t49.5 134q0 84 -49.5 135t-129.5 51t-129.5 -51t-49.5 -135q0 -83 49.5 -134t129.5 -51z" />
    <glyph glyph-name="seven.lf" horiz-adv-x="497" 
d="M21 740h457l-270 -740h-56l258 697h-389v43z" />
    <glyph glyph-name="eight.lf" horiz-adv-x="587" 
d="M382 384q68 -20 106.5 -70t38.5 -120q0 -91 -64.5 -147.5t-168.5 -56.5q-105 0 -169.5 56t-64.5 147q0 70 39 120.5t107 70.5q-59 20 -92.5 65.5t-33.5 108.5q0 86 59 139t155 53q95 0 154 -52.5t59 -138.5q0 -62 -33.5 -108.5t-91.5 -66.5zM134 555q0 -67 44 -108.5
t115 -41.5q72 0 115.5 41t43.5 109t-43.5 110t-115.5 42q-71 0 -115 -42t-44 -110zM293 33q81 0 130 45t49 119t-49 119t-130 45q-80 0 -129.5 -45t-49.5 -119t49.5 -119t129.5 -45z" />
    <glyph glyph-name="nine.lf" horiz-adv-x="552" 
d="M272 750q105 0 169 -62.5t64 -164.5q0 -88 -49 -157l-244 -366h-59l217 318q-46 -23 -107 -23q-99 0 -161.5 62.5t-62.5 163.5q0 103 64 166t169 63zM93 522q0 -84 49.5 -135t129.5 -51t129.5 51t49.5 135q0 83 -49.5 134t-129.5 51t-129.5 -51t-49.5 -134z" />
    <glyph glyph-name="zero.osf" horiz-adv-x="650" 
d="M326 -10q-123 0 -198 88.5t-75 233.5q0 146 75 234.5t198 88.5q122 0 196.5 -89t74.5 -234t-74.5 -233.5t-196.5 -88.5zM326 32q98 0 158.5 77t60.5 203q0 127 -60.5 204t-158.5 77q-100 0 -160.5 -77t-60.5 -204q0 -126 60.5 -203t160.5 -77z" />
    <glyph glyph-name="one.osf" horiz-adv-x="350" 
d="M198 0v559l-149 -108l-26 36l187 138h36v-625h-48z" />
    <glyph glyph-name="two.osf" horiz-adv-x="566" 
d="M56 0v34l242 188q30 23 50 40.5t46.5 46.5t40.5 62.5t14 68.5q0 69 -45.5 111t-121.5 42t-123 -44.5t-47 -116.5l-49 4q0 89 60 144t159 55q98 0 157.5 -52.5t59.5 -138.5q0 -43 -15.5 -81.5t-47 -73t-54 -54.5t-62.5 -50l-189 -144h378v-41h-453z" />
    <glyph glyph-name="three.osf" horiz-adv-x="569" 
d="M279 310q104 0 168 -56.5t64 -148.5q0 -97 -68 -156t-180 -59q-145 0 -210 87l21 38q58 -83 184 -83q91 0 146.5 47.5t55.5 125.5q0 75 -55 120.5t-144 45.5q-67 0 -119 -27l-13 27l297 313h-347v41h414v-34l-275 -286q32 5 61 5z" />
    <glyph glyph-name="four.osf" horiz-adv-x="593" 
d="M402 -110v110h-378v37l383 588h43v-584h116v-41h-116v-110h-48zM80 40h324v496z" />
    <glyph glyph-name="five.osf" horiz-adv-x="565" 
d="M251 -110q-139 0 -210 70l15 38q66 -66 190 -66q94 0 152 50t58 130q0 79 -50.5 127t-133.5 48q-72 0 -150 -27l-35 5l51 360h339v-41h-296l-42 -276q68 21 142 21q101 0 163.5 -59t62.5 -155q0 -101 -71 -163t-185 -62z" />
    <glyph glyph-name="six.osf" horiz-adv-x="547" 
d="M286 445q100 0 160.5 -62t60.5 -164q0 -103 -63 -166t-167 -63q-103 0 -166 62.5t-63 164.5q0 89 47 157l246 366h56l-217 -319q46 24 106 24zM277 33q81 0 130 51t49 134q0 84 -49 135t-130 51q-80 0 -129.5 -51t-49.5 -135q0 -83 49.5 -134t129.5 -51z" />
    <glyph glyph-name="seven.osf" horiz-adv-x="530" 
d="M40 625h457l-265 -729l-46 13l244 675h-390v41z" />
    <glyph glyph-name="eight.osf" horiz-adv-x="580" 
d="M377 384q67 -20 105 -70t38 -120q0 -92 -63.5 -148t-166.5 -56q-104 0 -167 56t-63 147q0 70 38 120.5t105 70.5q-57 20 -90 65.5t-33 108.5q0 86 58 139t152 53q95 0 152.5 -52.5t57.5 -138.5q0 -62 -33 -108.5t-90 -66.5zM131 555q0 -68 43.5 -109t115.5 -41
q71 0 115 41.5t44 108.5q0 68 -44 110t-115 42q-72 0 -115.5 -42t-43.5 -110zM290 33q80 0 129.5 45t49.5 119t-49.5 119t-129.5 45q-81 0 -130 -45t-49 -119t49 -119t130 -45z" />
    <glyph glyph-name="nine.osf" horiz-adv-x="549" 
d="M269 635q104 0 167 -62.5t63 -165.5q0 -88 -48 -156l-238 -355l-47 13l200 294q-46 -24 -105 -24q-100 0 -161 62.5t-61 164.5q0 103 63 166t167 63zM90 406q0 -83 49.5 -134.5t129.5 -51.5t129.5 51.5t49.5 134.5q0 84 -49.5 134.5t-129.5 50.5t-129.5 -50.5
t-49.5 -134.5z" />
    <glyph glyph-name="one.ss02" horiz-adv-x="319" 
d="M162 0v697h-143v43h194v-740h-51z" />
    <glyph glyph-name="one.lf.ss02" horiz-adv-x="319" 
d="M162 0v697h-143v43h194v-740h-51z" />
    <glyph glyph-name="one.osf.ss02" horiz-adv-x="326" 
d="M174 0v584h-134v41h182v-625h-48z" />
    <glyph glyph-name="one.tf.ss02" 
d="M377 43h152v-43h-432v43h228v654h-173v43h225v-697z" />
    <glyph glyph-name="one.tosf.ss02" 
d="M377 41h156v-41h-432v41h228v543h-164v41h212v-584z" />
    <glyph glyph-name="zero.tf" 
d="M308 -10q-104 0 -167.5 104.5t-63.5 275.5t63.5 275.5t167.5 104.5q103 0 166.5 -104.5t63.5 -275.5t-63.5 -275.5t-166.5 -104.5zM308 33q79 0 127.5 92.5t48.5 244.5t-48.5 244.5t-127.5 92.5q-80 0 -128.5 -92.5t-48.5 -244.5t48.5 -244.5t128.5 -92.5z" />
    <glyph glyph-name="one.tf" 
d="M388 43h152v-43h-431v43h228v628l-200 -146l-28 38l240 177h39v-697z" />
    <glyph glyph-name="two.tf" 
d="M79 0v34l222 239q2 2 25.5 27t29.5 31.5t26 30.5t27.5 36t22 35t20.5 40t11 39t5 43q0 70 -44.5 111t-118.5 41q-76 0 -121.5 -44t-45.5 -116l-53 4q0 89 60 144t159 55q98 0 157.5 -51.5t59.5 -138.5q0 -35 -11.5 -71t-25 -62.5t-42 -63.5t-44.5 -54t-51 -55
q-3 -3 -4.5 -5t-4 -4.5l-4.5 -4.5l-185 -197h383v-43h-453z" />
    <glyph glyph-name="three.tf" 
d="M299 418q106 0 171 -57.5t65 -151.5q0 -99 -68.5 -159t-182.5 -60q-147 0 -210 87l21 38q60 -82 183 -82q91 0 146.5 48t55.5 128q0 76 -54.5 122t-144.5 46q-67 0 -119 -26l-13 27l294 319h-344v43h414v-33l-275 -294q32 5 61 5z" />
    <glyph glyph-name="four.tf" 
d="M400 0v167h-362v40l369 533h44v-531h116v-42h-116v-167h-51zM95 208h307v446z" />
    <glyph glyph-name="five.tf" 
d="M278 -10q-139 0 -210 70l16 40q67 -67 190 -67q94 0 151.5 50.5t57.5 132.5q0 80 -50.5 129t-133.5 49q-74 0 -149 -26l-36 5l51 367h339v-43h-293l-42 -279q69 20 139 20q103 0 166 -60.5t63 -158.5q0 -103 -71.5 -166t-187.5 -63z" />
    <glyph glyph-name="six.tf" 
d="M320 445q100 0 162 -62.5t62 -163.5q0 -103 -64 -166t-169 -63t-169 62.5t-64 164.5q0 86 49 157l244 366h59l-217 -318q46 23 107 23zM311 33q81 0 130 51t49 134q0 84 -49 135t-130 51q-80 0 -129.5 -51t-49.5 -135q0 -83 49.5 -134t129.5 -51z" />
    <glyph glyph-name="seven.tf" 
d="M80 740h457l-270 -740h-56l258 697h-389v43z" />
    <glyph glyph-name="eight.tf" 
d="M395 384q68 -20 106.5 -70t38.5 -120q0 -92 -64 -148t-169 -56t-169 56t-64 147q0 70 38.5 120.5t106.5 70.5q-59 20 -92 65.5t-33 108.5q0 86 58.5 139t154.5 53t154.5 -52.5t58.5 -138.5q0 -63 -33 -109t-92 -66zM148 555q0 -67 44 -108.5t115 -41.5t115 41.5t44 108.5
q0 68 -44 110t-115 42t-115 -42t-44 -110zM307 33q80 0 129.5 45t49.5 119t-49.5 119t-129.5 45t-129.5 -45t-49.5 -119t49.5 -119t129.5 -45z" />
    <glyph glyph-name="nine.tf" 
d="M303 750q105 0 169 -62.5t64 -164.5q0 -88 -49 -157l-244 -366h-59l217 318q-46 -23 -107 -23q-100 0 -162 62.5t-62 163.5q0 103 64 166t169 63zM124 522q0 -84 49.5 -135t129.5 -51t129.5 51t49.5 135q0 83 -49.5 134t-129.5 51t-129.5 -51t-49.5 -134z" />
    <glyph glyph-name="zero.tosf" 
d="M308 -10q-103 0 -166 88.5t-63 233.5q0 146 63 234.5t166 88.5t165.5 -88.5t62.5 -234.5q0 -145 -62.5 -233.5t-165.5 -88.5zM308 32q79 0 127.5 77t48.5 203q0 127 -48.5 204t-127.5 77q-80 0 -128.5 -77t-48.5 -204q0 -126 48.5 -203t128.5 -77z" />
    <glyph glyph-name="one.tosf" 
d="M361 41h174v-41h-432v41h210v518l-150 -108l-25 36l186 138h37v-584z" />
    <glyph glyph-name="two.tosf" 
d="M80 0v34l242 188q30 23 50 40.5t47 46.5t41 62.5t14 68.5q0 69 -46 111t-121 42q-77 0 -124 -44.5t-47 -116.5l-49 4q0 89 60 144t159 55q98 0 157.5 -52.5t59.5 -138.5q0 -43 -15.5 -81.5t-46.5 -72.5t-54.5 -55t-62.5 -50l-188 -144h377v-41h-453z" />
    <glyph glyph-name="three.tosf" 
d="M302 310q104 0 167.5 -56.5t63.5 -148.5q0 -97 -67.5 -156t-179.5 -59q-147 0 -210 87l20 38q60 -83 185 -83q91 0 146.5 47.5t55.5 125.5q0 75 -55 120.5t-145 45.5q-65 0 -118 -27l-14 27l298 313h-347v41h414v-34l-275 -286q32 5 61 5z" />
    <glyph glyph-name="four.tosf" 
d="M407 -110v110h-366v37l371 588h43v-584h115v-41h-115v-110h-48zM95 40h313l1 496z" />
    <glyph glyph-name="five.tosf" 
d="M276 -110q-139 0 -210 70l15 38q66 -66 190 -66q94 0 152 50t58 130q0 79 -50.5 127t-133.5 48q-71 0 -150 -27l-35 5l51 360h339v-41h-296l-42 -276q68 21 142 21q101 0 163.5 -59t62.5 -155q0 -101 -71 -163t-185 -62z" />
    <glyph glyph-name="six.tosf" 
d="M320 445q100 0 160.5 -62t60.5 -164q0 -103 -62.5 -166t-166.5 -63q-103 0 -166.5 62.5t-63.5 164.5q0 89 48 157l246 366h56l-218 -319q46 24 106 24zM312 33q80 0 129.5 51t49.5 134q0 84 -49.5 135t-129.5 51q-81 0 -130 -51t-49 -135q0 -83 49 -134t130 -51z" />
    <glyph glyph-name="seven.tosf" 
d="M83 625h457l-265 -729l-46 13l244 675h-390v41z" />
    <glyph glyph-name="eight.tosf" 
d="M394 384q67 -20 105 -70t38 -120q0 -92 -63.5 -148t-166.5 -56q-104 0 -167 56t-63 147q0 70 38 120.5t105 70.5q-57 20 -90 65.5t-33 108.5q0 86 58 139t152 53q95 0 152.5 -52.5t57.5 -138.5q0 -62 -33 -108.5t-90 -66.5zM148 555q0 -67 44 -108.5t115 -41.5t115 41.5
t44 108.5q0 68 -44 110t-115 42t-115 -42t-44 -110zM307 33q80 0 129.5 45t49.5 119t-49.5 119t-129.5 45t-129.5 -45t-49.5 -119t49.5 -119t129.5 -45z" />
    <glyph glyph-name="nine.tosf" 
d="M303 635q103 0 166 -62.5t63 -165.5q0 -88 -48 -156l-238 -355l-46 13l201 295q-50 -25 -107 -25q-100 0 -160.5 62.5t-60.5 164.5q0 103 63 166t167 63zM123 406q0 -83 49.5 -134.5t129.5 -51.5q81 0 130 51.5t49 134.5q0 84 -49 134.5t-130 50.5q-80 0 -129.5 -50.5
t-49.5 -134.5z" />
    <glyph glyph-name="zero.dnom" horiz-adv-x="381" 
d="M191 -6q-70 0 -112.5 62.5t-42.5 165.5t42.5 165.5t112.5 62.5t112 -62.5t42 -165.5t-42 -165.5t-112 -62.5zM191 27q52 0 84 53.5t32 141.5t-32 141.5t-84 53.5t-83.5 -53.5t-31.5 -141.5t31.5 -141.5t83.5 -53.5z" />
    <glyph glyph-name="one.dnom" horiz-adv-x="254" 
d="M147 0v393l-115 -84l-20 28l144 107h30v-444h-39z" />
    <glyph glyph-name="two.dnom" horiz-adv-x="348" 
d="M34 0v26l134 143q2 2 14.5 15t17 18t15.5 18.5t16 21t13 20.5t11.5 23t6.5 22.5t3 24.5q0 39 -25 62t-67 23q-43 0 -69 -25t-26 -66l-39 3q0 55 36.5 88t96.5 33q59 0 95.5 -31.5t36.5 -83.5q0 -26 -8.5 -51t-28.5 -52t-33 -42.5t-41 -44.5l-107 -113l224 1v-33h-276z
" />
    <glyph glyph-name="three.dnom" horiz-adv-x="347" 
d="M169 253q64 0 103 -34.5t39 -91.5q0 -60 -41.5 -96.5t-111.5 -36.5q-88 0 -128 51l16 29q35 -47 107 -47q53 0 85 27t32 73q0 43 -31.5 69.5t-82.5 26.5q-39 0 -69 -15l-12 20l168 183h-196v33h250v-24l-158 -169q10 2 30 2z" />
    <glyph glyph-name="four.dnom" horiz-adv-x="373" 
d="M241 0v98h-222v29l228 317h33v-313h68v-33h-68v-98h-39zM60 129h182l1 254z" />
    <glyph glyph-name="five.dnom" horiz-adv-x="350" 
d="M156 -6q-84 0 -127 42l11 29q39 -38 112 -38q56 0 89 28.5t33 76.5q0 45 -28.5 73t-76.5 28q-43 0 -86 -17l-26 4l30 224h207v-33h-173l-23 -157q39 11 78 11q62 0 100.5 -36.5t38.5 -95.5q0 -62 -44 -100.5t-115 -38.5z" />
    <glyph glyph-name="six.dnom" horiz-adv-x="346" 
d="M182 268q59 0 97 -38t38 -99q0 -62 -39 -99.5t-103 -37.5q-65 0 -104 37.5t-39 99.5q0 52 33 99l143 214h44l-129 -186q28 10 59 10zM175 27q46 0 74 28.5t28 75.5q0 48 -28 77.5t-74 29.5t-74 -29.5t-28 -77.5q0 -47 28 -75.5t74 -28.5z" />
    <glyph glyph-name="seven.dnom" horiz-adv-x="310" 
d="M17 444h277l-159 -444h-41l149 411h-226v33z" />
    <glyph glyph-name="eight.dnom" horiz-adv-x="367" 
d="M242 230q39 -13 61.5 -42.5t22.5 -70.5q0 -55 -39 -89t-103 -34t-103 33.5t-39 89.5q0 41 22 70.5t61 42.5q-33 13 -52 40.5t-19 63.5q0 52 35.5 84t94.5 32t94.5 -31.5t35.5 -83.5q0 -76 -72 -105zM94 332q0 -39 24.5 -62.5t65.5 -23.5q40 0 65 23.5t25 62.5
q0 38 -25 61.5t-65 23.5t-65 -23.5t-25 -61.5zM184 27q46 0 74 25t28 67q0 43 -28 69t-74 26t-74 -26t-28 -69q0 -42 28 -67t74 -25z" />
    <glyph glyph-name="nine.dnom" horiz-adv-x="346" 
d="M171 450q65 0 104 -37.5t39 -99.5q0 -52 -33 -99l-143 -214h-44l129 186q-28 -10 -59 -10q-59 0 -97 38t-38 99q0 62 39 99.5t103 37.5zM69 313q0 -48 28 -77.5t74 -29.5t74 29.5t28 77.5q0 47 -28 75.5t-74 28.5t-74 -28.5t-28 -75.5z" />
    <glyph glyph-name="zero.numr" horiz-adv-x="381" 
d="M191 290q-70 0 -112.5 62.5t-42.5 165.5t42.5 165.5t112.5 62.5t112 -62.5t42 -165.5t-42 -165.5t-112 -62.5zM191 323q52 0 84 53.5t32 141.5t-32 141.5t-84 53.5t-83.5 -53.5t-31.5 -141.5t31.5 -141.5t83.5 -53.5z" />
    <glyph glyph-name="one.numr" horiz-adv-x="254" 
d="M147 296v393l-115 -84l-20 28l144 107h30v-444h-39z" />
    <glyph glyph-name="two.numr" horiz-adv-x="348" 
d="M34 296v26l134 143q2 2 14.5 15t17 18t15.5 18.5t16 21t13 20.5t11.5 23t6.5 22.5t3 24.5q0 39 -25 62t-67 23q-43 0 -69 -25t-26 -66l-39 3q0 55 36.5 88t96.5 33q59 0 95.5 -31.5t36.5 -83.5q0 -26 -8.5 -51t-28.5 -52t-33 -42.5t-41 -44.5l-107 -113l224 1v-33h-276z
" />
    <glyph glyph-name="three.numr" horiz-adv-x="347" 
d="M169 549q64 0 103 -34.5t39 -91.5q0 -60 -41.5 -96.5t-111.5 -36.5q-88 0 -128 51l16 29q35 -47 107 -47q53 0 85 27t32 73q0 43 -31.5 69.5t-82.5 26.5q-39 0 -69 -15l-12 20l168 183h-196v33h250v-24l-158 -169q10 2 30 2z" />
    <glyph glyph-name="four.numr" horiz-adv-x="373" 
d="M241 296v98h-222v29l228 317h33v-313h68v-33h-68v-98h-39zM60 425h182l1 254z" />
    <glyph glyph-name="five.numr" horiz-adv-x="350" 
d="M156 290q-84 0 -127 42l11 29q39 -38 112 -38q56 0 89 28.5t33 76.5q0 45 -28.5 73t-76.5 28q-43 0 -86 -17l-26 4l30 224h207v-33h-173l-23 -157q39 11 78 11q62 0 100.5 -36.5t38.5 -95.5q0 -62 -44 -100.5t-115 -38.5z" />
    <glyph glyph-name="six.numr" horiz-adv-x="346" 
d="M182 564q59 0 97 -38t38 -99q0 -62 -39 -99.5t-103 -37.5q-65 0 -104 37.5t-39 99.5q0 52 33 99l143 214h44l-129 -186q28 10 59 10zM175 323q46 0 74 28.5t28 75.5q0 48 -28 77.5t-74 29.5t-74 -29.5t-28 -77.5q0 -47 28 -75.5t74 -28.5z" />
    <glyph glyph-name="seven.numr" horiz-adv-x="310" 
d="M17 740h277l-159 -444h-41l149 411h-226v33z" />
    <glyph glyph-name="eight.numr" horiz-adv-x="367" 
d="M242 526q39 -13 61.5 -42.5t22.5 -70.5q0 -55 -39 -89t-103 -34t-103 33.5t-39 89.5q0 41 22 70.5t61 42.5q-33 13 -52 40.5t-19 63.5q0 52 35.5 84t94.5 32t94.5 -31.5t35.5 -83.5q0 -76 -72 -105zM94 628q0 -39 24.5 -62.5t65.5 -23.5q40 0 65 23.5t25 62.5
q0 38 -25 61.5t-65 23.5t-65 -23.5t-25 -61.5zM184 323q46 0 74 25t28 67q0 43 -28 69t-74 26t-74 -26t-28 -69q0 -42 28 -67t74 -25z" />
    <glyph glyph-name="nine.numr" horiz-adv-x="346" 
d="M171 746q65 0 104 -37.5t39 -99.5q0 -52 -33 -99l-143 -214h-44l129 186q-28 -10 -59 -10q-59 0 -97 38t-38 99q0 62 39 99.5t103 37.5zM69 609q0 -48 28 -77.5t74 -29.5t74 29.5t28 77.5q0 47 -28 75.5t-74 28.5t-74 -28.5t-28 -75.5z" />
    <glyph glyph-name="uni2081.ss02" horiz-adv-x="208" 
d="M101 -100v411h-83v33h122v-444h-39z" />
    <glyph glyph-name="one.dnom.ss02" horiz-adv-x="208" 
d="M101 0v411h-83v33h122v-444h-39z" />
    <glyph glyph-name="one.numr.ss02" horiz-adv-x="208" 
d="M101 296v411h-83v33h122v-444h-39z" />
    <glyph glyph-name="uni00B9.ss02" horiz-adv-x="208" 
d="M101 396v411h-83v33h122v-444h-39z" />
    <glyph glyph-name="onehalf.ss02" horiz-adv-x="743" 
d="M100 -10l-31 20l434 740l31 -20zM101 296v411h-83v33h122v-444h-39zM429 0v26l134 143q2 2 14.5 15t17 18t15.5 18.5t16 21t13 20.5t11.5 23t6.5 22.5t3 24.5q0 39 -25 62t-67 23q-43 0 -69 -25t-26 -66l-39 3q0 55 36.5 88t96.5 33q59 0 95.5 -31.5t36.5 -83.5
q0 -26 -8.5 -51t-28.5 -52t-33 -42.5t-41 -44.5l-107 -113l224 1v-33h-276z" />
    <glyph glyph-name="onequarter.ss02" horiz-adv-x="731" 
d="M100 -10l-31 20l434 740l31 -20zM101 296v411h-83v33h122v-444h-39zM599 0v98h-222v29l228 317h33v-313h68v-33h-68v-98h-39zM418 129h182l1 254z" />
    <glyph glyph-name="oneeighth.ss02" horiz-adv-x="762" 
d="M503 750l31 -20l-434 -740l-31 20zM101 296v411h-83v33h122v-444h-39zM637 230q39 -13 61.5 -42.5t22.5 -70.5q0 -55 -39 -89t-103 -34t-103 33.5t-39 89.5q0 41 22 70.5t61 42.5q-33 13 -52 40.5t-19 63.5q0 52 35.5 84t94.5 32t94.5 -31.5t35.5 -83.5q0 -76 -72 -105z
M489 332q0 -39 24.5 -62.5t65.5 -23.5q40 0 65 23.5t25 62.5q0 38 -25 61.5t-65 23.5q-41 0 -65.5 -23.5t-24.5 -61.5zM579 27q46 0 74 25t28 67q0 43 -28 69t-74 26t-74 -26t-28 -69q0 -42 28 -67t74 -25z" />
    <glyph glyph-name="exclamdown.case" horiz-adv-x="258" 
d="M129 750q15 0 25.5 -10.5t10.5 -25.5q0 -16 -10.5 -26t-25.5 -10q-16 0 -26 10t-10 26q0 15 10 25.5t26 10.5zM107 596h44l4 -596h-52z" />
    <glyph glyph-name="questiondown.case" horiz-adv-x="508" 
d="M265 750q16 0 26 -10.5t10 -25.5q0 -16 -10 -26t-26 -10q-15 0 -25.5 10t-10.5 26q0 15 10.5 25.5t25.5 10.5zM287 596q0 -66 -10 -115t-31 -82.5t-37 -50.5t-44 -41q-24 -20 -37 -33t-24 -38t-11 -56q0 -66 45.5 -106.5t119.5 -40.5q73 0 118.5 40.5t48.5 106.5l49 -2
q-3 -85 -62.5 -136.5t-153.5 -51.5q-99 0 -159 51.5t-60 134.5q0 30 6.5 54t21 43.5t26 31t33.5 30.5q28 24 43 40t35.5 47t29.5 74t9 100h44z" />
    <glyph glyph-name="slash.case" horiz-adv-x="349" 
d="M49 0l201 740h49l-201 -740h-49z" />
    <glyph glyph-name="braceleft.case" horiz-adv-x="399" 
d="M264 -50q-58 0 -93.5 38t-35.5 100v132q0 58 -24 93t-62 35h-9v44h9q38 0 62 35t24 93v132q0 62 35.5 100t93.5 38q50 0 96 -12v-42q-46 11 -86 11q-39 0 -63.5 -29.5t-24.5 -76.5v-126q0 -55 -20.5 -95t-54.5 -50q34 -10 54.5 -50t20.5 -95v-126q0 -47 24.5 -76.5
t63.5 -29.5q40 0 86 11v-42q-46 -12 -96 -12z" />
    <glyph glyph-name="braceright.case" horiz-adv-x="399" 
d="M135 -50q-50 0 -95 12v42q46 -11 85 -11q40 0 64 29.5t24 76.5v126q0 55 20.5 95t54.5 50q-34 10 -54.5 50t-20.5 95v126q0 47 -24 76.5t-64 29.5q-39 0 -85 -11v42q45 12 95 12q59 0 94.5 -38t35.5 -100v-132q0 -58 23.5 -93t61.5 -35h9v-44h-9q-38 0 -61.5 -35
t-23.5 -93v-132q0 -62 -35.5 -100t-94.5 -38z" />
    <glyph glyph-name="bracketleft.case" horiz-adv-x="360" 
d="M106 -40v820h216v-42h-167v-736h167v-42h-216z" />
    <glyph glyph-name="bracketright.case" horiz-adv-x="360" 
d="M254 -40h-216v42h167v736h-167v42h216v-820z" />
    <glyph glyph-name="parenleft.case" horiz-adv-x="288" 
d="M207 -40q-148 195 -148 410t148 410h44q-51 -71 -95.5 -183t-44.5 -227t44.5 -227t95.5 -183h-44z" />
    <glyph glyph-name="parenright.case" horiz-adv-x="288" 
d="M37 -40q51 71 95.5 183t44.5 227t-44.5 227t-95.5 183h44q148 -195 148 -410t-148 -410h-44z" />
    <glyph glyph-name="logo" horiz-adv-x="1274" 
d="M76 -10q-17 0 -17 18q0 10 5 15l342 341h-324q-23 0 -23 19q0 7 7 16l340 342h-327q-20 0 -20 19v1q0 19 20 19h370q23 0 23 -20q0 -10 -8 -17l-341 -340h330q8 0 14 -6t6 -14v-327l339 338q7 8 17 8q18 0 18 -22v-324l340 338q6 8 16 8q7 0 12 -5.5t5 -13.5q0 -9 -6 -14
l-368 -372q-7 -7 -17 -7q-20 0 -20 23v324l-339 -340q-7 -7 -17 -7q-20 0 -20 23v324l-340 -340q-7 -7 -17 -7z" />
    </font>
</defs>
</svg>
