<svg width="1104" height="807" viewBox="0 0 1104 807" fill="none" xmlns="http://www.w3.org/2000/svg">
<g clip-path="url(#clip0_4_54)">
<path opacity="0.13" d="M8.04999 652.8C-35.23 491.76 109.39 474.92 122.7 362.64C94.72 211.28 75.31 118.56 233.63 36.0499C368.79 -49.0401 510.99 41.2099 651.13 56.3299C718.4 71.0299 786.83 46.5799 854.48 55.8199C980.48 68.7999 1074.15 177.19 1099.65 296.69C1130.04 476.03 963.43 669.12 792.34 701.44C695.18 720.6 604.37 655.13 507.94 671.69C423.09 680.06 360.48 739.88 290.63 781.99C180.12 843.11 26.99 783.37 8.03999 652.81L8.04999 652.8Z" fill="#FF8200">
                                    <animate attributeName="d" values="M8.04999 652.8C-35.23 491.76 109.39 474.92 122.7 362.64C94.72 211.28 75.31 118.56 233.63 36.0499C368.79 -49.0401 510.99 41.2099 651.13 56.3299C718.4 71.0299 786.83 46.5799 854.48 55.8199C980.48 68.7999 1074.15 177.19 1099.65 296.69C1130.04 476.03 963.43 669.12 792.34 701.44C695.18 720.6 604.37 655.13 507.94 671.69C423.09 680.06 360.48 739.88 290.63 781.99C180.12 843.11 26.99 783.37 8.03999 652.81L8.04999 652.8Z;M8.05008 652.799C-35.2299 491.76 160.69 509.279 174 396.999C146.02 245.639 108.68 106.01 267 23.4998C402.16 -61.5902 467.86 112.879 608 127.999C675.27 142.699 839.35 56.26 907 65.5C1033 78.48 1061 243.14 1086.5 362.64C1116.89 541.98 1025.57 652.18 854.48 684.5C757.32 703.66 578.43 616.94 482 633.5C397.15 641.87 360.48 739.88 290.63 781.99C180.12 843.11 26.9901 783.37 8.04008 652.81L8.05008 652.799Z;M8.04999 652.8C-35.23 491.76 109.39 474.92 122.7 362.64C94.72 211.28 75.31 118.56 233.63 36.0499C368.79 -49.0401 510.99 41.2099 651.13 56.3299C718.4 71.0299 786.83 46.5799 854.48 55.8199C980.48 68.7999 1074.15 177.19 1099.65 296.69C1130.04 476.03 963.43 669.12 792.34 701.44C695.18 720.6 604.37 655.13 507.94 671.69C423.09 680.06 360.48 739.88 290.63 781.99C180.12 843.11 26.99 783.37 8.03999 652.81L8.04999 652.8Z" begin="0s" dur="16s" repeatCount="indefinite" fill="freeze" calcMode="linear" keyTimes="0;0.5;1"/></path>
</g>
<defs>
<clipPath id="clip0_4_54">
<rect width="1103.26" height="806.04" fill="white"/>
</clipPath>
</defs>
</svg>