<svg width="53" height="33" viewBox="0 0 53 33" fill="none" xmlns="http://www.w3.org/2000/svg">
<path d="M52.7719 0H0.666626V33H52.7719V0ZM26.7193 31.8168L5.66005 16.5109L26.7193 1.20493L47.7785 16.5109L26.7193 31.8168Z" fill="#7E7E7E"/>
<path d="M19.6416 9.40066C25.8834 11.2461 31.6258 14.7523 36.109 19.4745C36.4021 18.5408 36.5541 17.5421 36.5541 16.5109C36.5541 11.0181 32.1034 6.55658 26.5998 6.55658C23.8969 6.55658 21.4327 7.64211 19.6416 9.40066Z" fill="#7E7E7E"/>
<path d="M18.0784 11.3763C17.1774 12.8743 16.6564 14.6329 16.6564 16.5109C16.6564 22.0036 21.107 26.4651 26.6106 26.4651C30.182 26.4651 33.3083 24.5872 35.0669 21.7541C30.5294 16.7387 24.6133 13.1132 18.0784 11.3763Z" fill="#7E7E7E"/>
</svg>
