<svg width="" height="" viewBox="0 0 251 180" fill="none" xmlns="http://www.w3.org/2000/svg">
<rect width="251" height="180" />
<path d="M150.486 18.76C164.636 20.95 178.806 23.13 192.276 28.26C195.996 29.68 199.596 31.48 203.126 33.35C206.716 35.25 208.396 38.31 207.386 42.4C206.346 46.64 205.346 50.91 203.946 55.03C201.736 61.51 169.996 125.55 144.136 139.88C126.406 150.26 105.076 160.97 74.8255 147.63C60.8855 139.36 56.1855 127.05 54.1455 113.3C51.8455 97.76 57.6755 36.93 59.3255 28.54C60.3955 23.1 63.9055 20.22 68.9555 19.26C74.7455 18.15 80.6155 17.2 86.4855 16.83C107.866 15.49 129.226 15.54 150.486 18.76Z" fill="#FF8200">
                                    <animate attributeName="d" values="M150.486 18.76C164.636 20.95 178.806 23.13 192.276 28.26C195.996 29.68 199.596 31.48 203.126 33.35C206.716 35.25 208.396 38.31 207.386 42.4C206.346 46.64 205.346 50.91 203.946 55.03C201.736 61.51 169.996 125.55 144.136 139.88C126.406 150.26 105.076 160.97 74.8255 147.63C60.8855 139.36 56.1855 127.05 54.1455 113.3C51.8455 97.76 57.6755 36.93 59.3255 28.54C60.3955 23.1 63.9055 20.22 68.9555 19.26C74.7455 18.15 80.6155 17.2 86.4855 16.83C107.866 15.49 129.226 15.54 150.486 18.76Z;M133.5 19.5C143 21 168.222 29.8272 185.89 43.86C188.547 45.9704 191.5 48.4342 192.5 49.5C193.5 50.5658 195.01 53.91 194 58C192.96 62.24 191.96 66.51 190.56 70.63C187.172 80.6 175.5 140.5 144.136 139.88C112.771 139.26 99.0756 169.97 68.8256 156.63C54.8856 148.36 52.2912 125.6 54.1456 113.3C56 101 57.6756 36.93 59.3256 28.54C60.3956 23.1 63.9056 20.22 68.9556 19.26C74.7456 18.15 80.6156 17.2 86.4856 16.83C107.866 15.49 124 18 133.5 19.5Z;M150.486 18.76C164.636 20.95 178.806 23.13 192.276 28.26C195.996 29.68 199.596 31.48 203.126 33.35C206.716 35.25 208.396 38.31 207.386 42.4C206.346 46.64 205.346 50.91 203.946 55.03C201.736 61.51 169.996 125.55 144.136 139.88C126.406 150.26 105.076 160.97 74.8255 147.63C60.8855 139.36 56.1855 127.05 54.1455 113.3C51.8455 97.76 57.6755 36.93 59.3255 28.54C60.3955 23.1 63.9055 20.22 68.9555 19.26C74.7455 18.15 80.6155 17.2 86.4855 16.83C107.866 15.49 129.226 15.54 150.486 18.76Z" begin="0s" dur="16s" repeatCount="indefinite" fill="freeze" calcMode="linear" keyTimes="0;0.5;1"/></path>
</svg>