<?xml version="1.0" encoding="UTF-8"?>
<svg id="Layer_2" data-name="Layer 2" xmlns="http://www.w3.org/2000/svg" viewBox="0 0 166.55 165.03">
  <defs>
    <style>
      .cls-5 {
        fill: #4ba392;
        stroke-width: 0px;
      }
    </style>
  </defs>
  <g id="Layer_1-2" data-name="Layer 1">
    <path class="cls-5" d="M.15,80.93c.94,25.26,10.2,51.35,29.96,67.11,14.88,11.86,34.36,16.83,53.39,17,19.03.16,37.8-4.14,56.15-9.16,9.91-2.71,20.9-6.58,25.22-15.9,4.53-9.79-.7-21.88-9.18-28.54-8.48-6.66-19.41-9.16-29.97-11.38-10.55-2.22-21.49-4.5-30.21-10.85-9.41-6.85-15.12-17.67-19.08-28.61-3.96-10.94-6.53-22.4-11.34-32.99-4.81-10.59-12.38-20.58-23.13-25.03C.93-14.41-.72,57.43.15,80.93Z"/>
  </g>
</svg>