<?xml version="1.0" encoding="UTF-8"?>
<svg id="Layer_2" data-name="Layer 2" xmlns="http://www.w3.org/2000/svg" viewBox="0 0 154.05 137.86">
  <defs>
    <style>
      .cls-1 {
        fill: #ff8200;
        stroke-width: 0px;
      }
    </style>
  </defs>
  <g id="Layer_1-2" data-name="Layer 1">
    <path class="cls-1" d="M96.87,2.76c14.15,2.19,28.32,4.37,41.79,9.5,3.72,1.42,7.32,3.22,10.85,5.09,3.59,1.9,5.27,4.96,4.26,9.05-1.04,4.24-2.04,8.51-3.44,12.63-2.21,6.48-33.95,70.52-59.81,84.85-17.73,10.38-39.06,21.09-69.31,7.75C7.27,123.36,2.57,111.05.53,97.3-1.77,81.76,4.06,20.93,5.71,12.54c1.07-5.44,4.58-8.32,9.63-9.28,5.79-1.11,11.66-2.06,17.53-2.43,21.38-1.34,42.74-1.29,64,1.93Z"/>
  </g>
</svg>