<?xml version="1.0" encoding="UTF-8"?>
<svg id="Layer_2" data-name="Layer 2" xmlns="http://www.w3.org/2000/svg" viewBox="0 0 138.16 167.76">
  <defs>
    <style>
      .cls-3 {
        fill: #54bcca;
        stroke-width: 0px;
      }
    </style>
  </defs>
  <g id="Layer_1-2" data-name="Layer 1">
    <path class="cls-3" d="M138.14,92.31c.31,18.53-6.39,30.18-17.53,39.42-17.74,14.72-34.39,23.12-53.53,31.41-1.6.62-5.84,2.52-9.57,3.51-6.24,2.25-12.13,1.11-15.55-4-3.7-5.53-7.37-12.78-9.65-18.96-7.74-21.03-15.04-40.74-22.22-61.97-2.69-7.95-4.81-16.1-7.09-24.19-.99-3.51-1.87-7.07-2.5-10.66-1.54-8.72-.01-12.7,11.05-17.51C26.33,21.51,75.43,1.11,88.46.1c8.68-.67,15.89,1.81,20.94,8.94,13.51,19.05,28.46,67.18,28.74,83.27Z"/>
  </g>
</svg>