<svg width="155" height="138" viewBox="0 0 155 138" fill="none" xmlns="http://www.w3.org/2000/svg">
<path d="M97.4855 2.75999C111.636 4.94999 125.806 7.12999 139.276 12.26C142.996 13.68 146.596 15.48 150.126 17.35C153.716 19.25 155.396 22.31 154.386 26.4C153.346 30.64 152.346 34.91 150.946 39.03C148.736 45.51 116.996 109.55 91.1355 123.88C73.4055 134.26 52.0755 144.97 21.8255 131.63C7.88554 123.36 3.18554 111.05 1.14554 97.3C-1.15446 81.76 4.67554 20.93 6.32554 12.54C7.39554 7.09999 10.9055 4.21999 15.9555 3.25999C21.7455 2.14999 27.6155 1.19999 33.4855 0.829989C54.8655 -0.510011 76.2255 -0.460011 97.4855 2.75999Z" fill="#FF8200"/>
</svg>
