<svg width="" height="" viewBox="0 0 251 180" fill="none" xmlns="http://www.w3.org/2000/svg">
<rect width="251" height="180" />
<path d="M198.275 96.31C198.585 114.84 191.885 126.49 180.745 135.73C163.005 150.45 146.355 158.85 127.215 167.14C125.615 167.76 121.375 169.66 117.645 170.65C111.405 172.9 105.515 171.76 102.095 166.65C98.3953 161.12 94.7253 153.87 92.4453 147.69C84.7053 126.66 77.4053 106.95 70.2253 85.72C67.5353 77.77 65.4153 69.62 63.1353 61.53C62.1453 58.02 61.2653 54.46 60.6353 50.87C59.0953 42.15 60.6253 38.17 71.6853 33.36C86.4653 25.51 135.565 5.11002 148.595 4.10002C157.275 3.43001 164.485 5.91002 169.535 13.04C183.045 32.09 197.995 80.22 198.275 96.31Z" fill="#54BCCA">
                                    <animate attributeName="d" values="M198.275 96.31C198.585 114.84 191.885 126.49 180.745 135.73C163.005 150.45 146.355 158.85 127.215 167.14C125.615 167.76 121.375 169.66 117.645 170.65C111.405 172.9 105.515 171.76 102.095 166.65C98.3953 161.12 94.7253 153.87 92.4453 147.69C84.7053 126.66 77.4053 106.95 70.2253 85.72C67.5353 77.77 65.4153 69.62 63.1353 61.53C62.1453 58.02 61.2653 54.46 60.6353 50.87C59.0953 42.15 60.6253 38.17 71.6853 33.36C86.4653 25.51 135.565 5.11002 148.595 4.10002C157.275 3.43001 164.485 5.91002 169.535 13.04C183.045 32.09 197.995 80.22 198.275 96.31Z;M193.5 67.5C193.81 86.03 189.749 118.325 169.535 140.5C156.379 154.933 146.355 158.85 127.215 167.14C125.615 167.76 121.375 169.66 117.645 170.65C111.405 172.9 105.515 171.76 102.095 166.65C98.3953 161.12 93.5049 150 90 140.5C86.4951 131 84 125 80 106C76 87 72 79 72 79C72 79 68.63 66.59 68 63C66.46 54.28 64.6253 38.17 75.6853 33.36C90.4653 25.51 98.5 21 123.5 13C148.5 5 164.485 10.91 169.535 18.04C183.045 37.09 193.22 51.41 193.5 67.5Z;M198.275 96.31C198.585 114.84 191.885 126.49 180.745 135.73C163.005 150.45 146.355 158.85 127.215 167.14C125.615 167.76 121.375 169.66 117.645 170.65C111.405 172.9 105.515 171.76 102.095 166.65C98.3953 161.12 94.7253 153.87 92.4453 147.69C84.7053 126.66 77.4053 106.95 70.2253 85.72C67.5353 77.77 65.4153 69.62 63.1353 61.53C62.1453 58.02 61.2653 54.46 60.6353 50.87C59.0953 42.15 60.6253 38.17 71.6853 33.36C86.4653 25.51 135.565 5.11002 148.595 4.10002C157.275 3.43001 164.485 5.91002 169.535 13.04C183.045 32.09 197.995 80.22 198.275 96.31Z" begin="0s" dur="16s" repeatCount="indefinite" fill="freeze" calcMode="linear" keyTimes="0;0.5;1"/></path>
</svg>