<svg width="" height="" viewBox="0 0 251 180" fill="none" xmlns="http://www.w3.org/2000/svg">
<rect width="251" height="180" />
<path d="M56.5791 91.3681C57.5191 116.628 66.7791 142.718 86.5391 158.478C101.419 170.338 120.899 175.308 139.929 175.478C158.959 175.638 177.729 171.338 196.079 166.318C205.989 163.608 216.979 159.738 221.299 150.418C225.829 140.628 220.599 128.538 212.119 121.878C203.639 115.218 192.709 112.718 182.149 110.498C171.599 108.278 160.659 105.998 151.939 99.6481C142.529 92.7981 136.819 81.9781 132.859 71.0381C128.899 60.0981 126.329 48.6381 121.519 38.0481C116.709 27.4581 109.139 17.4681 98.3891 13.0181C57.3591 -3.97193 55.7091 67.8681 56.5791 91.3681Z" fill="#4BA392">
                                    <animate attributeName="d" values="M56.5791 91.3681C57.5191 116.628 66.7791 142.718 86.5391 158.478C101.419 170.338 120.899 175.308 139.929 175.478C158.959 175.638 177.729 171.338 196.079 166.318C205.989 163.608 216.979 159.738 221.299 150.418C225.829 140.628 220.599 128.538 212.119 121.878C203.639 115.218 192.709 112.718 182.149 110.498C171.599 108.278 160.659 105.998 151.939 99.6481C142.529 92.7981 136.819 81.9781 132.859 71.0381C128.899 60.0981 126.329 48.6381 121.519 38.0481C116.709 27.4581 109.139 17.4681 98.3891 13.0181C57.3591 -3.97193 55.7091 67.8681 56.5791 91.3681Z;M56.579 91.3681C51 121.878 66.779 142.718 86.539 158.478C101.419 170.338 120.899 175.308 139.929 175.478C158.959 175.638 167.65 175.02 186 170C195.91 167.29 211 162.434 215 151.5C219.022 140.505 220.599 128.538 212.119 121.878C203.639 115.218 192.709 112.718 182.149 110.498C171.599 108.278 169.5 107 158 103C146.5 99 139.929 97 135 79.5C130.071 62 133 45 129.5 33C126 21 122 13.0181 98.389 13.0181C74.7781 13.0181 62.1581 60.8581 56.579 91.3681Z;M56.5791 91.3681C57.5191 116.628 66.7791 142.718 86.5391 158.478C101.419 170.338 120.899 175.308 139.929 175.478C158.959 175.638 177.729 171.338 196.079 166.318C205.989 163.608 216.979 159.738 221.299 150.418C225.829 140.628 220.599 128.538 212.119 121.878C203.639 115.218 192.709 112.718 182.149 110.498C171.599 108.278 160.659 105.998 151.939 99.6481C142.529 92.7981 136.819 81.9781 132.859 71.0381C128.899 60.0981 126.329 48.6381 121.519 38.0481C116.709 27.4581 109.139 17.4681 98.3891 13.0181C57.3591 -3.97193 55.7091 67.8681 56.5791 91.3681Z" begin="0s" dur="16s" repeatCount="indefinite" fill="freeze" calcMode="linear" keyTimes="0;0.5;1"/></path>
</svg>