<svg width="52" height="34" viewBox="0 0 52 34" fill="none" xmlns="http://www.w3.org/2000/svg">
<path d="M-3.8147e-05 0V33.4167H51.6666V0H-3.8147e-05ZM17.15 4.08333L17.7666 2.84167L18.375 4.08333L19.75 4.28333L18.7583 5.25833L18.9916 6.66667L17.7666 6.01667L16.5333 6.66667L16.7666 5.3L15.775 4.325L17.15 4.08333ZM18.9916 15.5167L17.7666 14.875L16.5333 15.5167L16.7666 14.1667L15.775 13.1917L17.15 13L17.7666 11.75L18.375 13L19.75 13.1917L18.7583 14.1667L18.9916 15.5167ZM14.5916 7.35L15.2083 8.59167L16.5833 8.79167L15.5916 9.76667L15.8333 11.1333L14.6 10.4833L13.3333 11.1333L13.5666 9.76667L12.575 8.79167L13.95 8.59167L14.5916 7.35ZM12.425 15.5167L11.2 14.875L9.99996 15.5167L10.2 14.1667L9.20829 13.1917L10.5833 13L11.2 11.75L11.8083 13L13.1833 13.1917L12.1916 14.1667L12.425 15.5167ZM10.5833 4.08333L11.2 2.84167L11.8083 4.08333L13.1833 4.28333L12.1916 5.25833L12.425 6.66667L11.2 6.01667L9.99996 6.66667L10.2333 5.3L9.24163 4.325L10.5833 4.08333ZM7.70829 7.35L8.33329 8.59167L9.70829 8.79167L8.71663 9.76667L8.94996 11.1333L7.71663 10.4833L6.49163 11.1333L6.72496 9.76667L5.72496 8.79167L7.09996 8.59167L7.70829 7.35ZM4.25829 4.08333L4.87496 2.84167L5.49163 4.08333L6.86663 4.28333L5.83329 5.25833L6.10829 6.66667L4.87496 6.01667L3.64996 6.66667L3.8833 5.3L2.8833 4.325L4.25829 4.08333ZM4.25829 12.9833L4.87496 11.7333L5.49163 12.9833L6.86663 13.175L5.83329 14.1667L6.07496 15.5333L4.84163 14.8917L3.60829 15.5333L3.8833 14.1667L2.8833 13.1917L4.25829 12.9833ZM49.2583 31.2667L2.49996 31.3083V28.225H49.2333L49.2583 31.2667ZM49.2583 26.1083H2.49996V23.075H49.2333L49.2583 26.1083ZM49.2583 21.2333H2.49996V18.2H49.2333L49.2583 21.2333ZM49.2583 15.8167H22.9166V12.7833H49.2333L49.2583 15.8167ZM49.2583 10.325H22.9166V7.28333H49.2333L49.2583 10.325ZM49.2583 5.15H22.9166V2.10833H49.2333L49.2583 5.15Z" fill="#7E7E7E"/>
</svg>
